<svg width="425" height="175" viewBox="0 0 425 175" fill="none" xmlns="http://www.w3.org/2000/svg">
<path fill-rule="evenodd" clip-rule="evenodd" d="M294.56 108.141L290.681 118.074C283.836 135.605 271.313 150.335 255.112 159.912C238.911 169.489 219.968 173.36 201.309 170.906C182.65 168.452 165.352 159.815 152.179 146.375C139.005 132.934 130.716 115.467 128.637 96.7622C126.557 78.0578 130.807 59.196 140.706 43.1905C150.606 27.185 165.585 14.9593 183.249 8.46681C200.913 1.97432 220.244 1.58967 238.153 7.3743C256.061 13.1589 271.514 24.779 282.043 40.3781L288.008 49.2164L235.103 84.9252L294.56 108.141ZM212.284 87.4623L273.205 46.3435C271.199 43.3714 268.988 40.5647 266.595 37.9402C258.019 28.5354 247.103 21.4708 234.875 17.5212C219.235 12.4695 202.354 12.8054 186.928 18.4753C171.501 24.1452 158.42 34.8219 149.775 48.7996C141.13 62.7773 137.418 79.2493 139.235 95.584C141.051 111.919 148.289 127.173 159.794 138.911C171.298 150.648 186.405 158.191 202.7 160.334C218.995 162.477 235.538 159.097 249.686 150.733C260.747 144.194 269.846 134.904 276.146 123.846C277.904 120.76 279.444 117.536 280.749 114.196L212.284 87.4623Z" fill="#22A1FF"/>
<path d="M232.632 51.8295C232.632 57.5083 228.029 62.1118 222.35 62.1118C216.671 62.1118 212.068 57.5083 212.068 51.8295C212.068 46.1508 216.671 41.5472 222.35 41.5472C228.029 41.5472 232.632 46.1508 232.632 51.8295Z" fill="#3F3D56"/>
<path d="M0 130.73V112.933L69.3333 13.1856H97.8095V110.243H117V130.73H97.8095V162.186H74.6984V130.73H0ZM75.7302 37.1912L27.0317 110.243H75.7302V37.1912Z" fill="black"/>
<path d="M308 130.73V112.933L377.333 13.1856H405.81V110.243H425V130.73H405.81V162.186H382.698V130.73H308ZM383.73 37.1912L335.032 110.243H383.73V37.1912Z" fill="black"/>
</svg>
