<svg width="162" height="38" viewBox="0 0 162 38" fill="none" xmlns="http://www.w3.org/2000/svg">
<g filter="url(#filter0_d_207_1474)">
<path fill-rule="evenodd" clip-rule="evenodd" d="M22.6181 0H22.0829H17.6452V6.68649H21.5891C23.9225 6.73357 24.3086 6.84883 25.5226 7.39986C29.5134 9.22686 31.4322 13.7995 29.9012 17.8617C29.4726 19.0355 29.0235 19.7602 28.2171 20.638C27.1148 21.8321 25.7879 22.6487 24.1957 23.0876C23.7026 23.234 23.3258 23.2815 21.8799 23.3135H17.6453V30H22.6182V29.9875C23.1524 29.976 23.569 29.9589 23.6445 29.9363C23.8384 29.8852 24.1242 29.4055 24.1242 29.1095C24.1242 28.7319 24.7468 27.6602 25.2061 27.2621C25.7573 26.7824 27.3291 26.0679 28.1355 25.9455C28.9316 25.823 29.6563 25.9557 30.5034 26.3843C31.0954 26.6905 31.2689 26.7416 31.4731 26.6599C31.8099 26.5272 33.8206 24.4757 33.8206 24.2613C33.8206 24.1695 33.6471 23.7714 33.4328 23.3632C33.0959 22.7099 33.0551 22.5364 33.0245 21.7403C32.9837 20.8625 32.9939 20.8217 33.4736 19.6887C33.8512 18.7803 34.0656 18.4231 34.4432 18.0455C34.974 17.5147 35.5558 17.1779 36.1375 17.086C36.5866 17.0146 36.801 16.8819 36.9643 16.5655C37.1276 16.2695 37.1276 13.7382 36.9643 13.4422C36.8214 13.1564 36.5764 12.9727 36.3519 12.9625C36.2498 12.9625 35.913 12.8707 35.6068 12.7482C34.6882 12.4114 34.0554 11.6969 33.5042 10.4006C33.0755 9.39017 33.0551 9.28811 33.0551 8.35929C33.0551 7.43048 33.0755 7.34883 33.4532 6.61395C33.7083 6.12402 33.8206 5.777 33.7798 5.64431C33.7492 5.54224 33.2184 4.96046 32.606 4.35826C31.3914 3.15387 31.2383 3.09263 30.6565 3.52131C30.0952 3.92958 29.4113 4.1133 28.5335 4.06227C27.8803 4.03165 27.5639 3.95 26.6759 3.57235C25.8083 3.20491 25.5021 3.02118 25.0735 2.5823C24.5631 2.06175 24.1242 1.19418 24.1242 0.704262C24.1242 0.591988 24.012 0.387854 23.8691 0.255167C23.6662 0.0434736 23.6005 0.0071019 22.6181 0.00112718V0ZM14.3009 27.4379C14.9236 27.1658 15.2532 26.4071 15.0439 25.7217C14.9707 25.4705 14.5939 25.0414 14.3741 24.9472L14.2172 24.8844L14.2172 23.4978C14.2172 21.9647 14.2329 21.8653 14.5364 21.7606C14.641 21.724 15.1957 21.7031 16.0381 21.7031H17.3724V22.3033H18.2567L18.2671 22.3018V21.2242C18.2614 21.2254 18.2579 21.2263 18.2567 21.2269C18.2515 21.2321 18.2462 18.4327 18.2462 15.0159L18.2462 8.79437L18.2671 8.79718V7.85626L18.2625 7.85569H17.3724V8.30774H16.0695C15.3265 8.30774 14.6829 8.28158 14.573 8.25019C14.2329 8.16123 14.2172 8.08274 14.2172 6.51298V5.12636L14.3741 5.06357C14.5939 4.96938 14.9707 4.54031 15.0439 4.28915C15.2061 3.75543 15.0491 3.15892 14.6619 2.8188C14.3846 2.57811 14.1544 2.49439 13.7619 2.48915C13.3538 2.48915 12.9404 2.67229 12.6997 2.96008C12.5271 3.16938 12.3858 3.56706 12.3858 3.83392C12.3858 4.29961 12.684 4.81764 13.0712 5.01124L13.2753 5.11589V6.57054C13.2753 7.39728 13.3015 8.10367 13.3276 8.21356C13.4271 8.56937 13.6939 8.89379 14.0288 9.06646L14.3427 9.22344L15.8236 9.23914L17.3044 9.26007V9.67344V10.0868H14.7509H12.1922L12.0823 10.2072C11.9148 10.3851 11.9253 10.7095 12.1032 10.8769L12.2393 11.0025L14.7718 11.0182L17.3044 11.0339L17.3044 11.6566V12.2845L13.6677 12.2845H10.0259L9.90032 12.1537L9.7695 12.0281V10.7984V10.7984C9.7695 9.59495 9.7695 9.56879 9.87939 9.53739C10.0521 9.47983 10.3922 9.15018 10.5178 8.91472C10.6015 8.75251 10.6329 8.606 10.6329 8.30774C10.6329 7.97286 10.6119 7.87867 10.4811 7.63798C9.83229 6.47112 8.05846 6.84263 7.95381 8.1717C7.90672 8.75251 8.19974 9.31239 8.66544 9.51646L8.82765 9.58972V10.8455C8.82765 11.5467 8.85381 12.1851 8.87997 12.2949C8.96369 12.5932 9.24102 12.9176 9.55497 13.0798L9.8323 13.2263H13.5683L17.3044 13.2263V13.8804V14.5345L12.1503 14.5345H6.99625L6.94916 14.4141C6.73463 13.849 5.92358 13.5089 5.29044 13.7182C4.50033 13.9798 4.13928 14.8798 4.52126 15.6385C4.9451 16.4705 6.11719 16.617 6.72939 15.9159C6.82358 15.8112 6.923 15.6699 6.95439 15.6019L7.01195 15.4763L12.1608 15.4763H17.3044V16.1304V16.7845H13.5683H9.83229L9.55497 16.931C9.24102 17.0932 8.96369 17.4176 8.87997 17.7159C8.85381 17.8257 8.82765 18.4641 8.82765 19.1653L8.82765 20.4211L8.66544 20.4943C8.4666 20.5833 8.17881 20.8659 8.06369 21.0856C7.94858 21.3054 7.91195 21.8286 7.9852 22.1007C8.12648 22.6292 8.59218 23.006 9.16253 23.0478C9.7538 23.1001 10.209 22.8647 10.4811 22.3728C10.6119 22.1321 10.6329 22.0379 10.6329 21.7031C10.6329 21.4048 10.6015 21.2583 10.5178 21.0961C10.3922 20.8606 10.0521 20.531 9.87939 20.4734C9.7695 20.442 9.7695 20.4159 9.7695 19.2124V19.2124L9.7695 17.9827L9.90032 17.8571L10.0259 17.7263L13.6677 17.7263H17.3044V18.3542V18.9821H14.8137C13.0241 18.9821 12.2968 18.9978 12.2131 19.0449C12.0352 19.1391 11.9724 19.2542 11.9672 19.4897C11.9672 19.6624 11.9933 19.7304 12.1032 19.8141C12.2393 19.924 12.2916 19.924 14.7718 19.924H17.3044V20.3374V20.7507L15.8236 20.7717L14.348 20.7874L14.0445 20.9391C13.6939 21.1065 13.4218 21.4362 13.3329 21.792C13.2962 21.9176 13.2753 22.6083 13.2753 23.4507L13.2753 24.8897L13.0922 24.9786C12.7102 25.1565 12.3858 25.7112 12.3858 26.1769C12.3858 26.4437 12.5271 26.8414 12.6997 27.0507C12.9457 27.349 13.3276 27.5112 13.7672 27.5112C13.9712 27.506 14.2119 27.4746 14.3009 27.4379ZM13.4846 26.4647C13.2544 26.2344 13.3224 25.8943 13.6207 25.7844C13.8038 25.7112 13.8247 25.7164 14.0026 25.8682C14.2067 26.0408 14.2172 26.2554 14.034 26.4385C13.8771 26.6007 13.6311 26.6112 13.4846 26.4647ZM9.01078 21.9909C8.92706 21.9124 8.87997 21.8025 8.87997 21.7031C8.87997 21.5147 9.07881 21.2845 9.24102 21.2845C9.49218 21.2845 9.71718 21.499 9.71718 21.7345C9.71718 21.8653 9.42415 22.1217 9.27241 22.1217C9.19916 22.1217 9.07881 22.0641 9.01078 21.9909ZM5.45265 15.2932C5.36893 15.2147 5.32184 15.1048 5.32184 15.0054C5.32184 14.8066 5.52591 14.5868 5.70905 14.5868C5.91312 14.5868 6.12242 14.8013 6.12242 15.0054C6.12242 15.131 6.08579 15.2147 5.98114 15.3037C5.798 15.4606 5.60963 15.4554 5.45265 15.2932ZM9.01079 8.59553C8.92706 8.51705 8.87997 8.40716 8.87997 8.30774C8.87997 8.11937 9.07881 7.88914 9.24102 7.88914C9.49218 7.88914 9.71718 8.10367 9.71718 8.33914C9.71718 8.46995 9.42416 8.72635 9.27241 8.72635C9.19916 8.72635 9.07881 8.66879 9.01079 8.59553ZM13.4741 4.13741C13.3433 4.02229 13.3172 3.82345 13.4009 3.65601C13.5317 3.40485 13.83 3.36299 14.034 3.57229C14.2224 3.75543 14.2067 3.96996 13.9974 4.14787C13.8195 4.29438 13.6468 4.29438 13.4741 4.13741Z" fill="white"/>
<path d="M142.869 24.0401L147.652 17.6546L143.19 11.6143H147.923L149.748 14.2769C149.929 14.5563 150.076 14.9426 150.191 15.4357L150.241 15.7562L150.29 15.4357C150.339 15.2056 150.389 15.0083 150.438 14.844C150.487 14.6796 150.578 14.4906 150.709 14.2769L152.534 11.6143H157.292L152.805 17.6546L157.588 24.0401H152.706L150.734 21.1555C150.668 21.0733 150.602 20.9665 150.537 20.835C150.487 20.6871 150.43 20.4981 150.364 20.2679L150.241 19.5776L150.093 20.2679C150.027 20.5145 149.97 20.6953 149.92 20.8103C149.871 20.9254 149.805 21.0405 149.723 21.1555L147.775 24.0401H142.869Z" fill="white"/>
<path d="M143.137 16.2983L134.977 20.4649L135.198 20.6621C135.774 21.1716 136.398 21.4264 137.072 21.4264C137.894 21.4264 138.617 21.0319 139.242 20.243L139.439 19.9718L142.126 21.599L141.658 22.2153C140.294 23.7275 138.601 24.4836 136.579 24.4836C135.264 24.4836 133.834 23.9822 132.289 22.9796C130.744 21.9606 129.972 20.2841 129.972 17.9501C129.972 17.7036 129.972 17.4488 129.972 17.1859C130.021 16.9393 130.111 16.4051 130.243 15.5833C130.391 14.7451 131.081 13.8164 132.314 12.7974C133.563 11.7783 134.985 11.2688 136.579 11.2688C136.727 11.2688 136.867 11.277 136.998 11.2935C137.146 11.2935 137.886 11.4167 139.217 11.6633C140.548 11.9098 141.74 13.159 142.792 15.4107L143.137 16.2983ZM139.069 15.2382C138.74 14.6793 138.297 14.3588 137.738 14.2766C137.179 14.178 136.85 14.1287 136.752 14.1287C135.618 14.1287 134.796 14.5232 134.286 15.3121C133.793 16.0846 133.547 16.7174 133.547 17.2105C133.547 17.4735 133.596 17.72 133.694 17.9501L139.069 15.2382Z" fill="white"/>
<path d="M123.689 12.8224V7.89152L127.757 5.77124V24.0401H123.886V22.6595C123.376 23.432 122.694 23.9169 121.84 24.1141C120.985 24.3113 120.352 24.41 119.941 24.41C118.577 24.41 117.394 23.9251 116.391 22.9553C115.405 21.9856 114.838 21.0405 114.69 20.1201C114.558 19.1832 114.484 18.5915 114.468 18.345C114.452 18.0984 114.443 17.8683 114.443 17.6547C114.443 16.0439 114.854 14.6797 115.676 13.562C116.498 12.4279 117.279 11.7787 118.018 11.6143C118.758 11.45 119.226 11.3596 119.424 11.3431C119.621 11.3267 119.834 11.3185 120.065 11.3185C121.33 11.3185 122.456 11.7376 123.442 12.5759L123.689 12.8224ZM118.635 17.63C118.635 18.534 118.824 19.2736 119.202 19.8489C119.596 20.4242 120.007 20.7611 120.434 20.8597C120.862 20.9583 121.182 21.0077 121.396 21.0077C122.053 21.0077 122.596 20.7858 123.023 20.342C123.467 19.8818 123.689 19.2736 123.689 18.5176C123.689 17.1205 123.557 16.1507 123.294 15.6083C123.048 15.0495 122.686 14.7208 122.209 14.6222C121.733 14.5071 121.404 14.4496 121.223 14.4496C120.484 14.4496 119.867 14.7372 119.374 15.3125C118.881 15.8878 118.635 16.6603 118.635 17.63Z" fill="white"/>
<path d="M108.159 12.8224V7.89152L112.227 5.77124V24.0401H108.357V22.6595C107.847 23.432 107.165 23.9169 106.31 24.1141C105.456 24.3113 104.823 24.41 104.412 24.41C103.048 24.41 101.864 23.9251 100.862 22.9553C99.8756 21.9856 99.3085 21.0405 99.1606 20.1201C99.0291 19.1832 98.9552 18.5915 98.9387 18.345C98.9223 18.0984 98.9141 17.8683 98.9141 17.6547C98.9141 16.0439 99.325 14.6797 100.147 13.562C100.969 12.4279 101.749 11.7787 102.489 11.6143C103.229 11.45 103.697 11.3596 103.894 11.3431C104.091 11.3267 104.305 11.3185 104.535 11.3185C105.801 11.3185 106.927 11.7376 107.913 12.5759L108.159 12.8224ZM103.105 17.63C103.105 18.534 103.294 19.2736 103.672 19.8489C104.067 20.4242 104.478 20.7611 104.905 20.8597C105.332 20.9583 105.653 21.0077 105.867 21.0077C106.524 21.0077 107.066 20.7858 107.494 20.342C107.938 19.8818 108.159 19.2736 108.159 18.5176C108.159 17.1205 108.028 16.1507 107.765 15.6083C107.518 15.0495 107.157 14.7208 106.68 14.6222C106.204 14.5071 105.875 14.4496 105.694 14.4496C104.954 14.4496 104.338 14.7372 103.845 15.3125C103.352 15.8878 103.105 16.6603 103.105 17.63Z" fill="white"/>
<path d="M92.6167 24.0401V7.89152L96.6847 5.77124V24.0401H92.6167Z" fill="white"/>
<path d="M86.0376 12.9453V11.614H89.9083V24.0398H86.0376V22.6345C85.676 23.1769 85.1665 23.6042 84.509 23.9165C83.8516 24.2288 83.0791 24.3849 82.1915 24.3849C80.7287 24.3849 79.5124 23.9494 78.5427 23.0783C77.5729 22.2071 77.0059 21.2292 76.8415 20.1444C76.6771 19.0596 76.5867 18.4268 76.5703 18.246C76.5703 18.0652 76.5703 17.9173 76.5703 17.8022C76.5703 16.175 76.9812 14.7944 77.803 13.6603C78.6413 12.5262 79.4384 11.8687 80.1945 11.6879C80.9506 11.5071 81.4272 11.4085 81.6245 11.3921C81.8217 11.3756 82.0518 11.3674 82.3148 11.3674C82.5942 11.3674 83.1284 11.4332 83.9173 11.5647C84.7227 11.6962 85.4295 12.1564 86.0376 12.9453ZM80.7616 17.8022C80.7616 18.0816 80.8191 18.6405 80.9341 19.4787C81.0492 20.3005 81.4519 20.769 82.1422 20.884C82.8325 20.9826 83.3092 21.032 83.5722 21.032C85.0679 21.032 85.8157 19.9307 85.8157 17.7283C85.8157 16.7257 85.676 15.986 85.3966 15.5094C85.1172 15.0327 84.6487 14.7204 83.9913 14.5725L83.3996 14.4985C82.7421 14.4985 82.1751 14.7369 81.6984 15.2135C81.2218 15.6737 80.9259 16.3147 80.8109 17.1366C80.778 17.2516 80.7616 17.3749 80.7616 17.5064C80.7616 17.6379 80.7616 17.7365 80.7616 17.8022Z" fill="white"/>
<path d="M67.7603 14.8191L73.7266 6.73242V11.614H76.3646L75.3045 14.8191H73.7266V24.0398H69.6586V14.8191H67.7603Z" fill="white"/>
<path d="M62.5666 24.04V13.2413L66.6346 11.1457V24.04H62.5666ZM62.4434 8.43373C62.4434 7.80915 62.657 7.27497 63.0844 6.83119C63.5282 6.37098 64.0623 6.14087 64.6869 6.14087C65.3115 6.14087 65.8457 6.36276 66.2894 6.80654C66.7332 7.25032 66.9551 7.78449 66.9551 8.40907C66.9551 9.01721 66.7332 9.54317 66.2894 9.98695C65.8457 10.4307 65.3361 10.6526 64.7609 10.6526C64.1363 10.6526 63.5939 10.439 63.1337 10.0116C62.6735 9.58427 62.4434 9.0583 62.4434 8.43373Z" fill="white"/>
<path d="M56.084 12.8718V11.6145H59.9547V23.3006C59.9547 25.01 59.363 26.3742 58.1796 27.3933C56.9962 28.4123 55.2622 28.9218 52.9775 28.9218C52.5173 28.9218 51.8928 28.8808 51.1038 28.7986C50.3149 28.7328 49.5588 28.552 48.8356 28.2562C48.1288 27.9603 47.5782 27.6891 47.1838 27.4426L48.7123 24.7059C49.6492 25.4291 50.7997 25.8483 52.164 25.9633C54.7773 25.9633 56.084 25.1415 56.084 23.4979V22.2898C55.706 22.8322 55.1964 23.2596 54.5554 23.5718C53.9144 23.8677 53.1666 24.0156 52.3119 24.0156C51.9996 24.0156 51.4243 23.9581 50.5861 23.843C49.7643 23.7115 48.9096 23.1034 48.022 22.0186C47.1509 20.9174 46.7153 19.545 46.7153 17.9013C46.7153 16.4056 47.0194 15.1318 47.6275 14.0799C48.2357 13.028 48.9918 12.313 49.8957 11.935C50.7997 11.5405 51.6462 11.3433 52.4351 11.3433C53.898 11.3433 55.1143 11.8528 56.084 12.8718ZM50.8819 17.9013C50.8819 18.7396 51.0709 19.4217 51.449 19.9476C51.827 20.4736 52.2297 20.7859 52.657 20.8845C53.0844 20.9667 53.4213 21.0078 53.6679 21.0078C54.3582 21.0078 54.9006 20.7777 55.2951 20.3175C55.706 19.8408 55.9114 19.1916 55.9114 18.3698C55.9114 17.0056 55.7881 16.0687 55.5416 15.5592C55.3115 15.0332 54.9663 14.7209 54.5061 14.6223C54.0459 14.5072 53.7172 14.4497 53.5199 14.4497C52.7639 14.4497 52.1311 14.7702 51.6216 15.4112C51.1285 16.0358 50.8819 16.8658 50.8819 17.9013Z" fill="white"/>
<path d="M40.5613 24.04V13.2413L44.6292 11.1457V24.04H40.5613ZM40.438 8.43373C40.438 7.80915 40.6517 7.27497 41.079 6.83119C41.5228 6.37098 42.057 6.14087 42.6815 6.14087C43.3061 6.14087 43.8403 6.36276 44.2841 6.80654C44.7279 7.25032 44.9497 7.78449 44.9497 8.40907C44.9497 9.01721 44.7279 9.54317 44.2841 9.98695C43.8403 10.4307 43.3308 10.6526 42.7555 10.6526C42.1309 10.6526 41.5885 10.439 41.1283 10.0116C40.6681 9.58427 40.438 9.0583 40.438 8.43373Z" fill="white"/>
</g>
<defs>
<filter id="filter0_d_207_1474" x="0.368164" y="0" width="161.22" height="38" filterUnits="userSpaceOnUse" color-interpolation-filters="sRGB">
<feFlood flood-opacity="0" result="BackgroundImageFix"/>
<feColorMatrix in="SourceAlpha" type="matrix" values="0 0 0 0 0 0 0 0 0 0 0 0 0 0 0 0 0 0 127 0" result="hardAlpha"/>
<feOffset dy="4"/>
<feGaussianBlur stdDeviation="2"/>
<feComposite in2="hardAlpha" operator="out"/>
<feColorMatrix type="matrix" values="0 0 0 0 0 0 0 0 0 0 0 0 0 0 0 0 0 0 0.25 0"/>
<feBlend mode="normal" in2="BackgroundImageFix" result="effect1_dropShadow_207_1474"/>
<feBlend mode="normal" in="SourceGraphic" in2="effect1_dropShadow_207_1474" result="shape"/>
</filter>
</defs>
</svg>
