<svg width="1366" height="495" viewBox="0 0 1366 495" fill="none" xmlns="http://www.w3.org/2000/svg">
<path d="M429.781 216.138C428.914 220.694 427.875 225.204 426.663 229.668C426.531 230.186 426.384 230.697 426.237 231.215H409.379C407.943 231.216 406.567 231.787 405.552 232.803C404.536 233.818 403.965 235.194 403.964 236.63V284.684C403.453 285.635 402.935 286.579 402.416 287.522C399.74 292.396 396.954 297.215 394.107 301.973C347.682 379.295 282.933 444 205.574 490.374L210.154 480.039C208.475 479.923 206.789 479.807 205.11 479.691C168.555 477.193 131.876 474.423 96.1788 466.208C58.8342 457.614 22.3022 442.707 -6.96534 417.992C-36.2409 393.269 -57.702 357.963 -60.6806 319.765C-61.6739 306.637 -60.346 293.436 -56.7579 280.769C-49.8959 256.387 -34.9021 234.448 -13.2706 221.468C20.7085 201.085 65.0315 205.239 100.852 222.195C136.664 239.144 165.816 267.201 194.279 294.771C165.541 245.497 125.529 203.738 77.526 172.919C61.6195 162.739 44.7384 153.673 31.2148 140.484C17.6988 127.302 7.72626 108.822 10.1171 90.0936C12.8325 68.8515 30.2323 52.7305 47.6627 40.2993C54.6256 35.333 61.8129 30.622 69.2246 26.2901C90.1365 14.0368 112.758 4.79274 136.649 1.36585C169.011 -3.28327 203.965 3.77164 228.776 25.0601C256.729 49.0483 268.194 87.7342 267.103 124.741C284.325 99.709 310.885 80.5478 340.879 79.7356C372.019 78.9001 401.62 98.5718 417.216 125.538C432.806 152.497 435.606 185.544 429.781 216.138Z" fill="#F1F1F1"/>
<path d="M232.762 320.101C251.001 318.495 267.849 316.619 285.523 311.618C302.654 306.771 319.139 298.657 331.335 285.408C344.452 271.158 351.532 252.651 356.528 234.229C359.314 223.957 361.602 213.542 363.762 203.124C366.105 191.819 368.187 180.465 370.008 169.061C373.632 146.361 376.219 123.527 377.77 100.559C377.957 97.7711 378.129 94.9821 378.285 92.1922C378.382 90.4713 375.705 90.4768 375.608 92.1922C374.334 114.832 372.043 137.383 368.734 159.846C365.469 181.916 361.291 203.89 355.99 225.564C351.5 243.926 345.685 262.574 334.168 277.859C323.369 292.193 307.77 301.559 290.927 307.16C273.788 312.859 255.718 315.134 237.808 316.826C235.611 317.033 234.96 317.231 232.762 317.425C231.059 317.574 231.043 320.253 232.762 320.101Z" fill="white"/>
<path d="M-55.2129 282.744C-32.2015 284.02 -9.42406 288.033 12.6376 294.699C34.7087 301.35 55.9184 310.581 75.8272 322.2C95.0642 333.436 112.923 346.881 129.04 362.26C144.681 377.195 158.622 393.815 170.606 411.816C182.645 429.863 192.622 449.202 200.35 469.472C201.293 471.953 202.201 474.446 203.074 476.953C203.638 478.569 206.225 477.873 205.655 476.241C198.425 455.543 188.893 435.722 177.24 417.151C165.588 398.578 151.914 381.353 136.467 365.793C120.773 349.991 103.307 336.054 84.4153 324.258C44.7489 299.553 -0.212654 284.607 -46.7774 280.648C-49.5862 280.413 -52.3981 280.219 -55.2129 280.067C-56.9343 279.973 -56.929 282.65 -55.2129 282.744Z" fill="white"/>
<path d="M69.9477 29.4276C84.6609 34.1063 98.607 40.9205 111.34 49.6518C124.35 58.6346 136.216 69.1711 146.674 81.0277C157.695 93.5004 167.493 107.002 175.934 121.347C184.887 136.493 192.664 152.303 199.198 168.639C205.926 185.41 211.584 202.59 216.14 220.077C220.77 237.771 224.387 255.714 226.973 273.82C229.546 291.734 231.102 309.779 231.636 327.869C232.174 345.166 231.663 362.481 230.105 379.717C228.68 395.797 226.078 411.75 222.319 427.45C218.981 441.63 214.278 455.452 208.274 468.725C206.883 471.737 205.407 474.708 203.846 477.637C203.037 479.156 205.347 480.51 206.158 478.988C212.793 466.31 218.091 452.977 221.967 439.204C226.315 423.871 229.467 408.224 231.394 392.404C233.531 375.24 234.571 357.957 234.509 340.66C234.471 322.489 233.389 304.335 231.269 286.288C229.148 268.016 226 249.878 221.838 231.959C217.687 214.012 212.421 196.341 206.07 179.048C199.95 162.308 192.622 146.035 184.144 130.356C176.069 115.395 166.658 101.193 156.028 87.9253C145.932 75.2921 134.406 63.8713 121.68 53.8914C109.409 44.297 95.8493 36.4764 81.3993 30.6593C77.8681 29.254 74.2881 27.9831 70.6593 26.8466C69.0122 26.3285 68.3074 28.9116 69.9477 29.4276Z" fill="white"/>
<path d="M228.73 495C334.482 495 420.211 491.537 420.211 487.264C420.211 482.992 334.482 479.529 228.73 479.529C122.978 479.529 37.2493 482.992 37.2493 487.264C37.2493 491.537 122.978 495 228.73 495Z" fill="#F1F1F1"/>
<path d="M934.807 216.138C935.674 220.694 936.713 225.204 937.925 229.668C938.057 230.186 938.204 230.697 938.351 231.215H955.209C956.644 231.216 958.021 231.787 959.036 232.803C960.052 233.818 960.623 235.194 960.624 236.63V284.684C961.135 285.635 961.653 286.579 962.172 287.522C964.848 292.396 967.634 297.215 970.481 301.973C1016.91 379.295 1081.66 444 1159.01 490.374L1154.43 480.039C1156.11 479.923 1157.8 479.807 1159.48 479.691C1196.03 477.193 1232.71 474.423 1268.41 466.208C1305.75 457.614 1342.29 442.707 1371.55 417.992C1400.83 393.269 1422.29 357.963 1425.27 319.765C1426.26 306.637 1424.93 293.436 1421.35 280.769C1414.48 256.387 1399.49 234.448 1377.86 221.468C1343.88 201.085 1299.56 205.239 1263.74 222.195C1227.92 239.144 1198.77 267.201 1170.31 294.771C1199.05 245.497 1239.06 203.738 1287.06 172.919C1302.97 162.739 1319.85 153.673 1333.37 140.484C1346.89 127.302 1356.86 108.822 1354.47 90.0936C1351.76 68.8515 1334.36 52.7305 1316.93 40.2993C1309.96 35.333 1302.77 30.622 1295.36 26.2901C1274.45 14.0368 1251.83 4.79274 1227.94 1.36585C1195.58 -3.28327 1160.62 3.77164 1135.81 25.0601C1107.86 49.0483 1096.39 87.7342 1097.48 124.741C1080.26 99.709 1053.7 80.5478 1023.71 79.7356C992.569 78.9001 962.968 98.5718 947.372 125.538C931.782 152.497 928.982 185.544 934.807 216.138Z" fill="#F1F1F1"/>
<path d="M1131.83 320.101C1113.59 318.495 1096.74 316.619 1079.07 311.618C1061.93 306.771 1045.45 298.657 1033.25 285.408C1020.14 271.158 1013.06 252.651 1008.06 234.229C1005.27 223.957 1002.99 213.542 1000.83 203.124C998.483 191.819 996.401 180.465 994.58 169.061C990.956 146.361 988.369 123.527 986.818 100.559C986.631 97.7711 986.459 94.9821 986.303 92.1922C986.206 90.4713 988.883 90.4768 988.98 92.1922C990.254 114.832 992.545 137.383 995.854 159.846C999.119 181.916 1003.3 203.89 1008.6 225.564C1013.09 243.926 1018.9 262.574 1030.42 277.859C1041.22 292.193 1056.82 301.559 1073.66 307.16C1090.8 312.859 1108.87 315.134 1126.78 316.826C1128.98 317.033 1129.63 317.231 1131.83 317.425C1133.53 317.574 1133.54 320.253 1131.83 320.101Z" fill="white"/>
<path d="M1419.8 282.744C1396.79 284.02 1374.01 288.033 1351.95 294.699C1329.88 301.35 1308.67 310.581 1288.76 322.2C1269.52 333.436 1251.67 346.881 1235.55 362.26C1219.91 377.195 1205.97 393.815 1193.98 411.816C1181.94 429.863 1171.97 449.202 1164.24 469.472C1163.3 471.953 1162.39 474.446 1161.51 476.953C1160.95 478.569 1158.36 477.873 1158.93 476.241C1166.16 455.543 1175.69 435.722 1187.35 417.151C1199 398.578 1212.67 381.353 1228.12 365.793C1243.81 349.991 1261.28 336.054 1280.17 324.258C1319.84 299.553 1364.8 284.607 1411.37 280.648C1414.17 280.413 1416.99 280.219 1419.8 280.067C1421.52 279.973 1421.52 282.65 1419.8 282.744Z" fill="white"/>
<path d="M1294.64 29.4276C1279.93 34.1063 1265.98 40.9205 1253.25 49.6518C1240.24 58.6346 1228.37 69.1711 1217.91 81.0277C1206.89 93.5004 1197.09 107.002 1188.65 121.347C1179.7 136.493 1171.92 152.303 1165.39 168.639C1158.66 185.41 1153 202.59 1148.45 220.077C1143.82 237.771 1140.2 255.714 1137.62 273.82C1135.04 291.734 1133.49 309.779 1132.95 327.869C1132.41 345.166 1132.93 362.481 1134.48 379.717C1135.91 395.797 1138.51 411.75 1142.27 427.45C1145.61 441.63 1150.31 455.452 1156.31 468.725C1157.71 471.737 1159.18 474.708 1160.74 477.637C1161.55 479.156 1159.24 480.51 1158.43 478.988C1151.79 466.31 1146.5 452.977 1142.62 439.204C1138.27 423.871 1135.12 408.224 1133.19 392.404C1131.06 375.24 1130.02 357.957 1130.08 340.66C1130.12 322.489 1131.2 304.335 1133.32 286.288C1135.44 268.016 1138.59 249.878 1142.75 231.959C1146.9 214.012 1152.17 196.341 1158.52 179.048C1164.64 162.308 1171.97 146.035 1180.44 130.356C1188.52 115.395 1197.93 101.193 1208.56 87.9253C1218.66 75.2921 1230.18 63.8713 1242.91 53.8914C1255.18 44.297 1268.74 36.4764 1283.19 30.6593C1286.72 29.254 1290.3 27.9831 1293.93 26.8466C1295.58 26.3285 1296.28 28.9116 1294.64 29.4276Z" fill="white"/>
<path d="M1135.86 495C1030.11 495 944.377 491.537 944.377 487.264C944.377 482.992 1030.11 479.529 1135.86 479.529C1241.61 479.529 1327.34 482.992 1327.34 487.264C1327.34 491.537 1241.61 495 1135.86 495Z" fill="#F1F1F1"/>
</svg>
