<svg width="262" height="42" viewBox="0 0 262 42" fill="none" xmlns="http://www.w3.org/2000/svg">
<rect width="44.8924" height="41.6667" rx="3.33333" fill="url(#paint0_linear_56_403)"/>
<mask id="mask0_56_403" style="mask-type:luminance" maskUnits="userSpaceOnUse" x="5" y="5" width="35" height="32">
<path d="M5 14.0204H8.01905V17.0333H5V14.0204ZM9.46826 19.6592H14.2992V24.4797H9.46826V19.6592ZM19.8762 16.7046H27.5167V24.9613H19.2441V17.218L15.5493 13.6629H10.0596V7.57715H16.1577V13.1252L19.8762 16.7046ZM19.2441 5H24.135C28.324 5.02855 32.3316 6.70929 35.2836 9.67552C38.2356 12.6417 39.8924 16.6527 39.8924 20.8333C39.8924 25.014 38.2356 29.0249 35.2836 31.9912C32.3316 34.9574 28.324 36.6381 24.135 36.6667H19.2441V30.9724H24.135C26.8145 30.9496 29.3764 29.8713 31.263 27.9723C33.1497 26.0734 34.2082 23.5075 34.2082 20.8333C34.2082 18.1592 33.1497 15.5933 31.263 13.6943C29.3764 11.7954 26.8145 10.7171 24.135 10.6943H19.2441V5Z" fill="white"/>
</mask>
<g mask="url(#mask0_56_403)">
<path d="M40 5H5V36.6667H40V5Z" fill="white"/>
</g>
<path d="M247.9 29.0882L249.169 25.1859L249.982 25.7712C250.61 26.1831 251.25 26.4975 251.9 26.7143C252.551 26.9094 253.147 27.007 253.689 27.007C254.404 27.007 254.989 26.866 255.445 26.5842C255.9 26.3024 256.16 26.0314 256.225 25.7712C256.29 25.4894 256.323 25.2618 256.323 25.0884C256.323 24.3513 255.694 23.8201 254.437 23.4949L254.111 23.4299L253.103 23.2023L252.518 23.0397C251.629 22.7578 250.719 22.3134 249.786 21.7064C248.876 21.0777 248.421 19.9938 248.421 18.4545C248.421 17.6958 248.594 16.9695 248.941 16.2758C249.31 15.582 249.819 14.9967 250.469 14.5198C251.141 14.0428 251.879 13.696 252.681 13.4792C253.504 13.2407 254.415 13.1215 255.412 13.1215C255.607 13.1215 255.835 13.1323 256.095 13.154C256.355 13.1757 256.561 13.1865 256.713 13.1865C257.342 13.1865 257.97 13.2732 258.599 13.4466C259.228 13.6201 259.9 13.8802 260.615 14.2271L261.233 14.5198L260.062 18.0318L259.412 17.6741C258.003 16.9587 256.832 16.601 255.9 16.601C255.315 16.601 254.816 16.7419 254.404 17.0237C254.014 17.2839 253.819 17.6849 253.819 18.2269C253.819 18.6388 253.916 18.9206 254.111 19.0724C254.307 19.2241 254.48 19.3434 254.632 19.4301C254.784 19.5168 255.022 19.6144 255.347 19.7228L255.835 19.9179L255.965 19.9504L257.201 20.2431L257.558 20.3406C258.165 20.5357 258.632 20.6983 258.957 20.8284C259.282 20.9585 259.672 21.1536 260.127 21.4137C260.583 21.6522 260.995 22.1075 261.363 22.7795C261.732 23.4516 261.916 24.1995 261.916 25.0233C261.916 25.652 261.797 26.2699 261.558 26.8769C261.341 27.4839 260.973 28.0909 260.453 28.6979C259.954 29.2833 259.195 29.7602 258.176 30.1288C257.157 30.519 255.965 30.7141 254.599 30.7141H254.079C253.906 30.7141 253.721 30.7033 253.526 30.6816C253.353 30.6599 252.93 30.6165 252.258 30.5515C251.586 30.4865 250.643 30.2263 249.429 29.771L247.9 29.0882Z" fill="white"/>
<path d="M236.533 30.0964V15.8207L241.639 13.024V15.8857C242.159 15.0619 242.907 14.4332 243.882 13.9996C244.858 13.566 245.953 13.3492 247.167 13.3492C247.384 13.3492 247.6 13.3818 247.817 13.4468C248.034 13.4902 248.207 13.5335 248.337 13.5769L246.939 18.6498C246.506 18.433 246.007 18.3246 245.443 18.3246C244.923 18.3246 244.392 18.4438 243.85 18.6823C243.33 18.9208 242.918 19.2676 242.614 19.7229C242.311 20.1782 242.116 20.5901 242.029 20.9586C241.942 21.3055 241.899 21.8475 241.899 22.5846V30.0964H236.533Z" fill="white"/>
<path d="M234.385 19.8854L223.621 25.3811L223.914 25.6412C224.672 26.3133 225.496 26.6493 226.385 26.6493C227.469 26.6493 228.423 26.129 229.247 25.0884L229.507 24.7307L233.051 26.8769L232.433 27.6899C230.634 29.6844 228.401 30.6816 225.735 30.6816C224 30.6816 222.114 30.0204 220.076 28.698C218.038 27.3539 217.02 25.1426 217.02 22.0642C217.02 21.739 217.02 21.4029 217.02 21.0561C217.085 20.7309 217.204 20.0263 217.377 18.9424C217.572 17.8367 218.483 16.6119 220.109 15.2677C221.756 13.9236 223.632 13.2516 225.735 13.2516C225.93 13.2516 226.114 13.2624 226.287 13.2841C226.482 13.2841 227.458 13.4467 229.214 13.7719C230.97 14.0971 232.542 15.7447 233.929 18.7147L234.385 19.8854ZM229.019 18.4871C228.585 17.75 228 17.3273 227.263 17.2189C226.526 17.0888 226.092 17.0238 225.962 17.0238C224.466 17.0238 223.382 17.5441 222.71 18.5847C222.06 19.6036 221.735 20.4382 221.735 21.0886C221.735 21.4355 221.8 21.7607 221.93 22.0642L229.019 18.4871Z" fill="white"/>
<path d="M197.662 15.8207L202.735 13.024L202.768 15.6255C203.678 14.4115 204.686 13.7178 205.792 13.5443C206.919 13.3492 207.743 13.2517 208.263 13.2517C210.063 13.2517 211.483 13.7937 212.523 14.8776C213.564 15.9616 214.084 17.3924 214.084 19.1701V30.0964H208.718V20.6985C208.718 18.7907 207.862 17.8368 206.149 17.8368C205.521 17.8368 204.838 18.0861 204.101 18.5848C203.385 19.0617 203.028 19.9072 203.028 21.1212L203.06 30.0964H197.695L197.662 15.8207Z" fill="white"/>
<path d="M177.656 15.8207L182.729 13.024L182.762 15.6255C183.672 14.4115 184.68 13.7178 185.786 13.5443C186.913 13.3492 187.737 13.2517 188.257 13.2517C190.057 13.2517 191.477 13.7937 192.517 14.8776C193.558 15.9616 194.078 17.3924 194.078 19.1701V30.0964H188.713V20.6985C188.713 18.7907 187.856 17.8368 186.144 17.8368C185.515 17.8368 184.832 18.0861 184.095 18.5848C183.38 19.0617 183.022 19.9072 183.022 21.1212L183.054 30.0964H177.689L177.656 15.8207Z" fill="white"/>
<path d="M168.977 15.4629V13.7069H174.083V30.0963H168.977V28.2428C168.5 28.9582 167.828 29.5218 166.961 29.9337C166.094 30.3457 165.075 30.5516 163.905 30.5516C161.975 30.5516 160.371 29.9771 159.092 28.8281C157.813 27.6791 157.065 26.3892 156.848 24.9584C156.631 23.5276 156.512 22.6929 156.49 22.4544C156.49 22.216 156.49 22.0209 156.49 21.8691C156.49 19.7229 157.032 17.9018 158.116 16.406C159.222 14.9101 160.273 14.0429 161.27 13.8045C162.268 13.566 162.896 13.4359 163.157 13.4142C163.417 13.3926 163.72 13.3817 164.067 13.3817C164.436 13.3817 165.14 13.4684 166.181 13.6419C167.243 13.8153 168.175 14.4223 168.977 15.4629ZM162.018 21.8691C162.018 22.2376 162.094 22.9747 162.246 24.0804C162.398 25.1643 162.929 25.7822 163.839 25.9339C164.75 26.064 165.379 26.1291 165.726 26.1291C167.698 26.1291 168.685 24.6766 168.685 21.7715C168.685 20.4491 168.5 19.4736 168.132 18.8449C167.763 18.2162 167.146 17.8043 166.278 17.6091L165.498 17.5116C164.631 17.5116 163.883 17.8259 163.254 18.4546C162.625 19.0617 162.235 19.9071 162.083 20.9911C162.04 21.1429 162.018 21.3054 162.018 21.4789C162.018 21.6523 162.018 21.7824 162.018 21.8691Z" fill="white"/>
<path d="M148.186 30.0964V8.79661L153.551 6V30.0964H148.186Z" fill="white"/>
<path d="M127.672 36.6652V13.7069H132.777V15.6256C133.341 14.9101 134.046 14.3573 134.891 13.9671C135.737 13.5552 136.712 13.3492 137.818 13.3492C139.986 13.3492 141.763 14.1189 143.151 15.6581C144.56 17.1973 145.265 19.311 145.265 21.9992C145.265 23.9503 144.842 25.6196 143.996 27.0071C143.172 28.3946 142.37 29.2509 141.59 29.5761C140.809 29.9013 140.257 30.1181 139.931 30.2265C139.606 30.3349 139.27 30.4216 138.923 30.4866C138.598 30.5517 138.219 30.5842 137.785 30.5842C136.073 30.5842 134.598 29.988 133.363 28.7956L133.037 28.4705V34.1938L127.672 36.6652ZM133.005 22.1293C133.005 23.5384 133.265 24.6116 133.785 25.3487C134.306 26.0857 135.054 26.4543 136.029 26.4543C136.138 26.4543 136.257 26.4543 136.387 26.4543C136.669 26.3893 137.016 26.3134 137.427 26.2267C137.861 26.1183 138.306 25.7822 138.761 25.2186C139.238 24.6549 139.52 24.0587 139.606 23.4301C139.693 22.8014 139.736 22.3895 139.736 22.1943C139.736 21.8692 139.65 21.1429 139.476 20.0156C139.303 18.8883 138.739 18.2379 137.785 18.0645C136.853 17.8693 136.257 17.7718 135.997 17.7718C135.043 17.7718 134.306 18.1403 133.785 18.8774C133.265 19.6145 133.005 20.6985 133.005 22.1293Z" fill="white"/>
<path d="M118.717 30.0964V8.79661L124.082 6V30.0964H118.717Z" fill="white"/>
<path d="M110.036 15.4629V13.7069H115.141V30.0963H110.036V28.2428C109.559 28.9582 108.887 29.5218 108.02 29.9337C107.153 30.3457 106.134 30.5516 104.963 30.5516C103.034 30.5516 101.429 29.9771 100.15 28.8281C98.8713 27.6791 98.1233 26.3892 97.9065 24.9584C97.6897 23.5276 97.5705 22.6929 97.5488 22.4544C97.5488 22.216 97.5488 22.0209 97.5488 21.8691C97.5488 19.7229 98.0908 17.9018 99.1748 16.406C100.28 14.9101 101.332 14.0429 102.329 13.8045C103.326 13.566 103.955 13.4359 104.215 13.4142C104.475 13.3926 104.779 13.3817 105.126 13.3817C105.494 13.3817 106.199 13.4684 107.239 13.6419C108.302 13.8153 109.234 14.4223 110.036 15.4629ZM103.077 21.8691C103.077 22.2376 103.153 22.9747 103.305 24.0804C103.456 25.1643 103.988 25.7822 104.898 25.9339C105.809 26.064 106.437 26.1291 106.784 26.1291C108.757 26.1291 109.743 24.6766 109.743 21.7715C109.743 20.4491 109.559 19.4736 109.191 18.8449C108.822 18.2162 108.204 17.8043 107.337 17.6091L106.557 17.5116C105.689 17.5116 104.941 17.8259 104.313 18.4546C103.684 19.0617 103.294 19.9071 103.142 20.9911C103.099 21.1429 103.077 21.3054 103.077 21.4789C103.077 21.6523 103.077 21.7824 103.077 21.8691Z" fill="white"/>
<path d="M85.9316 17.9345L93.8012 7.26831V13.707H97.2807L95.8824 17.9345H93.8012V30.0965H88.4356V17.9345H85.9316Z" fill="white"/>
<path d="M79.0806 30.0964V15.8532L84.4462 13.0891V30.0964H79.0806ZM78.918 9.51203C78.918 8.68823 79.1998 7.98365 79.7635 7.39832C80.3488 6.7913 81.0534 6.48779 81.8772 6.48779C82.701 6.48779 83.4056 6.78046 83.9909 7.3658C84.5762 7.95113 84.8689 8.65571 84.8689 9.47952C84.8689 10.2816 84.5762 10.9754 83.9909 11.5607C83.4056 12.1461 82.7335 12.4387 81.9747 12.4387C81.1509 12.4387 80.4355 12.1569 79.8285 11.5932C79.2215 11.0296 78.918 10.3358 78.918 9.51203Z" fill="white"/>
<path d="M70.529 15.3655V13.707H75.6344V29.1209C75.6344 31.3755 74.854 33.1749 73.2931 34.519C71.7322 35.8631 69.445 36.5352 66.4316 36.5352C65.8246 36.5352 65.0008 36.481 63.9602 36.3726C62.9196 36.2858 61.9224 36.0474 60.9685 35.6572C60.0363 35.2669 59.31 34.9092 58.7897 34.584L60.8059 30.9745C62.0416 31.9283 63.5591 32.4812 65.3585 32.6329C68.8055 32.6329 70.529 31.549 70.529 29.381V27.7876C70.0304 28.503 69.3583 29.0667 68.5128 29.4786C67.6673 29.8688 66.6809 30.0639 65.5536 30.0639C65.1417 30.0639 64.383 29.9881 63.2773 29.8363C62.1934 29.6629 61.066 28.8607 59.8954 27.4299C58.7464 25.9774 58.1719 24.1672 58.1719 21.9993C58.1719 20.0265 58.5729 18.3463 59.3751 16.9589C60.1772 15.5714 61.1744 14.6284 62.3668 14.1298C63.5591 13.6095 64.6756 13.3493 65.7162 13.3493C67.6457 13.3493 69.2499 14.0214 70.529 15.3655ZM63.6675 21.9993C63.6675 23.1049 63.9169 24.0046 64.4155 24.6983C64.9141 25.3921 65.4452 25.804 66.0089 25.9341C66.5725 26.0424 67.017 26.0966 67.3422 26.0966C68.2527 26.0966 68.9681 25.7931 69.4884 25.1861C70.0304 24.5574 70.3014 23.7011 70.3014 22.6171C70.3014 20.8178 70.1388 19.5821 69.8136 18.91C69.5101 18.2163 69.0548 17.8044 68.4478 17.6743C67.8408 17.5225 67.4072 17.4467 67.147 17.4467C66.1498 17.4467 65.3152 17.8694 64.6431 18.7149C63.9927 19.5387 63.6675 20.6335 63.6675 21.9993Z" fill="white"/>
<path d="M50.0552 30.0964V15.8532L55.4208 13.0891V30.0964H50.0552ZM49.8926 9.51203C49.8926 8.68823 50.1744 7.98365 50.7381 7.39832C51.3234 6.7913 52.028 6.48779 52.8518 6.48779C53.6756 6.48779 54.3802 6.78046 54.9655 7.3658C55.5508 7.95113 55.8435 8.65571 55.8435 9.47952C55.8435 10.2816 55.5508 10.9754 54.9655 11.5607C54.3802 12.1461 53.7081 12.4387 52.9493 12.4387C52.1255 12.4387 51.4101 12.1569 50.8031 11.5932C50.1961 11.0296 49.8926 10.3358 49.8926 9.51203Z" fill="white"/>
<defs>
<linearGradient id="paint0_linear_56_403" x1="41.4093" y1="-1.9957e-06" x2="2.5056" y2="43.8877" gradientUnits="userSpaceOnUse">
<stop stop-color="#13CC62"/>
<stop offset="1" stop-color="#017DAB"/>
</linearGradient>
</defs>
</svg>
