<svg width="123" height="30" viewBox="0 0 123 30" fill="none" xmlns="http://www.w3.org/2000/svg">
<g clip-path="url(#clip0_207_1452)">
<path fill-rule="evenodd" clip-rule="evenodd" d="M13.4345 17.9761L5.62741 21.545L0.000488281 21.5435L12.3336 0L21.9662 16.4935L12.3336 4.63302L7.19629 17.6981L13.7326 17.7501L13.9104 17.756L13.4345 17.9761Z" fill="white"/>
<path fill-rule="evenodd" clip-rule="evenodd" d="M13.3941 17.0032L8.11914 16.9106L12.4308 5.60596L24.503 21.5405L17.9715 21.5521L12.4767 11.9532L11.1465 15.1037L11.0318 15.4048L13.3941 17.0032Z" fill="white"/>
<path d="M25.263 21.6053C25.1818 21.6053 25.1128 21.5694 25.056 21.4976C24.9991 21.4258 24.9707 21.3386 24.9707 21.236V0.431077C24.9707 0.328485 24.9991 0.241282 25.056 0.169471C25.1128 0.0976588 25.1818 0.0617676 25.263 0.0617676H28.7219C28.8031 0.0617676 28.8721 0.0976588 28.9289 0.169471C28.9858 0.241282 29.0142 0.328485 29.0142 0.431077V21.236C29.0142 21.3386 28.9858 21.4258 28.9289 21.4976C28.8721 21.5694 28.8031 21.6053 28.7219 21.6053H25.263ZM31.3282 21.6053C31.247 21.6053 31.178 21.5694 31.1212 21.4976C31.0644 21.4258 31.0359 21.3386 31.0359 21.236V0.431077C31.0359 0.328485 31.0644 0.241282 31.1212 0.169471C31.178 0.0976588 31.247 0.0617676 31.3282 0.0617676H34.7871C34.8683 0.0617676 34.9373 0.0976588 34.9941 0.169471C35.051 0.241282 35.0794 0.328485 35.0794 0.431077V21.236C35.0794 21.3386 35.051 21.4258 34.9941 21.4976C34.9373 21.5694 34.8683 21.6053 34.7871 21.6053H31.3282Z" fill="white"/>
<path d="M51.6383 6.30355C50.3603 5.14839 48.1927 4.62036 46.4935 4.62036C43.4874 4.62036 41.3893 6.83161 41.3384 9.86794C41.3234 12.4752 42.8996 13.4323 44.5029 14.1254C46.0735 14.8185 47.6897 15.1485 47.6663 16.5677C47.6557 17.6238 46.841 18.3168 45.828 18.3168C44.4883 18.3168 43.3139 17.4257 42.4518 16.4356L40.2993 19.1749C41.6912 20.8911 43.7623 21.8812 45.9188 21.8812C49.2844 21.8812 52.209 19.736 52.2441 16.1386C52.2631 13.3333 50.6631 12.2111 48.9896 11.4851C47.3815 10.759 45.7 10.429 45.7242 9.24084C45.7403 8.44874 46.5039 7.85468 47.2555 7.85468C48.1704 7.85468 48.9935 8.34976 49.6397 8.97683L51.6383 6.30355H51.6383Z" fill="white"/>
<path d="M74.5584 5.14819H69.5264L76.656 21.683H79.0087L86.6156 5.14819H81.6163L78.2007 14.2902L74.5584 5.14819Z" fill="white"/>
<path d="M91.7308 5.14819H86.6987L93.8284 21.683H96.181L103.788 5.14819H98.7886L95.3731 14.2902L91.7308 5.14819Z" fill="white"/>
<path d="M110.794 18.8777L105.378 29.9999H110.41L122.369 5.14819H117.271L113.048 14.3562L109.331 5.14819H104.136L110.794 18.8777Z" fill="white"/>
<path fill-rule="evenodd" clip-rule="evenodd" d="M67.6292 7.67251C65.2079 4.57374 60.603 3.68233 57.1815 5.58177C55.3333 6.60743 53.5133 8.75227 53.0914 11.6698C52.4924 15.8116 54.956 19.9588 58.871 20.8606C60.3597 21.2035 62.1012 21.0902 63.7048 21.1372L63.732 17.0786C60.8756 17.0541 58.6375 17.2492 57.495 14.6949C54.9326 8.96697 64.293 5.71899 65.2714 12.2777C65.6408 14.7538 65.1465 18.4603 65.3844 21.1744L69.4326 21.1231C69.4046 17.0153 70.2653 11.0455 67.6293 7.67251H67.6292Z" fill="white"/>
</g>
<defs>
<clipPath id="clip0_207_1452">
<rect width="122.368" height="30" fill="white"/>
</clipPath>
</defs>
</svg>
