<svg width="1379" height="575" viewBox="0 0 1379 575" fill="none" xmlns="http://www.w3.org/2000/svg">
<g style="mix-blend-mode:overlay" opacity="0.2">
<path d="M725.808 282.827L982.382 282.827L1036.54 410.849L1348.86 410.849L1352.02 414.776L1033.38 414.776L979.614 285.576L729.366 285.576L730.156 369.222L621.834 369.222L622.229 366.08L725.807 366.08L725.808 282.827Z" fill="white"/>
<path d="M1337.79 412.812C1333.44 406.922 1335.02 402.602 1341.75 402.602C1345.75 402.807 1349.67 403.818 1353.28 405.573C1356.88 407.328 1360.08 409.791 1362.7 412.812C1367.84 418.31 1366.26 423.023 1359.14 423.023C1350.98 422.417 1343.36 418.77 1337.79 412.812Z" fill="white"/>
<path d="M1023.5 412.812C1021.52 406.922 1023.5 402.602 1031.8 402.602C1035.31 402.578 1038.75 403.519 1041.75 405.321C1044.75 407.123 1047.19 409.716 1048.8 412.812C1051.17 418.31 1048.8 423.023 1040.5 423.023C1037.01 422.963 1033.6 421.986 1030.61 420.193C1027.63 418.4 1025.17 415.853 1023.5 412.812Z" fill="white"/>
<path d="M613.929 367.651C614.55 365.441 615.901 363.503 617.766 362.149C619.631 360.795 621.9 360.105 624.208 360.189C629.743 360.189 633.301 363.724 632.906 367.651C632.271 369.93 630.86 371.92 628.914 373.28C626.967 374.641 624.605 375.289 622.232 375.112C617.092 375.112 613.139 371.578 613.929 367.651Z" fill="white"/>
<path d="M971.709 284.005C971.709 280.078 971.709 276.936 979.22 276.936C981.832 276.849 984.42 277.459 986.715 278.702C989.009 279.945 990.926 281.776 992.267 284.005C992.267 287.932 992.267 291.074 985.151 291.074C982.48 291.19 979.826 290.596 977.463 289.354C975.1 288.111 973.114 286.265 971.709 284.005Z" fill="white"/>
<path d="M715.926 284.005C715.926 280.078 720.67 276.936 726.205 276.936C731.739 276.936 736.483 280.078 736.483 284.005C736.483 287.932 732.135 291.074 726.205 291.074C720.275 291.074 715.926 287.932 715.926 284.005Z" fill="white"/>
<path d="M719.484 366.473C719.581 365.645 719.844 364.845 720.256 364.119C720.667 363.393 721.221 362.756 721.883 362.244C722.545 361.732 723.303 361.357 724.113 361.139C724.923 360.921 725.768 360.865 726.6 360.975C730.553 360.975 734.111 363.331 734.111 366.473C734.111 369.615 730.553 371.971 726.6 371.971C722.647 371.971 719.088 369.615 719.484 366.473Z" fill="white"/>
<path d="M220.569 238.451L458.562 238.451L408.354 346.838L693.788 346.838L693.788 349.979L402.424 349.979L454.213 240.415L222.545 240.415L159.687 311.887L59.6664 311.887L62.829 309.138L158.105 309.138L220.569 238.451Z" fill="white"/>
<path d="M682.718 348.016C683.287 345.384 684.809 343.05 686.995 341.457C689.181 339.865 691.879 339.125 694.578 339.377C700.904 339.377 706.043 343.304 705.648 348.016C705.252 352.729 700.113 356.656 693.787 356.656C692.488 356.82 691.169 356.726 689.906 356.38C688.644 356.033 687.463 355.441 686.433 354.637C685.403 353.833 684.544 352.834 683.906 351.697C683.269 350.561 682.865 349.309 682.718 348.016Z" fill="white"/>
<path d="M393.332 348.409C395.001 345.833 397.278 343.699 399.965 342.194C402.651 340.689 405.667 339.856 408.75 339.77C415.075 339.77 418.633 343.697 416.657 348.409C414.95 351.04 412.611 353.207 409.85 354.716C407.089 356.224 403.994 357.026 400.843 357.049C396.099 355.87 393.332 353.122 393.332 348.409Z" fill="white"/>
<path d="M53.7355 310.71C57.8749 306.974 63.1758 304.757 68.7584 304.426C73.5025 304.426 74.6884 307.175 71.1304 310.71C66.849 314.156 61.6046 316.213 56.1075 316.6C51.3635 316.6 50.1775 313.851 53.7355 310.71Z" fill="white"/>
<path d="M447.889 238.059C449.298 236.164 451.149 234.637 453.284 233.611C455.419 232.585 457.774 232.09 460.144 232.168C465.679 232.168 468.446 234.917 467.26 238.059C465.886 240.111 463.995 241.77 461.776 242.872C459.557 243.974 457.086 244.481 454.609 244.342C449.47 245.52 446.307 242.771 447.889 238.059Z" fill="white"/>
<path d="M210.687 238.059C214.688 234.408 219.883 232.316 225.314 232.168C230.849 232.168 232.826 234.917 230.058 238.059C226.016 241.942 220.657 244.183 215.036 244.342C209.501 245.52 207.524 242.771 210.687 238.059Z" fill="white"/>
<path d="M151.384 309.531C154.304 306.572 158.282 304.878 162.453 304.819C166.012 304.819 167.198 304.819 164.825 309.531C163.453 310.985 161.802 312.151 159.968 312.96C158.135 313.77 156.157 314.206 154.151 314.244C150.198 314.244 149.012 312.28 151.384 309.531Z" fill="white"/>
<path d="M585.467 179.153L798.554 179.153L811.205 264.763L1061.85 264.763L1063.43 267.119L807.647 267.119L795.392 181.117L588.235 181.116L573.212 237.666L484.656 237.666L485.842 235.31L570.049 235.31L585.467 179.153Z" fill="white"/>
<path d="M1052.36 265.941C1052.36 262.407 1052.36 259.265 1058.68 259.265C1061.35 259.249 1063.99 259.843 1066.39 261.001C1068.79 262.159 1070.88 263.849 1072.52 265.941C1074.89 269.475 1072.52 272.617 1066.2 272.617C1063.54 272.576 1060.92 271.957 1058.53 270.804C1056.14 269.65 1054.03 267.99 1052.36 265.941Z" fill="white"/>
<path d="M800.53 265.941C800.53 262.407 804.088 259.265 809.623 259.265C811.94 259.082 814.256 259.629 816.243 260.827C818.23 262.026 819.787 263.815 820.692 265.941C820.692 269.475 817.134 272.617 811.6 272.617C806.065 272.617 800.925 269.475 800.53 265.941Z" fill="white"/>
<path d="M478.723 238.059C479.816 236.489 481.303 235.228 483.036 234.402C484.769 233.576 486.689 233.212 488.606 233.347C492.56 233.347 495.327 233.347 494.141 238.059C493.047 239.629 491.561 240.89 489.828 241.716C488.095 242.542 486.175 242.906 484.258 242.771C479.909 241.201 477.537 238.059 478.723 238.059Z" fill="white"/>
<path d="M788.671 179.938C788.671 177.582 791.833 175.226 796.577 175.226C798.441 175.08 800.309 175.442 801.981 176.272C803.653 177.103 805.065 178.37 806.065 179.938C806.065 182.687 802.903 185.043 798.159 185.043C793.415 185.043 788.671 182.687 788.671 179.938Z" fill="white"/>
<path d="M576.766 179.938C577.886 178.395 579.378 177.156 581.104 176.332C582.831 175.509 584.737 175.129 586.65 175.226C591.394 175.226 594.952 177.582 594.161 179.938C593.182 181.643 591.729 183.031 589.976 183.936C588.223 184.841 586.245 185.226 584.278 185.043C579.534 185.043 575.976 182.687 576.766 179.938Z" fill="white"/>
<path d="M564.514 235.703C564.514 233.739 568.072 231.776 571.63 231.776C575.188 231.776 577.164 231.776 576.374 235.703C575.583 239.63 572.816 239.237 569.653 239.237C566.49 239.237 563.723 238.059 564.514 235.703Z" fill="white"/>
<path d="M1086.76 97.8633L1089.13 97.8633L1116.8 130.458L1198.64 130.458L1325.94 253.767L1176.1 253.767L1343.73 470.148L1338.98 470.148L1170.57 251.411L1320.01 251.411L1197.45 131.636L1115.22 131.636L1086.76 97.8633Z" fill="white"/>
<path d="M1332.26 458.367C1336.62 458.74 1340.85 459.974 1344.72 461.997C1348.59 464.02 1352.02 466.792 1354.79 470.148C1359.93 476.431 1357.96 481.929 1350.45 481.929C1341.55 481.108 1333.33 476.883 1327.52 470.148C1322.77 463.472 1324.75 458.367 1332.26 458.367Z" fill="white"/>
<path d="M1168.99 247.091C1171.79 247.042 1174.58 247.576 1177.17 248.658C1179.75 249.74 1182.08 251.346 1184.01 253.375C1186.78 256.909 1184.01 259.658 1179.27 259.658C1176.47 259.661 1173.69 259.106 1171.11 258.027C1168.53 256.948 1166.2 255.366 1164.24 253.375C1161.48 249.84 1163.85 247.091 1168.99 247.091Z" fill="white"/>
<path d="M1085.96 95.5071C1088.94 95.6294 1091.81 96.5821 1094.26 98.256C1094.26 98.256 1094.26 101.398 1090.71 101.398C1087.64 101.419 1084.68 100.298 1082.4 98.256C1082.4 98.256 1082.8 95.5071 1085.96 95.5071Z" fill="white"/>
<path d="M1317.24 247.091C1323.32 247.316 1329.15 249.524 1333.84 253.374C1337.4 256.909 1333.84 259.658 1330.28 259.658C1324.31 259.499 1318.58 257.277 1314.08 253.374C1310.52 249.84 1312.1 247.091 1317.24 247.091Z" fill="white"/>
<path d="M1193.1 126.53C1197.37 126.558 1201.52 127.933 1204.96 130.457C1207.33 132.814 1204.96 134.384 1201.4 134.384C1197.11 134.476 1192.92 133.088 1189.54 130.457C1187.17 128.494 1189.15 126.53 1193.1 126.53Z" fill="white"/>
<path d="M1114.43 128.102C1116.99 128.102 1119.49 128.929 1121.54 130.458C1121.54 130.458 1121.54 132.814 1118.78 132.814C1116.21 132.814 1113.71 131.987 1111.66 130.458C1111.66 130.458 1111.66 128.102 1114.43 128.102Z" fill="white"/>
<path d="M511.143 97.8633L513.515 97.8633L497.701 130.458L579.536 130.458L541.188 253.767L390.96 253.767L268.01 470.148L262.871 470.148L388.588 251.411L538.026 251.411L576.373 131.636L494.143 131.636L511.143 97.8633Z" fill="white"/>
<path d="M271.963 458.367C279.475 458.367 282.242 463.472 278.684 470.148C276.439 473.586 273.405 476.447 269.832 478.495C266.258 480.542 262.247 481.719 258.126 481.929C250.615 481.929 247.848 476.431 251.801 470.148C253.934 466.694 256.888 463.814 260.403 461.76C263.919 459.706 267.888 458.54 271.963 458.367Z" fill="white"/>
<path d="M393.333 247.091C398.472 247.091 401.635 249.84 399.658 253.375C398.042 255.364 395.993 256.963 393.665 258.052C391.336 259.14 388.79 259.689 386.216 259.658C380.682 259.658 377.914 256.909 379.891 253.375C381.465 251.339 383.506 249.706 385.845 248.613C388.183 247.52 390.75 246.998 393.333 247.091Z" fill="white"/>
<path d="M511.935 95.5074C515.098 95.5074 517.074 95.5073 516.284 98.2563C515.205 99.7335 513.682 100.833 511.935 101.398C508.377 101.398 506.4 101.398 507.191 98.2563C508.492 96.9295 510.132 95.9793 511.935 95.5074Z" fill="white"/>
<path d="M541.189 247.091C546.724 247.091 550.282 249.84 549.096 253.375C547.95 255.456 546.218 257.159 544.111 258.276C542.004 259.392 539.614 259.872 537.236 259.658C531.701 259.658 528.143 256.909 529.329 253.375C530.475 251.293 532.208 249.59 534.315 248.474C536.422 247.358 538.811 246.877 541.189 247.091Z" fill="white"/>
<path d="M579.141 126.531C583.49 126.531 586.653 126.531 585.862 130.458C585.071 134.385 581.118 134.385 576.769 134.385C572.42 134.385 569.653 134.385 570.048 130.458C571.152 129.146 572.549 128.108 574.127 127.427C575.706 126.745 577.422 126.438 579.141 126.531Z" fill="white"/>
<path d="M498.492 128.102C500.864 128.102 502.841 128.102 502.05 130.458C501.237 131.291 500.248 131.934 499.154 132.341C498.06 132.748 496.889 132.91 495.725 132.814C493.353 132.814 491.772 132.814 492.167 130.458C493.01 129.666 494.004 129.05 495.09 128.645C496.176 128.24 497.333 128.056 498.492 128.102Z" fill="white"/>
<path d="M726.605 47.9894L728.977 47.9894L729.372 72.7299L800.533 72.7299L818.323 164.23L691.42 164.23L681.932 311.102L677.583 311.102L688.257 162.659L814.765 162.659L798.556 73.908L726.605 73.908L726.605 47.9894Z" fill="white"/>
<path d="M680.347 303.64C686.277 303.64 690.626 306.782 690.626 311.102C690.626 315.422 685.091 318.563 679.161 318.563C673.231 318.563 670.068 316.6 670.068 311.102C670.068 305.604 674.022 303.64 680.347 303.64Z" fill="white"/>
<path d="M687.464 159.517C692.208 159.517 695.766 159.517 695.766 163.837C695.766 168.157 691.417 168.549 687.068 168.549C682.72 168.549 678.766 166.586 678.766 163.837C678.766 161.088 683.115 159.517 687.464 159.517Z" fill="white"/>
<path d="M727.394 46.0253C730.557 46.0253 732.929 46.0253 732.929 48.3816C732.929 50.7378 730.557 50.3451 727.394 50.3451C724.231 50.3451 722.255 50.3451 722.255 48.3816C722.255 46.418 724.627 46.0253 727.394 46.0253Z" fill="white"/>
<path d="M815.555 159.517C820.299 159.517 824.252 159.517 825.043 163.837C825.834 168.157 821.88 168.55 817.532 168.55C813.183 168.55 808.439 166.586 808.043 163.837C807.648 161.088 811.206 159.517 815.555 159.517Z" fill="white"/>
<path d="M798.948 69.9804C802.506 69.9804 806.064 69.9804 806.064 73.1221C806.064 76.2637 803.692 75.871 800.134 75.871C796.576 75.871 793.018 75.871 792.623 73.1221C792.228 70.3732 794.995 69.9804 798.948 69.9804Z" fill="white"/>
<path d="M728.58 71.1584C730.952 71.1584 732.929 71.1584 732.929 73.122C732.929 75.0855 730.952 73.122 728.58 73.122C726.208 73.122 724.627 73.122 724.627 73.122C724.627 73.122 726.208 71.1584 728.58 71.1584Z" fill="white"/>
<path d="M360.914 70.3743L363.681 70.3743L338.38 98.2563L414.68 98.2563L338.775 203.109L201.593 203.109L30.4114 377.862L26.0627 377.862L200.011 201.145L336.798 201.145L410.726 99.4345L334.426 99.4345L360.914 70.3743Z" fill="white"/>
<path d="M37.5266 368.83C44.2473 368.83 45.4333 372.757 40.6893 377.862C34.8615 383.327 27.3301 386.652 19.3411 387.287C12.6203 387.287 11.4343 382.967 16.5736 377.862C22.3183 372.568 29.7104 369.382 37.5266 368.83Z" fill="white"/>
<path d="M205.149 198.788C210.289 198.788 211.87 201.145 209.103 203.894C205.261 206.836 200.51 208.363 195.661 208.213C190.522 208.213 188.941 205.857 192.103 202.716C195.94 200.1 200.497 198.728 205.149 198.788Z" fill="white"/>
<path d="M364.079 68.0178C366.846 68.0178 368.427 68.0178 367.241 70.374C365.191 72.2235 362.498 73.2092 359.73 73.1229C356.567 73.1229 354.986 73.1229 356.567 70.374C358.742 68.7889 361.382 67.9607 364.079 68.0178Z" fill="white"/>
<path d="M340.751 198.789C345.89 198.789 348.262 201.145 345.89 203.894C344.337 205.701 342.392 207.135 340.201 208.087C338.009 209.039 335.629 209.485 333.239 209.392C328.1 209.392 326.123 207.036 328.1 203.894C331.512 200.659 336.034 198.834 340.751 198.789Z" fill="white"/>
<path d="M415.075 95.1152C419.424 95.1152 421.401 95.1152 419.819 98.2568C418.583 99.4839 417.097 100.434 415.46 101.044C413.824 101.653 412.075 101.908 410.331 101.791C406.378 101.791 404.006 101.791 405.587 98.2568C408.263 96.1039 411.634 94.9877 415.075 95.1152Z" fill="white"/>
<path d="M339.565 96.2928C341.938 96.2928 343.124 96.2928 341.938 96.2928C340.192 97.8225 337.94 98.6611 335.612 98.649C333.24 98.649 332.054 98.6491 332.845 96.2928C335.035 95.6259 337.376 95.6259 339.565 96.2928Z" fill="white"/>
<path d="M543.165 1.64978L545.142 1.64978L534.863 20.8924L597.326 20.8924L572.815 88.4376L465.283 88.4376L403.215 188.577L400.053 188.577L463.307 86.8668L570.839 86.8668L594.559 21.6777L532.095 21.6777L543.165 1.64978Z" fill="white"/>
<path d="M404.794 183.866C409.538 183.866 411.91 183.866 410.329 188.578C408.841 190.231 407.011 191.543 404.963 192.425C402.915 193.306 400.699 193.736 398.468 193.683C393.724 193.683 390.957 191.327 392.934 188.578C394.44 186.975 396.284 185.722 398.334 184.907C400.384 184.093 402.59 183.737 404.794 183.866Z" fill="white"/>
<path d="M466.071 84.9032C470.024 84.9032 472.396 84.9032 471.21 88.0448C470.015 89.192 468.582 90.0671 467.012 90.6096C465.442 91.1521 463.772 91.3489 462.117 91.1864C458.164 91.1864 455.792 91.1864 456.978 88.0448C458.174 86.8976 459.606 86.0225 461.176 85.48C462.747 84.9375 464.417 84.7407 466.071 84.9032Z" fill="white"/>
<path d="M544.743 0.471984C547.115 0.471984 548.696 0.471984 548.301 0.471984C546.523 1.17177 544.544 1.17177 542.766 0.471984C540.394 0.471984 538.813 0.471984 539.208 0.471984C540.999 -0.156873 542.952 -0.156873 544.743 0.471984Z" fill="white"/>
<path d="M572.812 84.904C576.37 84.904 579.137 84.904 578.742 88.0456C578.346 91.1873 574.393 91.1873 570.44 91.1873C566.486 91.1873 563.719 91.1873 564.509 88.0456C565.3 84.904 568.858 84.904 572.812 84.904Z" fill="white"/>
<path d="M596.533 18.5371C600.091 18.5371 602.464 18.5371 601.673 20.8933C600.882 23.2495 598.51 23.2495 594.952 23.2495C591.394 23.2495 589.417 23.2495 589.813 20.8933C590.715 20.0712 591.776 19.4387 592.931 19.0338C594.086 18.629 595.311 18.46 596.533 18.5371Z" fill="white"/>
<path d="M535.256 19.7147C537.232 19.7147 538.418 19.7147 538.023 19.7147C537.336 20.0064 536.596 20.1567 535.849 20.1567C535.101 20.1567 534.361 20.0064 533.674 19.7147C531.302 19.7147 530.116 19.7147 530.511 19.7147C530.907 19.7147 532.884 19.7147 535.256 19.7147Z" fill="white"/>
<path d="M685.09 73.1232L686.276 73.1232L685.09 85.6897L718.693 85.6897L717.903 124.96L665.323 124.96L658.997 172.478L657.416 172.478L664.137 124.175L716.717 124.175L717.112 86.0824L683.904 86.0824L685.09 73.1232Z" fill="white"/>
<path d="M658.602 170.514L662.16 170.514C661.763 171.3 661.134 171.946 660.357 172.367C659.579 172.788 658.692 172.964 657.811 172.87C657.811 172.87 654.253 172.87 654.253 170.514C654.253 168.158 656.23 170.514 658.602 170.514Z" fill="white"/>
<path d="M664.531 122.996C666.508 122.996 668.089 122.996 668.089 122.996C667.488 123.341 666.806 123.522 666.112 123.522C665.418 123.522 664.737 123.341 664.136 122.996L660.973 122.996C660.973 122.996 662.949 122.996 664.531 122.996Z" fill="white"/>
<path d="M432.468 102.577L431.282 102.577L440.375 89.2252L406.771 89.2252L432.072 55.8452L476.746 55.8452L494.931 26.7851L496.117 26.7851L477.536 56.2379L432.863 56.2379L408.352 88.8324L441.956 88.8325L432.468 102.577Z" fill="white"/>
<path d="M494.933 27.9622C494.933 27.9622 492.561 27.9622 492.956 27.9622C493.991 27.6778 495.084 27.6778 496.119 27.9622C498.491 27.9622 496.119 27.9622 496.119 27.9622C493.747 27.9622 496.514 27.9622 494.933 27.9622Z" fill="white"/>
<path d="M476.352 57.0231C476.352 57.0231 473.584 57.0231 474.375 57.0231C475.536 56.685 476.771 56.685 477.933 57.0231C477.933 57.0231 480.7 57.0231 479.91 57.0231C479.35 57.2723 478.744 57.4011 478.131 57.4011C477.517 57.4011 476.911 57.2723 476.352 57.0231Z" fill="white"/>
<path d="M430.887 103.755C432.048 103.417 433.283 103.417 434.445 103.755C436.421 103.755 434.445 103.755 434.445 103.755C433.885 104.004 433.279 104.133 432.666 104.133C432.052 104.133 431.446 104.004 430.887 103.755Z" fill="white"/>
<path d="M432.865 57.0236C432.865 57.0236 430.493 57.0236 430.888 57.0236C432.191 56.7478 433.538 56.7478 434.841 57.0236C437.609 57.0236 434.841 57.0236 434.841 57.0236C434.19 57.1614 433.516 57.1614 432.865 57.0236Z" fill="white"/>
<path d="M405.979 90.4026C405.979 90.4026 403.212 90.4026 404.002 90.4026C404.675 90.0582 405.42 89.8785 406.177 89.8785C406.933 89.8785 407.679 90.0582 408.351 90.4026C408.351 90.4026 411.118 90.4026 410.328 90.4026C409.537 90.4026 407.956 90.4026 405.979 90.4026Z" fill="white"/>
<path d="M439.587 90.0103C440.018 89.8019 440.491 89.6936 440.971 89.6936C441.45 89.6936 441.923 89.8019 442.354 90.0103L439.587 90.0103Z" fill="white"/>
<path d="M1223.14 350.765L1220.38 350.765L1183.61 300.499L1103.75 300.499L1038.52 192.505L1134.59 192.505L1073.7 115.535L1076.08 115.535L1137.75 194.076L1041.68 194.076L1105.33 298.535L1185.19 298.535L1223.14 350.765Z" fill="white"/>
<path d="M1076.87 118.283C1075.5 118.347 1074.12 118.137 1072.83 117.665C1071.54 117.193 1070.36 116.468 1069.36 115.534C1069.36 115.534 1069.36 113.178 1072.52 113.178C1073.87 113.038 1075.23 113.175 1076.52 113.581C1077.82 113.986 1079.01 114.651 1080.03 115.534C1080.03 115.534 1080.03 118.283 1076.87 118.283Z" fill="white"/>
<path d="M1138.54 196.432C1135.06 196.414 1131.69 195.161 1129.05 192.898C1129.05 192.898 1129.05 188.97 1132.61 188.97C1136.05 189.04 1139.31 190.451 1141.71 192.898C1144.47 194.861 1142.1 196.432 1138.54 196.432Z" fill="white"/>
<path d="M1223.54 355.87C1221.56 355.8 1219.61 355.308 1217.84 354.428C1216.07 353.547 1214.51 352.298 1213.26 350.765C1211.28 348.016 1213.26 345.66 1216.03 345.66C1218.07 345.724 1220.07 346.212 1221.91 347.091C1223.75 347.97 1225.38 349.222 1226.7 350.765C1229.86 352.728 1228.28 355.87 1223.54 355.87Z" fill="white"/>
<path d="M1042.08 196.432C1040.46 196.512 1038.84 196.238 1037.33 195.627C1035.83 195.016 1034.48 194.084 1033.38 192.897C1033.38 192.897 1033.38 188.97 1037.73 188.97C1039.31 188.996 1040.88 189.36 1042.31 190.037C1043.74 190.715 1045.01 191.69 1046.03 192.897C1047.22 194.861 1045.64 196.432 1042.08 196.432Z" fill="white"/>
<path d="M1108.1 305.604C1105.95 305.604 1103.83 305.107 1101.91 304.153C1099.99 303.199 1098.32 301.813 1097.03 300.106C1097.03 297.357 1097.03 295.001 1101.77 295.001C1103.81 295.065 1105.82 295.553 1107.66 296.432C1109.49 297.311 1111.13 298.563 1112.45 300.106C1114.43 303.248 1112.45 305.604 1108.1 305.604Z" fill="white"/>
<path d="M1184 303.64C1182.64 303.55 1181.31 303.191 1180.09 302.584C1178.87 301.978 1177.78 301.135 1176.89 300.106C1176.89 300.106 1176.89 296.964 1179.26 296.964C1180.6 296.982 1181.92 297.269 1183.14 297.809C1184.37 298.349 1185.47 299.13 1186.38 300.106C1186.38 300.106 1188.75 303.64 1184 303.64Z" fill="white"/>
<path d="M726.601 111.608L726.601 110.822L773.251 110.822L770.483 85.2965L894.619 85.2965L910.038 122.996L1046.43 122.996L1047.22 124.174L908.456 124.174L893.038 86.0819L772.46 86.0819L775.623 111.608L726.601 111.608Z" fill="white"/>
<path d="M1042.48 123.781C1042.48 123.781 1042.48 121.032 1046.03 121.032C1047.41 120.968 1048.78 121.178 1050.07 121.651C1051.36 122.123 1052.54 122.847 1053.54 123.781C1053.54 123.781 1053.54 126.53 1049.99 126.53C1048.61 126.594 1047.24 126.384 1045.95 125.912C1044.66 125.44 1043.48 124.715 1042.48 123.781Z" fill="white"/>
<path d="M904.5 123.389L907.267 120.247C908.462 120.2 909.652 120.424 910.748 120.9C911.844 121.376 912.816 122.093 913.593 122.996C913.593 122.996 913.593 125.745 909.244 125.745C904.895 125.745 904.895 124.96 904.5 123.389Z" fill="white"/>
<path d="M722.647 111.215C722.647 111.215 724.624 108.859 726.996 108.859C729.368 108.859 731.345 108.859 731.345 111.215C731.345 113.571 729.368 113.178 726.996 113.178C724.624 113.178 722.647 112.393 722.647 111.215Z" fill="white"/>
<path d="M889.086 85.6892C889.086 85.6892 889.086 83.333 893.435 83.333C897.783 83.333 898.969 83.333 899.365 85.6892C899.76 88.0455 899.365 88.0455 895.411 88.0455C894.247 88.1412 893.076 87.9796 891.982 87.5722C890.889 87.1648 889.899 86.5217 889.086 85.6892Z" fill="white"/>
<path d="M765.74 85.6892C765.74 85.6892 767.716 83.333 770.484 83.333C773.251 83.333 775.623 83.3329 775.623 85.6892C775.623 88.0454 773.646 88.0454 770.879 88.0454C768.112 88.0454 765.74 86.8673 765.74 85.6892Z" fill="white"/>
<path d="M770.484 110.823C770.484 110.823 770.484 110.823 773.252 110.823C776.019 110.823 776.81 110.823 776.81 110.823C776.81 110.823 776.81 110.823 773.647 110.823C770.484 110.823 770.484 111.608 770.484 110.823Z" fill="white"/>
<path d="M489.796 55.8431L490.192 55.0577L531.307 55.0577L541.19 35.8152L650.303 35.8152L644.373 64.4826L763.37 64.4826L763.37 65.2681L642.397 65.2681L648.722 36.2078L542.376 36.2078L532.493 55.8431L489.796 55.8431Z" fill="white"/>
<path d="M758.231 64.8753C758.231 64.8753 758.231 62.9118 762.975 62.9118C767.719 62.9118 767.719 62.9118 767.719 64.8753C767.719 66.8389 767.719 66.8389 763.37 66.8389C759.021 66.8389 758.626 66.0534 758.231 64.8753Z" fill="white"/>
<path d="M639.236 64.8753C639.236 64.8753 642.003 62.9118 644.375 62.9118C646.747 62.9118 649.119 62.9118 648.724 64.8753C648.329 66.8389 646.352 66.8389 643.585 66.8389C640.817 66.8389 638.841 66.0534 639.236 64.8753Z" fill="white"/>
<path d="M486.636 55.451C488.301 54.8825 490.11 54.8825 491.775 55.451C493.752 55.451 494.938 55.451 494.542 55.451C493.003 55.9601 491.338 55.9601 489.798 55.451C487.426 57.0218 486.24 56.2364 486.636 55.451Z" fill="white"/>
<path d="M645.56 35.8148C645.56 35.8148 647.932 35.8148 650.304 35.8148C652.676 35.8148 654.652 35.8148 654.257 35.8148C653.862 35.8148 651.885 37.7783 649.513 37.7783C647.141 37.7783 645.164 36.9929 645.56 35.8148Z" fill="white"/>
<path d="M536.843 35.8148C538.496 35.1789 540.329 35.1789 541.982 35.8148C544.354 35.8148 545.935 35.8148 545.54 35.8148C545.145 35.8148 542.773 37.7783 540.005 37.7783C537.238 37.7783 536.052 36.9929 536.843 35.8148Z" fill="white"/>
<path d="M528.539 55.0571C529.7 54.7189 530.935 54.7189 532.097 55.0571L534.469 55.0571C533.909 55.3062 533.303 55.4351 532.69 55.4351C532.077 55.4351 531.47 55.3062 530.911 55.0571C530.911 55.0571 528.143 55.8425 528.539 55.0571Z" fill="white"/>
<path d="M92.8749 456.01L95.2468 453.261L178.663 453.261L232.034 376.291L443.144 376.291L396.89 493.317L644.371 493.317L644.371 496.459L391.75 496.459L438.795 378.647L233.615 378.647L180.245 456.01L92.8749 456.01Z" fill="white"/>
<path d="M634.094 494.888C634.562 492.323 635.932 490.008 637.96 488.353C639.987 486.699 642.54 485.814 645.163 485.856C646.372 485.8 647.58 485.995 648.709 486.429C649.837 486.863 650.862 487.527 651.718 488.377C652.574 489.227 653.242 490.245 653.679 491.366C654.116 492.487 654.313 493.687 654.256 494.888C653.734 497.354 652.403 499.579 650.471 501.214C648.54 502.848 646.117 503.8 643.582 503.92C642.341 504.034 641.09 503.882 639.914 503.474C638.737 503.066 637.663 502.411 636.763 501.555C635.863 500.698 635.159 499.66 634.699 498.51C634.238 497.359 634.032 496.124 634.094 494.888Z" fill="white"/>
<path d="M385.425 494.888C386.559 492.262 388.429 490.015 390.812 488.414C393.195 486.813 395.99 485.925 398.866 485.856C399.991 485.74 401.127 485.925 402.155 486.393C403.184 486.861 404.067 487.595 404.713 488.517C405.359 489.44 405.744 490.517 405.828 491.638C405.912 492.758 405.693 493.881 405.192 494.888C404.118 497.248 402.473 499.308 400.403 500.884C398.334 502.46 395.905 503.503 393.331 503.92C392.1 504.447 390.732 504.57 389.424 504.274C388.117 503.978 386.939 503.276 386.059 502.271C385.179 501.266 384.643 500.009 384.529 498.682C384.415 497.355 384.729 496.027 385.425 494.888Z" fill="white"/>
<path d="M87.3419 454.439C90.7382 450.724 95.3713 448.354 100.388 447.763C104.737 447.763 105.923 450.905 102.76 454.439C101.189 456.41 99.212 458.025 96.9622 459.176C94.7125 460.327 92.2414 460.988 89.7139 461.115C85.3652 461.115 84.5745 458.366 87.3419 454.439Z" fill="white"/>
<path d="M432.864 375.506C433.817 373.414 435.384 371.658 437.359 370.467C439.335 369.275 441.626 368.705 443.934 368.83C448.678 368.83 451.05 371.579 449.864 375.506C448.699 377.51 447.03 379.179 445.02 380.35C443.01 381.52 440.729 382.151 438.399 382.182C435.632 382.182 432.864 379.04 432.864 375.506Z" fill="white"/>
<path d="M223.339 377.47C224.854 375.438 226.817 373.78 229.08 372.622C231.342 371.465 233.841 370.839 236.385 370.794C240.734 370.794 242.711 373.542 240.339 377.47C238.659 379.416 236.605 381.009 234.296 382.155C231.988 383.301 229.473 383.978 226.897 384.146C222.549 384.146 220.572 381.004 223.339 377.47Z" fill="white"/>
<path d="M172.734 453.654C173.819 452.14 175.238 450.893 176.882 450.008C178.527 449.123 180.354 448.624 182.222 448.549C185.78 448.549 186.571 448.549 184.594 453.654C183.49 455.147 182.066 456.379 180.426 457.262C178.785 458.144 176.969 458.656 175.106 458.759C171.944 458.759 170.758 456.403 172.734 453.654Z" fill="white"/>
<path d="M1110.48 234.132L1110.08 233.347L1135.78 233.347L1122.34 215.282L1191.92 215.282L1214.85 241.986L1287.99 241.986L1288.78 242.771L1214.06 242.771L1191.13 216.068L1123.92 216.068L1137.36 234.132L1110.48 234.132Z" fill="white"/>
<path d="M1285.22 242.379L1285.22 240.415C1287.1 240.47 1288.92 241.163 1290.36 242.379C1288.66 242.765 1286.91 242.765 1285.22 242.379Z" fill="white"/>
<path d="M1211.68 242.379L1211.68 240.415C1212.51 240.399 1213.33 240.567 1214.08 240.907C1214.84 241.247 1215.5 241.75 1216.03 242.379C1214.6 242.687 1213.12 242.687 1211.68 242.379Z" fill="white"/>
<path d="M1108.5 233.739C1109 233.523 1109.54 233.411 1110.08 233.411C1110.62 233.411 1111.16 233.523 1111.66 233.739C1111.16 233.955 1110.62 234.067 1110.08 234.067C1109.54 234.067 1109 233.955 1108.5 233.739Z" fill="white"/>
<path d="M1189.15 215.675C1189.83 215.383 1190.57 215.233 1191.32 215.233C1192.07 215.233 1192.81 215.383 1193.5 215.675C1192.1 216.222 1190.54 216.222 1189.15 215.675Z" fill="white"/>
<path d="M1119.97 215.674C1120.59 215.392 1121.26 215.246 1121.94 215.246C1122.63 215.246 1123.3 215.392 1123.92 215.674C1123.29 215.934 1122.62 216.067 1121.94 216.067C1121.26 216.067 1120.59 215.934 1119.97 215.674Z" fill="white"/>
<path d="M1134.2 233.346L1136.96 233.346C1136.54 233.588 1136.07 233.715 1135.58 233.715C1135.09 233.715 1134.62 233.588 1134.2 233.346Z" fill="white"/>
<path d="M808.04 201.537L808.04 201.145L832.156 201.145L828.993 184.651L894.224 184.651L902.13 208.606L971.315 208.606L971.71 209.391L901.34 209.391L893.433 185.436L830.179 185.436L833.342 201.537L808.04 201.537Z" fill="white"/>
<path d="M968.549 208.607C969.109 208.358 969.715 208.229 970.328 208.229C970.942 208.229 971.548 208.358 972.107 208.607C972.107 208.607 972.107 208.607 970.131 208.607C968.154 208.607 968.945 209.785 968.549 208.607Z" fill="white"/>
<path d="M899.365 208.607C899.365 208.607 899.365 208.607 901.737 208.607C902.235 208.39 902.774 208.279 903.318 208.279C903.862 208.279 904.401 208.39 904.899 208.607C904.899 208.607 904.899 208.607 902.527 208.607C900.155 208.607 899.76 209.785 899.365 208.607Z" fill="white"/>
<path d="M806.064 201.144C806.064 201.144 806.064 201.144 808.041 201.144C810.018 201.144 810.413 201.144 810.413 201.144C810.413 201.144 810.413 201.144 808.436 201.144C808.076 201.351 807.667 201.46 807.25 201.46C806.834 201.46 806.425 201.351 806.064 201.144Z" fill="white"/>
<path d="M891.46 185.044C891.46 185.044 891.46 185.044 893.832 185.044C894.331 184.828 894.87 184.716 895.414 184.716C895.958 184.716 896.496 184.828 896.995 185.044C896.995 185.044 896.995 185.044 894.623 185.044C894.132 185.287 893.59 185.413 893.042 185.413C892.493 185.413 891.952 185.287 891.46 185.044Z" fill="white"/>
<path d="M826.229 185.044C826.229 185.044 826.229 185.044 828.601 185.044C829.092 184.802 829.634 184.676 830.182 184.676C830.731 184.676 831.272 184.802 831.764 185.044C831.764 185.044 831.764 185.044 829.392 185.044C828.9 185.287 828.359 185.413 827.81 185.413C827.262 185.413 826.72 185.287 826.229 185.044Z" fill="white"/>
<path d="M830.576 201.144C830.877 200.972 831.217 200.881 831.564 200.881C831.911 200.881 832.252 200.972 832.553 201.144C832.553 201.144 830.576 201.537 830.576 201.144Z" fill="white"/>
<path d="M438.397 300.499L438.793 299.714L471.606 299.714L481.885 273.796L569.65 273.796L560.162 311.888L654.252 311.888L654.252 312.673L558.58 312.673L568.068 274.581L482.675 274.581L472.397 300.499L438.397 300.499Z" fill="white"/>
<path d="M650.3 312.281C650.3 312.281 652.277 309.532 654.254 309.532C656.23 309.532 657.812 309.532 657.812 312.281C657.812 315.03 657.812 315.03 653.858 315.03C653.037 315.05 652.234 314.787 651.585 314.286C650.936 313.785 650.482 313.077 650.3 312.281Z" fill="white"/>
<path d="M555.816 312.281C556.151 311.422 556.754 310.692 557.536 310.197C558.319 309.703 559.24 309.469 560.165 309.532C560.165 309.532 563.723 309.532 563.328 312.281C563.169 313.37 562.659 314.379 561.876 315.158C561.092 315.936 560.076 316.442 558.979 316.6C556.607 316.6 555.421 313.459 555.816 312.281Z" fill="white"/>
<path d="M436.029 300.107C436.399 299.386 436.966 298.782 437.665 298.366C438.364 297.949 439.167 297.736 439.982 297.751L441.959 300.107C441.959 300.107 439.587 300.107 438.006 300.107C436.424 300.107 435.634 301.285 436.029 300.107Z" fill="white"/>
<path d="M565.696 274.188C566.132 273.435 566.769 272.817 567.537 272.401C568.304 271.986 569.172 271.788 570.045 271.832C570.045 271.832 573.208 271.832 572.812 274.188C572.41 274.882 571.835 275.463 571.143 275.875C570.452 276.288 569.665 276.518 568.859 276.544C566.487 277.33 565.301 275.366 565.696 274.188Z" fill="white"/>
<path d="M478.33 274.188C478.766 273.435 479.403 272.817 480.17 272.401C480.938 271.985 481.806 271.788 482.679 271.832C482.679 271.832 485.842 271.832 485.446 274.188C484.958 275.044 484.275 275.774 483.451 276.32C482.627 276.866 481.685 277.211 480.702 277.33C478.725 277.33 477.54 275.366 478.33 274.188Z" fill="white"/>
<path d="M469.234 299.714C469.666 299.506 470.139 299.397 470.618 299.397C471.098 299.397 471.571 299.506 472.002 299.714L473.979 299.714C473.48 299.93 472.941 300.042 472.397 300.042C471.853 300.042 471.315 299.93 470.816 299.714C470.816 299.714 468.839 300.499 469.234 299.714Z" fill="white"/>
<path d="M978.825 130.065L979.616 130.065L986.337 142.239L1015.2 142.239L1038.52 180.331L993.848 180.331L1017.57 225.1L1016.38 225.1L992.267 179.546L1036.94 179.546L1014.41 143.024L985.942 143.024L978.825 130.065Z" fill="white"/>
<path d="M1015.99 222.743C1017.26 222.26 1018.67 222.26 1019.94 222.743C1019.94 222.743 1015.99 222.743 1015.59 222.743C1015.2 222.743 1014.01 222.743 1015.99 222.743Z" fill="white"/>
<path d="M992.27 178.368C993.549 177.919 994.945 177.919 996.224 178.368C996.224 178.368 996.224 178.368 993.852 178.368C993.292 178.617 992.686 178.746 992.073 178.746C991.459 178.746 990.853 178.617 990.294 178.368C990.294 178.368 990.689 178.368 992.27 178.368Z" fill="white"/>
<path d="M978.828 129.279C979.259 129.071 979.733 128.963 980.212 128.963C980.691 128.963 981.165 129.071 981.596 129.279L978.828 129.279Z" fill="white"/>
<path d="M1036.94 178.367C1038.22 177.918 1039.62 177.918 1040.89 178.367C1040.27 178.627 1039.6 178.76 1038.92 178.76C1038.24 178.76 1037.57 178.627 1036.94 178.367C1035.36 178.367 1036.94 178.367 1036.94 178.367Z" fill="white"/>
<path d="M1013.61 141.061C1013.61 141.061 1016.78 141.061 1017.17 141.061C1016.61 141.31 1016.01 141.439 1015.39 141.439C1014.78 141.439 1014.17 141.31 1013.61 141.061Z" fill="white"/>
<path d="M639.625 139.097L638.439 139.097L640.811 126.923L612.742 126.923L620.254 96.2921L657.811 96.2921L661.764 69.5881L662.95 69.5881L658.602 97.0775L621.044 97.0775L613.928 126.53L641.602 126.53L639.625 139.097Z" fill="white"/>
<path d="M638.839 139.887C638.839 139.887 636.466 139.887 636.862 139.887C637.257 139.887 636.862 139.887 639.234 139.887C639.102 139.892 638.97 139.892 638.839 139.887Z" fill="white"/>
<path d="M220.965 368.829L219.779 368.829L234.802 348.016L202.78 348.016L242.709 295.786L285.405 295.786L317.032 251.018L318.218 251.018L286.196 296.572L243.104 296.572L204.756 347.231L236.779 347.231L220.965 368.829Z" fill="white"/>
<path d="M314.265 252.589C315.544 252.14 316.939 252.14 318.218 252.589C320.195 252.589 318.218 252.589 318.218 252.589C316.939 253.038 315.544 253.038 314.265 252.589Z" fill="white"/>
<path d="M284.611 297.75C286.025 297.299 287.546 297.299 288.96 297.75C291.332 297.75 288.96 297.75 288.96 297.75C288.273 298.042 287.533 298.192 286.786 298.192C286.038 298.192 285.298 298.042 284.611 297.75Z" fill="white"/>
<path d="M219.381 370.008C219.83 369.386 220.425 368.883 221.114 368.541C221.802 368.199 222.565 368.028 223.334 368.044C223.334 368.044 223.334 368.044 223.334 370.008C222.043 370.379 220.672 370.379 219.381 370.008Z" fill="white"/>
<path d="M241.522 297.75C242.936 297.299 244.457 297.299 245.871 297.75C247.848 297.75 245.871 297.75 245.871 297.75C245.184 298.042 244.444 298.192 243.697 298.192C242.949 298.192 242.21 298.042 241.522 297.75Z" fill="white"/>
<path d="M201.595 349.979C201.595 349.979 199.223 349.979 201.595 347.623C202.183 346.931 202.907 346.366 203.723 345.96C204.538 345.555 205.428 345.319 206.339 345.267C206.339 345.267 208.315 345.267 206.339 347.623C205.81 348.379 205.098 348.991 204.269 349.402C203.44 349.814 202.521 350.013 201.595 349.979Z" fill="white"/>
<path d="M235.199 349.194C235.199 349.194 237.175 349.194 237.966 349.194C237.064 349.467 236.101 349.467 235.199 349.194Z" fill="white"/>
<path d="M838.876 406.922L837.69 406.922L834.131 383.752L800.132 383.752L793.807 326.417L838.876 326.417L830.178 277.329L831.364 277.329L840.062 327.203L795.388 327.203L801.318 382.967L834.922 382.967L838.876 406.922Z" fill="white"/>
<path d="M830.969 277.329C830.531 277.513 830.061 277.607 829.585 277.607C829.11 277.607 828.639 277.513 828.202 277.329C828.562 277.122 828.971 277.014 829.388 277.014C829.804 277.014 830.213 277.122 830.574 277.329L833.736 277.329C833.736 277.329 832.55 277.329 830.969 277.329Z" fill="white"/>
<path d="M839.667 328.773C839.667 328.773 836.505 328.773 836.505 326.417C836.505 324.061 836.505 326.417 838.877 326.417C841.249 326.417 842.435 326.417 842.435 326.417C842.435 326.417 841.644 328.773 839.667 328.773Z" fill="white"/>
<path d="M838.482 408.493L835.32 408.493C835.32 408.493 835.32 406.136 837.692 406.136C838.146 405.952 838.643 405.891 839.129 405.96C839.615 406.029 840.074 406.226 840.459 406.529C840.459 406.529 839.668 408.493 838.482 408.493Z" fill="white"/>
<path d="M794.599 328.773C793.896 328.735 793.221 328.491 792.658 328.072C792.095 327.652 791.67 327.076 791.436 326.417C791.436 326.417 791.436 326.417 794.204 326.417C796.971 326.417 797.366 326.417 797.366 326.417C797.27 327.076 796.937 327.678 796.428 328.112C795.919 328.545 795.269 328.78 794.599 328.773Z" fill="white"/>
<path d="M800.924 386.109C800.154 386.152 799.391 385.946 798.749 385.521C798.107 385.096 797.622 384.475 797.366 383.753C797.366 383.753 797.366 381.396 800.133 381.396C802.901 381.396 803.691 381.396 803.691 383.753C803.691 386.109 802.505 386.109 800.924 386.109Z" fill="white"/>
<path d="M475.561 232.168L474.375 232.168L481.886 214.889L448.678 214.889L470.422 172.085L514.304 172.085L529.722 135.17L530.908 135.17L515.49 172.477L471.212 172.477L450.259 214.104L483.468 214.104L475.561 232.168Z" fill="white"/>
<path d="M529.724 136.349L527.351 136.349C527.911 136.1 528.517 135.971 529.13 135.971C529.744 135.971 530.35 136.1 530.909 136.349C530.909 136.349 533.282 136.349 532.886 136.349C532.491 136.349 530.91 136.349 529.724 136.349Z" fill="white"/>
<path d="M514.306 173.655C514.306 173.655 511.538 173.655 511.934 173.655C512.493 173.406 513.099 173.277 513.713 173.277C514.326 173.277 514.932 173.406 515.492 173.655C515.492 173.655 518.259 173.655 517.864 173.655C517.304 173.905 516.698 174.033 516.085 174.033C515.471 174.033 514.865 173.905 514.306 173.655Z" fill="white"/>
<path d="M472.4 233.347C472.892 233.104 473.433 232.978 473.982 232.978C474.53 232.978 475.071 233.104 475.563 233.347C475.563 233.347 477.935 233.347 477.54 233.347C476.794 233.889 475.894 234.181 474.97 234.181C474.046 234.181 473.146 233.889 472.4 233.347Z" fill="white"/>
<path d="M470.03 173.655C470.03 173.655 467.658 173.655 468.054 173.655C468.613 173.406 469.219 173.277 469.833 173.277C470.446 173.277 471.052 173.406 471.612 173.655C471.612 173.655 473.984 173.655 473.588 173.655C473.029 173.905 472.423 174.033 471.809 174.033C471.196 174.033 470.59 173.905 470.03 173.655Z" fill="white"/>
<path d="M448.282 216.853C448.282 216.853 445.514 216.853 446.305 216.853C447.096 216.853 448.677 216.853 450.258 216.853C451.84 216.853 453.026 216.853 452.63 216.853C451.226 217.363 449.686 217.363 448.282 216.853Z" fill="white"/>
<path d="M481.491 216.067C481.861 215.893 482.266 215.802 482.677 215.802C483.087 215.802 483.492 215.893 483.863 216.067C483.095 216.337 482.258 216.337 481.491 216.067Z" fill="white"/>
<path d="M28.4378 393.57L29.6238 392.392L66.3902 392.392L96.4359 359.405L195.27 359.405L157.713 408.1L264.059 408.1L263.268 409.671L154.946 409.671L192.898 360.583L97.2266 360.583L66.7856 393.57L28.4378 393.57Z" fill="white"/>
<path d="M259.314 408.886C259.982 407.814 260.912 406.927 262.018 406.309C263.124 405.691 264.37 405.362 265.639 405.351C268.011 405.351 268.802 405.351 267.616 408.886C266.922 409.934 265.986 410.801 264.885 411.416C263.785 412.031 262.552 412.375 261.29 412.42C258.918 412.42 258.128 410.849 259.314 408.886Z" fill="white"/>
<path d="M152.572 408.886C153.35 407.829 154.359 406.962 155.523 406.35C156.687 405.738 157.976 405.396 159.293 405.351C161.665 405.351 162.456 405.351 159.293 408.886C158.515 409.942 157.506 410.809 156.342 411.421C155.178 412.033 153.889 412.375 152.572 412.42C151.781 412.42 150.991 410.849 152.572 408.886Z" fill="white"/>
<path d="M26.0661 392.785C27.7668 391.438 29.8294 390.618 31.9962 390.428C33.9729 390.428 34.3683 390.428 31.9962 392.785C30.6139 394.144 28.7949 394.978 26.8568 395.141C24.8801 395.141 24.4848 395.141 26.0661 392.785Z" fill="white"/>
<path d="M92.084 359.797C93.9278 358.062 96.2837 356.961 98.8047 356.656C101.177 356.656 101.572 356.656 98.8047 359.797C97.9214 360.672 96.8731 361.365 95.7199 361.836C94.5667 362.308 93.3311 362.549 92.084 362.546C91.2933 362.546 90.5027 361.368 92.084 359.797Z" fill="white"/>
<path d="M64.0155 392.392C65.2114 391.285 66.7382 390.595 68.3643 390.428L68.3643 392.392C67.367 393.695 65.9848 394.656 64.4109 395.141C64.4109 395.141 62.8295 395.141 64.0155 392.392Z" fill="white"/>
<path d="M938.111 123.782L940.878 123.782L999.783 246.699L851.927 246.699L896.205 446.193L1034.18 446.193L1081.62 564.79L1075.69 564.79L1031.01 450.513L892.251 450.513L847.578 244.343L995.039 244.343L938.111 123.782Z" fill="white"/>
<path d="M941.271 127.709C939.491 127.833 937.706 127.542 936.059 126.861C934.412 126.179 932.948 125.124 931.783 123.782C931.783 121.425 931.783 119.855 937.713 119.855C939.428 119.791 941.135 120.111 942.709 120.791C944.282 121.471 945.683 122.493 946.806 123.782C946.806 123.782 946.806 127.709 941.271 127.709Z" fill="white"/>
<path d="M1000.18 251.019C997.51 251.379 994.793 250.98 992.344 249.868C989.895 248.755 987.814 246.976 986.342 244.735C986.342 241.201 986.342 238.845 993.063 238.845C995.499 238.7 997.932 239.164 1000.14 240.193C1002.35 241.221 1004.27 242.783 1005.71 244.735C1008.48 248.27 1005.32 251.019 1000.18 251.019Z" fill="white"/>
<path d="M1082.8 575C1079.06 574.74 1075.46 573.468 1072.4 571.323C1069.33 569.177 1066.91 566.239 1065.41 562.826C1063.03 556.15 1065.41 552.223 1073.31 552.223C1076.93 552.578 1080.38 553.897 1083.3 556.04C1086.23 558.183 1088.51 561.07 1089.92 564.397C1092.69 569.502 1089.52 575 1082.8 575Z" fill="white"/>
<path d="M850.738 251.018C848.458 251.293 846.149 250.831 844.155 249.699C842.161 248.567 840.587 246.826 839.668 244.735C839.668 241.201 842.831 238.844 847.97 238.844C853.11 238.844 858.249 241.201 859.04 244.735C859.83 248.269 856.272 251.018 850.738 251.018Z" fill="white"/>
<path d="M896.996 461.116C893.472 461.183 890.022 460.108 887.168 458.053C884.315 455.998 882.213 453.075 881.182 449.727C881.182 443.444 884.74 438.731 891.857 438.731C895.25 438.779 898.547 439.859 901.303 441.825C904.06 443.791 906.144 446.549 907.275 449.727C907.513 451.175 907.422 452.658 907.007 454.066C906.593 455.475 905.866 456.773 904.88 457.865C903.894 458.958 902.674 459.817 901.309 460.38C899.945 460.942 898.471 461.193 896.996 461.116Z" fill="white"/>
<path d="M1034.18 456.796C1031.8 456.767 1029.47 456.094 1027.45 454.848C1025.43 453.602 1023.79 451.831 1022.71 449.727C1022.35 448.887 1022.21 447.964 1022.33 447.056C1022.45 446.147 1022.81 445.287 1023.37 444.564C1023.94 443.841 1024.69 443.283 1025.55 442.948C1026.4 442.612 1027.34 442.512 1028.25 442.658C1030.58 442.669 1032.86 443.339 1034.82 444.591C1036.78 445.843 1038.34 447.625 1039.32 449.727C1039.81 450.521 1040.06 451.443 1040.03 452.378C1039.99 453.312 1039.68 454.215 1039.13 454.973C1038.58 455.731 1037.82 456.309 1036.93 456.633C1036.05 456.958 1035.09 457.014 1034.18 456.796Z" fill="white"/>
<path d="M552.257 448.942L889.48 448.942L889.875 451.298L551.466 451.298L552.257 448.942Z" fill="white"/>
<path d="M537.632 450.12C538.729 446.596 540.933 443.513 543.92 441.323C546.908 439.132 550.523 437.949 554.236 437.946C555.877 437.743 557.543 437.922 559.103 438.469C560.662 439.015 562.073 439.914 563.223 441.094C564.373 442.275 565.231 443.704 565.73 445.271C566.228 446.837 566.354 448.497 566.096 450.12C564.925 453.675 562.647 456.769 559.593 458.957C556.538 461.145 552.863 462.313 549.097 462.293C541.19 462.293 536.051 456.796 537.632 450.12Z" fill="white"/>
<path d="M1049.2 123.781L1050.38 123.781L1086.75 173.655L1136.17 192.505L1135.38 193.29L1085.17 174.047L1049.2 123.781Z" fill="white"/>
<path d="M572.023 87.26L593.767 87.26L580.72 128.887L579.534 128.887L592.185 87.6527L571.628 87.6527L572.023 87.26Z" fill="white"/>
<path d="M908.852 123.782L910.829 123.782L927.828 164.623L816.738 164.623L816.738 163.445L925.061 163.445L908.852 123.782Z" fill="white"/>
<path d="M336.009 202.716L338.381 202.716L322.963 224.707L230.059 224.707L217.013 239.237L214.641 239.237L228.873 223.136L321.382 223.136L336.009 202.716Z" fill="white"/>
<path d="M478.726 129.672L497.702 129.672L497.307 130.85L480.307 130.85L449.076 189.364L401.24 189.364L402.426 188.185L447.494 188.185L478.726 129.672Z" fill="white"/>
<path d="M772.856 110.823L774.833 110.823L778.786 144.988L688.649 144.988L687.463 164.231L685.091 164.231L686.672 143.81L776.414 143.81L772.856 110.823Z" fill="white"/>
<path d="M621.443 137.919L639.233 137.919L639.233 138.704L622.629 138.704L615.513 172.477L658.209 172.477L658.209 173.655L613.536 173.655L621.443 137.919Z" fill="white"/>
<path d="M1323.56 253.375L1325.54 253.375L1345.7 273.01L1233.42 273.01L1351.63 412.813L1349.26 412.813L1230.66 271.832L1342.54 271.832L1323.56 253.375Z" fill="white"/>
<path d="M1108.5 463.865L1338.19 463.865L1339.77 466.221L1112.05 466.221L1159.89 563.219L1078.06 563.219L1077.27 560.47L1155.54 560.47L1108.5 463.865Z" fill="white"/>
<path d="M621.839 367.652L625.002 367.652L619.072 410.457L485.843 410.457L497.308 373.935L443.542 373.935L444.333 371.579L501.657 371.579L490.192 407.315L615.909 407.315L621.839 367.652Z" fill="white"/>
<path d="M437.608 447.763L547.512 447.763L546.721 450.12L439.189 450.12L427.329 483.107L408.748 483.107L397.679 493.71L395.702 492.532L408.353 480.751L425.352 480.751L437.608 447.763Z" fill="white"/>
<path d="M1103.36 300.499L1105.34 300.499L1135.38 349.98L1222.75 349.98L1223.94 351.551L1134.2 351.551L1103.36 300.499Z" fill="white"/>
<path d="M723.836 265.156L810.811 265.156L810.811 266.334L725.813 266.334L725.813 284.006L724.232 284.006L723.836 265.156Z" fill="white"/>
<path d="M93.6647 454.832L96.0366 454.832L47.8055 515.308L237.963 515.308L264.055 470.147L266.427 470.147L239.149 517.665L43.0613 517.665L93.6647 454.832Z" fill="white"/>
<path d="M175.104 200.752L202.382 200.752L201.196 201.538L175.894 201.538L63.6183 310.71L61.6416 310.71L175.104 200.752Z" fill="white"/>
<path d="M490.189 55.4506L492.166 55.4506L487.422 63.3047L480.701 63.3047L465.283 88.0452L463.306 88.0452L479.12 62.5193L485.841 62.5193L490.189 55.4506Z" fill="white"/>
<path d="M847.575 67.6254L888.295 67.6254L895.411 85.2971L893.434 85.2971L886.714 68.4108L849.552 68.4108L851.133 73.1233L801.321 73.1233L800.925 72.3378L849.157 72.3379L847.575 67.6254Z" fill="white"/>
<path d="M384.239 293.43L368.821 321.312L327.706 321.312L344.705 293.43L384.239 293.43Z" fill="white"/>
<path d="M551.072 7.14859L547.119 15.0027L525.375 15.0027L529.724 7.14859L551.072 7.14859Z" fill="white"/>
<path d="M784.319 425.772L787.877 467.399L737.669 467.399L736.878 425.772L784.319 425.772Z" fill="white"/>
<path d="M979.221 175.226L988.313 193.29L955.5 193.29L947.594 175.226L979.221 175.226Z" fill="white"/>
<path d="M585.466 151.664L581.117 168.157L549.49 168.157L555.42 151.664L585.466 151.664Z" fill="white"/>
<path d="M893.041 333.093L900.948 364.902L857.066 364.902L851.136 333.093L893.041 333.093Z" fill="white"/>
<path d="M226.895 194.469L208.314 214.104L173.92 214.104L193.687 194.469L226.895 194.469Z" fill="white"/>
<path d="M543.56 333.093L534.862 364.902L491.375 364.902L501.654 333.093L543.56 333.093Z" fill="white"/>
<path d="M1085.57 108.466L1097.03 122.211L1068.57 122.211L1058.29 108.466L1085.57 108.466Z" fill="white"/>
<path d="M598.905 55.8435L595.347 66.4465L570.441 66.4465L574.79 55.8435L598.905 55.8435Z" fill="white"/>
<path d="M740.44 57.8069L741.23 68.4099L715.929 68.4099L716.324 57.8069L740.44 57.8069Z" fill="white"/>
<path d="M405.191 126.923L394.913 141.846L365.262 141.846L376.727 126.923L405.191 126.923Z" fill="white"/>
<path d="M815.551 205.857L818.318 223.529L788.668 223.529L786.296 205.857L815.551 205.857Z" fill="white"/>
<path d="M193.688 292.645L169.968 320.527L128.853 320.527L154.55 292.645L193.688 292.645Z" fill="white"/>
<path d="M702.091 219.602L701.3 241.2L665.324 241.2L667.301 219.602L702.091 219.602Z" fill="white"/>
<path d="M137.548 432.055L105.13 474.468L54.5269 474.468L89.7119 432.055L137.548 432.055Z" fill="white"/>
<path d="M821.481 114.75L824.644 128.887L795.784 128.887L793.807 114.75L821.481 114.75Z" fill="white"/>
<path d="M1192.71 393.178L1217.61 430.877L1169.78 430.877L1147.64 393.178L1192.71 393.178Z" fill="white"/>
<path d="M373.564 170.906C368.349 176.219 361.264 179.316 353.797 179.546C345.1 179.546 340.751 175.619 344.309 170.906C350.171 165.405 357.991 162.439 366.053 162.66C372.774 162.66 376.727 166.194 373.564 170.906ZM345.1 170.906C341.937 175.226 345.1 178.368 353.007 178.368C356.464 178.546 359.919 177.971 363.129 176.682C366.339 175.393 369.226 173.422 371.588 170.906C374.355 166.979 371.588 163.838 363.681 163.838C360.264 163.707 356.855 164.267 353.662 165.482C350.468 166.697 347.555 168.542 345.1 170.906Z" fill="white"/>
<path d="M235.196 238.059C227.931 245.219 218.152 249.302 207.918 249.447C198.035 249.447 194.872 244.342 200.407 238.059C207.698 231.278 217.302 227.49 227.29 227.456C238.754 229.027 242.313 233.739 235.196 238.059ZM202.779 238.059C197.639 243.557 200.802 247.876 209.104 247.876C213.907 248.192 218.723 247.479 223.225 245.785C227.726 244.091 231.809 241.456 235.196 238.059C239.545 232.954 235.196 229.027 228.08 229.027C219.439 229.02 211.112 232.244 204.755 238.059L202.779 238.059Z" fill="white"/>
<path d="M50.1791 377.076C39.6124 387.504 25.5237 393.662 10.6453 394.355C-1.61012 394.355 -3.58683 386.894 6.29661 377.076C16.5716 367.567 29.84 361.879 43.8537 360.976C56.1092 360.976 58.8766 368.044 50.1791 377.076ZM10.6453 377.076C2.34326 385.323 4.31996 391.999 14.5987 391.999C27.227 391.141 39.1371 385.852 48.2025 377.076C55.7139 369.222 53.3418 362.939 43.063 362.939C30.6756 363.673 18.9329 368.672 9.85466 377.076L10.6453 377.076Z" fill="white"/>
<path d="M82.597 310.709C73.1751 319.368 61.0167 324.504 48.2026 325.239C37.1332 325.239 35.1564 318.563 43.4585 310.709C52.8687 302.696 64.6843 298.001 77.0623 297.357C87.341 297.357 90.1084 303.248 82.597 310.709ZM45.8305 310.709C38.7145 317.385 40.6912 323.276 50.5746 323.276C61.6016 322.527 72.0503 318.099 80.225 310.709C86.5504 304.426 84.1784 298.928 75.0856 298.928C64.3312 299.709 54.0965 303.831 45.8305 310.709Z" fill="white"/>
<path d="M351.426 98.2555C346.13 102.385 339.577 104.601 332.845 104.539C325.333 104.539 322.171 101.397 325.333 98.2555C330.581 94.039 337.167 91.812 343.914 91.9722C351.03 91.9722 353.798 94.7211 351.426 98.2555ZM326.915 98.2555C324.147 101.004 326.915 103.753 333.636 103.753C339.502 103.754 345.203 101.821 349.844 98.2555C352.216 95.1138 349.844 92.7576 343.124 92.7576C337.225 92.5584 331.459 94.5145 326.915 98.2555Z" fill="white"/>
<path d="M506.001 26.784C506.001 29.1402 498.49 31.1038 492.56 31.1038C486.63 31.1038 482.676 29.1402 484.258 26.784C488.112 23.5809 493.088 22.0274 498.094 22.4643C504.025 22.4643 507.583 24.4278 506.001 26.784ZM485.839 26.784C485.839 29.1402 485.839 30.7111 492.955 30.7111C495.097 30.8916 497.253 30.6364 499.292 29.9612C501.332 29.286 503.211 28.2049 504.815 26.784C504.815 26.784 502.839 23.2497 497.699 23.2497C493.431 22.8223 489.166 24.0932 485.839 26.784Z" fill="white"/>
<path d="M551.466 35.8155C551.466 38.1717 544.35 40.1353 538.025 40.1353C531.7 40.1353 527.746 38.1717 528.932 35.8155C530.696 34.1103 532.811 32.8059 535.132 31.9922C537.452 31.1786 539.923 30.8752 542.374 31.103C551.466 31.103 554.234 33.0666 551.466 35.8155ZM530.514 35.8155C530.514 37.779 532.886 39.7425 538.42 39.7425C543.955 39.7425 549.094 39.7426 549.885 35.8155C550.676 31.8885 547.513 31.8884 541.978 31.8884C536.444 31.8884 533.281 33.4593 532.095 35.8155L530.514 35.8155Z" fill="white"/>
<path d="M542.768 55.0579C542.768 57.8069 535.256 60.1631 528.536 60.1631C521.815 60.1631 517.862 57.8068 519.443 55.0579C521.024 52.309 526.954 49.9527 533.675 49.9527C540.396 49.9527 544.349 52.309 542.768 55.0579ZM521.024 55.0579C521.024 57.4141 523.396 59.3777 528.931 59.3777C531.167 59.5879 533.423 59.3102 535.54 58.564C537.657 57.8179 539.584 56.6213 541.186 55.0579C541.186 52.7017 538.814 50.7381 533.28 50.7381C531.044 50.5279 528.788 50.8056 526.671 51.5518C524.554 52.2979 522.627 53.4946 521.024 55.0579Z" fill="white"/>
<path d="M581.116 274.188C581.116 278.9 573.209 283.22 565.698 283.22C558.187 283.22 553.838 278.9 555.024 274.188C556.433 271.384 558.654 269.064 561.402 267.524C564.149 265.985 567.298 265.296 570.442 265.548C577.558 265.548 582.302 269.475 581.116 274.188ZM556.605 274.188C556.605 278.508 559.768 281.649 566.093 281.649C568.834 281.923 571.592 281.354 573.996 280.02C576.4 278.685 578.334 276.649 579.535 274.188C579.535 269.868 576.372 266.726 570.047 266.726C567.307 266.452 564.548 267.021 562.144 268.356C559.74 269.69 557.806 271.726 556.605 274.188Z" fill="white"/>
<path d="M525.77 172.478C525.77 176.012 518.654 178.761 512.329 178.761C506.003 178.761 502.445 176.012 504.026 172.478C505.642 170.514 507.701 168.956 510.037 167.933C512.373 166.909 514.919 166.448 517.468 166.587C523.398 166.587 527.351 169.336 525.77 172.478ZM505.608 172.478C505.608 175.227 507.585 177.583 512.724 177.583C514.973 177.791 517.239 177.432 519.312 176.539C521.385 175.647 523.198 174.25 524.584 172.478C524.584 169.729 522.212 167.373 517.073 167.373C514.883 167.196 512.685 167.571 510.681 168.464C508.677 169.356 506.932 170.737 505.608 172.478Z" fill="white"/>
<path d="M460.935 214.496C459.054 216.838 456.638 218.701 453.888 219.93C451.138 221.159 448.133 221.72 445.121 221.565C438.796 221.565 434.842 218.424 437.214 214.496C439.011 212.161 441.355 210.297 444.042 209.065C446.729 207.833 449.677 207.271 452.632 207.428C458.958 207.428 462.516 210.569 460.935 214.496ZM438.796 214.496C438.796 218.031 438.796 220.78 445.912 220.78C448.494 220.873 451.062 220.351 453.4 219.258C455.738 218.165 457.779 216.532 459.353 214.496C459.353 211.355 459.353 208.606 451.842 208.606C449.354 208.498 446.876 208.975 444.608 209.999C442.341 211.023 440.35 212.564 438.796 214.496Z" fill="white"/>
<path d="M441.96 101.79C440.317 103.433 438.336 104.705 436.152 105.518C433.969 106.331 431.635 106.667 429.309 106.502C424.17 106.502 421.402 104.539 422.984 101.79C424.629 100.288 426.562 99.1308 428.668 98.3885C430.774 97.6463 433.009 97.3339 435.239 97.4701C440.379 97.4701 443.541 99.4336 441.96 101.79ZM424.17 101.79C424.17 104.146 424.17 105.717 429.705 105.717C435.239 105.717 439.193 105.717 440.379 101.79C441.565 97.8627 440.379 98.2554 434.844 98.2554C430.965 98.0559 427.153 99.3181 424.17 101.79Z" fill="white"/>
<path d="M300.032 296.572C297.528 299.464 294.438 301.799 290.964 303.423C287.489 305.047 283.709 305.924 279.87 305.997C271.963 305.997 269.196 301.677 272.754 296.572C275.257 293.68 278.347 291.345 281.822 289.721C285.296 288.097 289.077 287.22 292.916 287.147C300.032 287.147 303.59 291.467 300.032 296.572ZM274.73 296.572C271.568 300.892 274.73 304.819 280.66 304.819C283.989 304.781 287.269 304.023 290.272 302.599C293.276 301.175 295.932 299.118 298.055 296.572C301.218 291.859 298.055 288.325 292.125 288.325C288.792 288.336 285.503 289.082 282.495 290.508C279.487 291.934 276.835 294.005 274.73 296.572Z" fill="white"/>
<path d="M443.936 56.2371C439.441 59.7473 433.836 61.5566 428.123 61.3423C421.402 61.3423 417.844 58.9861 420.216 56.2371C424.594 52.8302 430.085 51.1518 435.634 51.5247C441.959 51.5247 445.913 53.4882 443.936 56.2371ZM421.797 56.2371C421.797 58.5934 421.797 60.5569 428.518 60.5569C433.505 60.8347 438.424 59.2991 442.355 56.2371C442.355 53.8809 442.355 51.9174 435.239 51.9174C430.371 51.6252 425.571 53.1678 421.797 56.2371Z" fill="white"/>
<path d="M679.557 124.96C679.557 128.494 672.441 132.029 664.534 132.029C656.628 132.029 650.698 128.494 651.488 124.96C652.279 121.426 658.604 117.891 666.511 117.891C674.418 117.891 679.953 120.247 679.557 124.96ZM653.465 124.96C653.465 128.102 657.814 130.85 664.534 130.85C671.255 130.85 677.185 128.102 677.581 124.96C677.976 121.818 672.837 118.677 666.116 118.677C659.395 118.677 653.86 120.247 653.465 124.96Z" fill="white"/>
<path d="M634.09 96.6848C634.09 99.8265 626.579 102.575 619.462 102.575C612.346 102.575 606.812 99.8265 607.602 96.6848C608.393 93.5432 615.114 90.4016 622.23 90.4016C629.346 90.4016 634.485 93.1505 634.09 96.6848ZM609.579 96.6848C609.579 99.4338 613.137 101.79 619.462 101.79C625.788 101.79 630.532 99.4338 630.532 96.6848C630.532 93.9359 626.579 91.187 620.648 91.187C614.718 91.187 610.37 93.5432 609.579 96.6848Z" fill="white"/>
<path d="M252.591 378.647C248.432 383.641 243.247 387.695 237.384 390.539C231.521 393.384 225.114 394.952 218.592 395.141C206.337 395.141 201.988 387.287 209.104 377.862C213.125 372.908 218.172 368.872 223.902 366.026C229.632 363.18 235.91 361.592 242.313 361.368C253.777 362.154 258.521 369.222 252.591 378.647ZM213.058 378.647C207.128 386.894 210.686 393.57 221.36 393.57C227.029 393.314 232.575 391.849 237.623 389.274C242.671 386.699 247.102 383.075 250.615 378.647C256.149 370.4 250.615 364.117 241.917 364.117C236.145 364.213 230.464 365.563 225.273 368.074C220.082 370.584 215.508 374.193 211.872 378.647L213.058 378.647Z" fill="white"/>
<path d="M815.553 93.1506C815.553 96.6849 810.809 99.4338 803.693 99.4338C796.577 99.4338 790.251 96.6849 789.46 93.1506C788.67 89.6162 794.204 87.26 801.321 87.26C808.437 87.26 814.762 90.0089 815.553 93.1506ZM791.437 93.1506C791.437 96.2922 797.367 98.6484 803.297 98.6484C809.227 98.6484 814.367 96.2922 813.576 93.1506C812.785 90.0089 807.646 88.0454 801.321 88.0454C794.995 88.0454 788.67 90.4016 791.437 93.1506Z" fill="white"/>
<path d="M668.093 496.066C667.303 502.729 664.017 508.852 658.89 513.217C653.762 517.583 647.168 519.872 640.419 519.629C637.291 519.812 634.161 519.321 631.242 518.191C628.323 517.06 625.684 515.317 623.506 513.079C621.329 510.841 619.664 508.162 618.625 505.226C617.587 502.29 617.199 499.165 617.49 496.066C618.702 489.691 622.144 483.948 627.209 479.851C632.273 475.755 638.633 473.569 645.163 473.682C648.185 473.516 651.208 473.978 654.039 475.039C656.87 476.1 659.447 477.736 661.606 479.843C663.764 481.95 665.456 484.481 666.573 487.275C667.69 490.068 668.207 493.063 668.093 496.066ZM621.048 496.066C620.752 498.752 621.053 501.47 621.93 504.027C622.807 506.585 624.239 508.92 626.124 510.868C628.01 512.815 630.302 514.328 632.841 515.299C635.379 516.27 638.101 516.675 640.814 516.487C646.684 516.725 652.429 514.755 656.899 510.969C661.37 507.183 664.238 501.861 664.93 496.066C664.99 493.456 664.503 490.861 663.501 488.447C662.498 486.033 661.002 483.853 659.106 482.044C657.21 480.235 654.957 478.836 652.489 477.938C650.021 477.039 647.391 476.66 644.768 476.824C639.163 476.729 633.705 478.61 629.363 482.133C625.02 485.655 622.075 490.592 621.048 496.066Z" fill="white"/>
<path d="M1056.31 448.942C1061.06 460.33 1056.31 469.755 1040.5 469.755C1033.74 469.584 1027.17 467.547 1021.51 463.87C1015.85 460.194 1011.34 455.024 1008.48 448.942C1004.52 437.553 1011.64 428.914 1024.29 428.914C1030.96 429.012 1037.48 430.933 1043.13 434.465C1048.78 437.998 1053.34 443.006 1056.31 448.942ZM1011.64 448.942C1014.08 454.227 1017.97 458.723 1022.87 461.917C1027.76 465.111 1033.46 466.875 1039.31 467.006C1051.17 467.006 1057.1 458.759 1053.15 448.942C1050.56 443.915 1046.66 439.665 1041.87 436.629C1037.07 433.592 1031.55 431.878 1025.87 431.663C1014.41 431.663 1008.08 439.124 1011.64 448.942Z" fill="white"/>
<path d="M1126.29 300.892C1131.43 308.354 1126.29 314.637 1115.62 314.637C1110.24 314.652 1104.94 313.417 1100.13 311.03C1095.33 308.643 1091.15 305.171 1087.94 300.892C1083.59 293.823 1087.94 287.933 1099.01 287.933C1104.25 287.915 1109.42 289.071 1114.14 291.315C1118.86 293.559 1123.02 296.832 1126.29 300.892ZM1090.31 300.892C1093.1 304.653 1096.73 307.713 1100.91 309.827C1105.1 311.942 1109.73 313.051 1114.43 313.066C1123.92 313.066 1127.87 307.568 1123.92 300.892C1121.04 297.422 1117.41 294.635 1113.31 292.732C1109.2 290.83 1104.73 289.861 1100.2 289.896C1091.1 289.896 1086.76 294.609 1090.31 300.892Z" fill="white"/>
<path d="M1057.89 193.683C1061.06 198.788 1057.89 203.108 1047.61 203.108C1043.51 203.294 1039.41 202.541 1035.64 200.907C1031.87 199.273 1028.53 196.802 1025.87 193.683C1022.71 188.578 1025.87 184.651 1036.15 184.651C1040.22 184.501 1044.27 185.231 1048.02 186.79C1051.78 188.35 1055.14 190.702 1057.89 193.683ZM1027.85 193.683C1030.21 196.35 1033.14 198.471 1036.41 199.895C1039.69 201.32 1043.25 202.015 1046.82 201.93C1054.33 201.93 1058.68 198.003 1055.52 193.683C1053.18 191.118 1050.31 189.087 1047.1 187.731C1043.89 186.375 1040.42 185.726 1036.94 185.829C1029.43 185.829 1025.87 189.363 1025.87 193.683L1027.85 193.683Z" fill="white"/>
<path d="M915.178 102.183C915.178 105.718 912.015 108.859 904.504 108.859C901.518 109.127 898.512 108.658 895.753 107.493C892.994 106.329 890.568 104.505 888.69 102.183C888.69 99.0416 892.248 95.9 899.364 95.9C902.305 95.7102 905.251 96.1759 907.987 97.263C910.723 98.3502 913.18 100.031 915.178 102.183ZM890.667 102.183C890.667 105.325 897.783 107.681 904.108 107.681C910.434 107.681 914.782 105.325 913.596 102.183C911.808 100.377 909.641 98.9827 907.25 98.1005C904.859 97.2183 902.302 96.8692 899.76 97.0781C893.434 97.0781 889.481 99.4343 890.667 102.183Z" fill="white"/>
<path d="M1025.87 342.519C1028.24 350.765 1021.92 355.871 1010.45 355.871C1004.99 356.029 999.581 354.682 994.836 351.979C990.092 349.276 986.192 345.322 983.569 340.555C980.011 331.916 986.732 325.632 997.802 325.632C1003.62 325.49 1009.35 327.004 1014.32 329.997C1019.3 332.989 1023.3 337.335 1025.87 342.519ZM986.337 342.519C988.669 346.612 992.062 350.009 996.164 352.358C1000.27 354.706 1004.93 355.919 1009.66 355.871C1019.55 355.871 1025.08 349.587 1021.92 342.519C1019.53 338.498 1016.12 335.18 1012.02 332.903C1007.92 330.625 1003.29 329.471 998.592 329.559C989.104 329.559 983.569 335.057 986.337 342.519Z" fill="white"/>
<path d="M1363.88 469.755C1373.37 481.929 1370.21 491.747 1356.37 491.747C1348.29 491.158 1340.43 488.897 1333.28 485.11C1326.13 481.323 1319.86 476.093 1314.86 469.755C1306.17 457.974 1310.12 448.942 1323.17 448.942C1331 449.578 1338.63 451.744 1345.61 455.316C1352.6 458.887 1358.81 463.794 1363.88 469.755ZM1318.03 469.755C1322.46 475.113 1327.93 479.539 1334.1 482.776C1340.28 486.012 1347.05 487.994 1354 488.605C1365.86 488.605 1368.63 479.966 1360.33 469.755C1355.99 464.549 1350.63 460.266 1344.59 457.162C1338.54 454.058 1331.93 452.197 1325.14 451.691C1314.07 451.691 1310.51 459.545 1318.03 469.755Z" fill="white"/>
<path d="M1151.59 192.898C1155.55 198.003 1151.59 202.323 1142.89 202.323C1138.57 202.377 1134.28 201.571 1130.27 199.952C1126.27 198.333 1122.63 195.935 1119.57 192.898C1115.62 187.793 1119.57 183.866 1128.27 183.866C1136.92 183.82 1145.26 187.05 1151.59 192.898ZM1121.55 192.898C1126.97 198.091 1134.18 201.039 1141.71 201.145C1149.62 201.145 1152.78 197.218 1149.22 192.898C1143.9 187.839 1136.82 185.024 1129.45 185.044C1121.94 185.044 1118.38 188.578 1121.55 192.898Z" fill="white"/>
<path d="M1060.66 123.782C1063.43 127.709 1060.66 130.85 1051.57 130.85C1048.09 131.012 1044.61 130.468 1041.35 129.253C1038.09 128.038 1035.11 126.176 1032.59 123.782C1030.22 120.247 1032.59 117.106 1041.69 117.106C1048.61 116.997 1055.35 119.366 1060.66 123.782ZM1034.57 123.782C1036.68 125.901 1039.21 127.556 1042 128.638C1044.79 129.721 1047.78 130.207 1050.78 130.065C1057.5 130.065 1061.06 127.316 1058.69 123.782C1054.24 119.832 1048.44 117.724 1042.48 117.891C1035.76 117.891 1032.2 120.247 1034.57 123.782Z" fill="white"/>
<path d="M1131.82 130.457C1135.38 134.384 1131.82 137.526 1123.92 137.526C1116.94 137.491 1110.21 134.984 1104.94 130.457C1101.38 126.53 1104.94 123.389 1112.85 123.389C1119.8 123.491 1126.51 125.989 1131.82 130.457ZM1105.33 130.457C1110.3 134.62 1116.62 136.852 1123.12 136.741C1129.85 136.741 1133.01 133.992 1129.85 130.457C1125.07 126.221 1118.85 123.971 1112.45 124.174C1104.94 124.174 1102.57 126.923 1104.94 130.457L1105.33 130.457Z" fill="white"/>
<path d="M1191.12 253.375C1195.87 259.658 1191.12 265.156 1182.03 265.156C1171.88 264.805 1162.25 260.587 1155.15 253.375C1150.4 247.091 1155.15 242.379 1164.24 242.379C1174.28 242.519 1183.89 246.451 1191.12 253.375ZM1157.52 253.375C1160.53 256.536 1164.14 259.068 1168.14 260.821C1172.15 262.575 1176.47 263.515 1180.84 263.585C1189.54 263.585 1193.1 258.872 1188.36 253.375C1185.4 250.278 1181.85 247.811 1177.91 246.123C1173.97 244.435 1169.72 243.562 1165.43 243.557C1157.12 243.557 1153.57 247.877 1157.52 253.375Z" fill="white"/>
<path d="M1373.37 413.206C1381.68 423.416 1379.7 432.055 1366.65 432.055C1351.49 431.183 1337.29 424.41 1327.12 413.206C1318.82 402.995 1322.38 395.141 1334.63 395.141C1349.43 395.886 1363.34 402.373 1373.37 413.206ZM1330.68 413.206C1339.46 422.831 1351.63 428.735 1364.68 429.699C1375.75 429.699 1378.51 422.238 1370.61 413.206C1361.96 403.953 1350.08 398.333 1337.4 397.497C1326.72 397.497 1323.56 404.173 1330.68 413.206Z" fill="white"/>
<path d="M1342.14 253.375C1348.86 259.658 1346.49 265.156 1336.21 265.156C1325.28 264.656 1314.83 260.505 1306.56 253.375C1300.24 247.091 1303 242.379 1312.89 242.379C1323.59 242.744 1333.88 246.609 1342.14 253.375ZM1308.93 253.375C1316.07 259.598 1325.14 263.202 1334.63 263.585C1343.33 263.585 1345.7 258.872 1339.77 253.375C1332.67 247.149 1323.55 243.665 1314.07 243.557C1306.17 243.557 1302.61 247.877 1309.33 253.375L1308.93 253.375Z" fill="white"/>
<path d="M1211.29 130.458C1215.64 134.385 1211.29 137.92 1204.57 137.92C1197.1 137.614 1189.91 135.006 1184.01 130.458C1180.45 126.531 1184.01 123.39 1191.12 123.39C1198.41 123.686 1205.43 126.149 1211.29 130.458ZM1184.8 130.458C1190.23 134.616 1196.92 136.83 1203.78 136.742C1210.5 136.742 1212.87 133.993 1209.31 130.458C1203.96 126.47 1197.41 124.394 1190.73 124.568C1184.01 124.568 1181.64 126.924 1184.01 130.458L1184.8 130.458Z" fill="white"/>
<path d="M1100.98 97.8635C1104.15 101.398 1100.98 104.147 1093.08 104.147C1086.44 104.393 1079.95 102.15 1074.89 97.8635C1072.12 94.3292 1074.89 91.9729 1082.8 91.9729C1089.39 91.6178 1095.87 93.7184 1100.98 97.8635ZM1076.47 97.8635C1081.02 101.605 1086.78 103.561 1092.68 103.361C1099.01 103.361 1101.77 101.005 1099.4 97.8635C1094.83 94.4943 1089.28 92.7015 1083.59 92.7583C1077.26 92.7583 1074.1 95.1146 1076.47 97.8635Z" fill="white"/>
<path d="M1000.97 284.006C1004.13 291.074 998.199 296.965 987.524 296.965C982.69 297.24 977.874 296.174 973.615 293.885C969.356 291.597 965.822 288.176 963.409 284.006C960.642 276.937 966.572 271.439 976.85 271.439C981.626 271.251 986.367 272.314 990.6 274.519C994.832 276.725 998.407 279.996 1000.97 284.006ZM965.781 284.006C967.962 287.444 971.001 290.263 974.603 292.19C978.206 294.117 982.248 295.085 986.338 295.001C995.431 295.001 1000.97 289.896 998.199 284.006C995.983 280.509 992.881 277.652 989.203 275.722C985.526 273.792 981.402 272.857 977.246 273.01C968.548 273.01 963.409 277.33 965.781 284.006Z" fill="white"/>
<path d="M374.752 70.3739C369.809 74.2272 363.633 76.1794 357.357 75.8718C350.636 75.8718 347.474 73.5156 350.241 70.3739C355.202 66.8894 361.167 65.098 367.241 65.2688C373.961 65.2688 377.124 67.625 374.752 70.3739ZM351.822 70.3739C349.45 73.1229 351.822 75.0864 358.148 75.0864C363.563 75.3622 368.897 73.689 373.171 70.3739C375.147 68.0177 373.171 66.0542 366.45 66.0542C361.239 65.9383 356.123 67.4491 351.822 70.3739Z" fill="white"/>
<path d="M606.42 20.5006C606.42 22.8568 600.095 24.8203 594.165 24.8203C588.234 24.8203 584.281 22.8568 585.072 20.5006C585.862 18.1443 591.397 16.5735 597.327 16.5735C603.257 16.5735 607.211 18.1443 606.42 20.5006ZM586.653 20.5006C586.653 20.5006 589.42 24.0349 594.56 24.0349C599.699 24.0349 604.443 24.0349 605.234 20.5006C606.025 16.9662 602.071 16.9662 596.932 16.9662C591.792 16.9662 587.444 18.537 586.653 20.5006Z" fill="white"/>
<path d="M584.677 87.2607C584.677 90.795 577.165 93.5439 570.049 93.5439C562.933 93.5439 558.189 90.795 559.375 87.2607C560.561 83.7263 567.282 81.7628 574.003 81.7628C580.723 81.7628 585.863 84.119 584.677 87.2607ZM560.956 87.2607C560.956 90.4023 564.119 92.3658 570.049 92.3658C575.979 92.3658 582.305 92.3658 583.095 87.2607C583.886 82.1555 579.933 82.5482 574.003 82.5482C568.073 82.5482 562.142 84.5117 560.956 87.2607Z" fill="white"/>
<path d="M509.169 131.243C509.169 135.17 499.285 138.312 491.378 138.312C483.472 138.312 479.123 135.17 481.1 131.243C483.264 128.825 485.957 126.93 488.972 125.705C491.987 124.48 495.244 123.956 498.494 124.174C506.401 124.174 511.936 127.316 509.169 131.243ZM483.076 131.243C481.1 134.385 485.053 137.526 492.169 137.526C494.989 137.682 497.808 137.197 500.411 136.108C503.014 135.02 505.333 133.356 507.192 131.243C507.192 127.709 504.82 124.96 498.099 124.96C495.269 124.709 492.42 125.15 489.801 126.245C487.182 127.341 484.873 129.057 483.076 131.243Z" fill="white"/>
<path d="M417.844 188.578C415.247 191.817 411.936 194.422 408.166 196.192C404.397 197.962 400.269 198.85 396.101 198.788C387.008 198.788 382.659 194.861 385.822 189.756C388.542 186.845 391.849 184.537 395.527 182.981C399.206 181.424 403.173 180.655 407.17 180.724C415.868 179.545 420.612 183.472 417.844 188.578ZM388.194 188.578C385.427 192.897 388.194 196.432 396.891 196.432C400.387 196.618 403.878 196.007 407.099 194.646C410.32 193.284 413.184 191.209 415.472 188.578C418.24 184.258 415.472 180.724 406.775 180.724C403.29 180.621 399.825 181.27 396.617 182.626C393.409 183.982 390.536 186.012 388.194 188.578Z" fill="white"/>
<path d="M702.88 163.445C702.88 168.157 695.764 171.691 687.066 171.691C678.369 171.691 672.044 168.157 672.834 163.445C673.625 158.732 679.95 155.591 688.252 155.591C696.554 155.591 702.88 159.518 702.88 163.445ZM674.811 163.445C674.811 167.372 679.95 170.513 687.066 170.513C694.182 170.513 700.508 167.372 700.903 163.445C701.299 159.518 695.368 156.376 688.252 156.376C681.136 156.376 675.206 159.518 674.811 163.445Z" fill="white"/>
<path d="M812.39 180.331C812.39 185.044 806.46 189.364 797.762 189.364C789.065 189.364 781.553 185.044 781.158 180.331C780.763 175.619 786.693 171.692 795.39 171.692C804.088 171.692 811.204 175.619 812.39 180.331ZM783.135 180.331C783.135 184.651 790.251 188.185 797.762 188.185C805.274 188.185 810.808 184.651 810.018 180.331C809.227 176.012 802.902 172.87 795.39 172.87C787.879 172.87 782.739 176.012 783.135 180.331Z" fill="white"/>
<path d="M290.547 469.755C286.6 476.129 281.159 481.458 274.687 485.288C268.215 489.118 260.906 491.334 253.385 491.746C239.153 491.746 234.013 481.929 241.525 469.755C245.531 463.674 250.898 458.595 257.208 454.916C263.517 451.238 270.598 449.058 277.896 448.549C280.524 448.18 283.202 448.593 285.594 449.735C287.986 450.876 289.985 452.695 291.337 454.963C292.69 457.231 293.337 459.845 293.196 462.478C293.056 465.11 292.134 467.642 290.547 469.755ZM244.688 469.755C238.362 479.965 244.688 488.605 254.966 488.605C261.452 488.316 267.766 486.445 273.351 483.158C278.935 479.87 283.619 475.267 286.989 469.755C292.523 459.545 286.989 451.298 276.315 451.298C269.934 451.607 263.724 453.448 258.216 456.662C252.708 459.877 248.066 464.369 244.688 469.755Z" fill="white"/>
<path d="M426.937 348.409C423.979 353.262 419.797 357.263 414.804 360.018C409.812 362.773 404.183 364.186 398.472 364.117C386.612 364.117 381.077 357.049 385.426 348.409C388.335 343.718 392.406 339.847 397.251 337.165C402.097 334.484 407.553 333.082 413.1 333.094C424.169 333.094 430.495 339.77 426.937 348.409ZM387.403 348.409C383.45 355.871 387.403 362.154 398.868 362.154C403.802 362.17 408.656 360.911 412.953 358.502C417.25 356.092 420.843 352.614 423.379 348.409C426.541 340.948 421.007 335.057 411.518 335.057C406.816 335.163 402.215 336.441 398.14 338.774C394.064 341.107 390.644 344.421 388.194 348.409L387.403 348.409Z" fill="white"/>
<path d="M715.138 348.016C714.176 352.876 711.401 357.195 707.368 360.108C703.336 363.021 698.345 364.313 693.394 363.724C681.929 363.724 672.837 356.656 673.627 348.016C674.587 343.261 677.32 339.041 681.279 336.201C685.237 333.361 690.129 332.111 694.975 332.701C699.683 332.139 704.425 333.426 708.191 336.287C711.957 339.148 714.45 343.356 715.138 348.016ZM675.604 348.016C675.604 355.478 682.72 361.761 692.603 361.761C696.923 362.239 701.267 361.094 704.779 358.55C708.291 356.006 710.717 352.248 711.58 348.016C711.58 340.555 703.673 334.664 693.789 334.664C689.768 334.484 685.812 335.726 682.627 338.171C679.442 340.617 677.233 344.105 676.395 348.016L675.604 348.016Z" fill="white"/>
<path d="M746.369 284.398C746.369 291.467 738.462 297.357 727.788 297.357C717.114 297.357 708.812 291.467 708.812 284.398C708.812 277.329 717.509 271.831 727.393 271.831C737.276 271.831 746.369 277.329 746.369 284.398ZM711.579 284.398C711.579 290.288 718.695 295.394 727.788 295.394C736.881 295.394 743.997 290.288 743.997 284.398C743.997 278.507 736.486 273.402 727.393 273.402C718.3 273.402 709.603 277.329 709.603 284.398L711.579 284.398Z" fill="white"/>
</g>
</svg>
