<svg width="92" height="11" viewBox="0 0 92 11" fill="none" xmlns="http://www.w3.org/2000/svg">
<g clip-path="url(#clip0_1511_86)">
<path d="M54.8003 0H60.1603C61.1476 0 61.9234 0.282104 62.4171 0.775786C62.8403 1.26947 63.1224 1.97473 63.1224 2.89157C63.1224 3.66735 62.9813 4.23156 62.6287 4.72524C62.3466 5.21892 61.8529 5.50103 61.2887 5.7126L65 11H62L58.4676 5.85366H57.4098V8.46312H54.8003V0ZM57.4098 3.73788H59.314C59.6666 3.73788 59.9487 3.66735 60.1603 3.45577C60.3718 3.31472 60.4424 3.10314 60.4424 2.89157C60.4424 2.67999 60.3718 2.53894 60.1603 2.32736C59.9487 2.18631 59.6666 2.11578 59.314 2.11578H57.4098V3.73788Z" fill="#22A1FF"/>
<path d="M0.0722656 0H2.68173L5.07961 3.8084L7.61855 0H10.228V8.46312H7.61855L7.47749 4.30208L5.07961 7.26418L2.82278 4.37261L2.68173 8.46312H0.0722656V0Z" fill="black"/>
<path d="M12.0615 0H19.6078V2.11578H14.671V3.17367H17.0689V5.28945H14.671V6.41786H19.8194V8.46312H12.0615V0Z" fill="black"/>
<path fill-rule="evenodd" clip-rule="evenodd" d="M21.1597 0H26.167C26.8723 0 27.507 0.070526 28.0007 0.282104C28.4944 0.493682 28.9175 0.775786 29.1996 1.19894C29.5523 1.55157 29.7638 1.97473 29.9049 2.46841C30.0459 3.03262 30.187 3.59683 30.187 4.23156C30.187 4.86629 30.0459 5.35997 29.9049 5.92418C29.7638 6.41786 29.5523 6.91155 29.1996 7.26418C28.9175 7.61681 28.4944 7.89891 28.0007 8.18101C27.507 8.39259 26.8723 8.46312 26.167 8.46312H21.1597V4.93682H23.7691V6.41786H26.167C26.4491 6.41786 26.6607 6.34734 26.8017 6.20629C26.9428 6.06523 27.0839 5.92418 27.2249 5.7126C27.2954 5.50103 27.366 5.28945 27.4365 5.00734C27.4365 4.79577 27.507 4.51366 27.507 4.23156C27.507 3.94946 27.4365 3.66735 27.4365 3.45577C27.366 3.17367 27.2954 2.96209 27.2249 2.75051C27.0839 2.53894 26.9428 2.39788 26.8017 2.25683C26.6607 2.11578 26.4491 2.11578 26.167 2.11578H23.7691V3.5263H21.1597V0Z" fill="black"/>
<path d="M38.368 0H41.048L44.7154 8.46312H42.0354L41.4712 7.19365L40.5543 5.07787L37.4512 8.46312H34.7007L38.368 0ZM38.8617 5.07787H40.5543L39.708 3.10314L38.8617 5.07787Z" fill="black"/>
<path d="M45.5615 0H50.992C51.9089 0 52.6141 0.282104 53.1783 0.775786C53.672 1.26947 53.8836 1.97473 53.8836 2.89157C53.8836 3.8084 53.672 4.58419 53.1783 5.07787C52.6141 5.57155 51.9089 5.85366 50.992 5.85366H48.171V8.46312H45.5615V0ZM48.171 3.73788H50.1457C50.4983 3.73788 50.7804 3.66735 50.992 3.45577C51.1331 3.31472 51.2741 3.10314 51.2741 2.89157C51.2741 2.67999 51.1331 2.53894 50.992 2.32736C50.7804 2.18631 50.4983 2.11578 50.1457 2.11578H48.171V3.73788Z" fill="#22A1FF"/>
<path fill-rule="evenodd" clip-rule="evenodd" d="M80.7541 6.41786V5.28945L83.0109 5.85366V6.84102C83.0109 7.3347 82.8699 7.75786 82.5172 8.03996C82.2351 8.32207 81.8825 8.46312 81.3888 8.46312H76.0288C75.5352 8.46312 75.1825 8.32207 74.8299 8.03996C74.5478 7.75786 74.4067 7.3347 74.4067 6.84102V4.93682H77.0162V6.41786H80.7541ZM74.4067 3.5263V1.6221C74.4067 1.12842 74.5478 0.70526 74.8299 0.423156C75.1825 0.141052 75.5352 0 76.0288 0H81.2478C81.7414 0 82.0941 0.141052 82.3762 0.423156C82.7288 0.70526 82.8699 1.12842 82.8699 1.6221V2.67999L80.613 3.17367V2.11578H77.0162V3.5263H74.4067Z" fill="#22A1FF"/>
<path d="M83.8569 0H91.4032V2.11578H88.9348V8.46312H86.3253V2.11578H83.8569V0Z" fill="#22A1FF"/>
<path d="M34.1363 8.46312H31.5269V3.52631H34.1363V8.46312Z" fill="black"/>
<path d="M34.1363 2.32736H31.5269V0H34.1363V2.32736Z" fill="black"/>
<path d="M67.5658 0.0704956H70.2458L73.9131 8.60414H71.2331L70.6689 7.26415L69.7521 5.14837L66.649 8.60414H63.8984L67.5658 0.0704956ZM68.0595 5.14837H69.7521L68.9058 3.24417L68.0595 5.14837Z" fill="#22A1FF"/>
</g>
<defs>
<clipPath id="clip0_1511_86">
<rect width="92" height="11" fill="white"/>
</clipPath>
</defs>
</svg>
