<svg width="274" height="324" viewBox="0 0 274 324" fill="none" xmlns="http://www.w3.org/2000/svg">
<rect width="187.179" height="175.71" rx="15" transform="matrix(0.86559 0.500753 -0.500791 0.865568 111.84 17.7793)" fill="#686767"/>
<rect width="187.179" height="3.81979" transform="matrix(0.86559 0.500753 -0.500791 0.865568 87.9283 59.1064)" fill="#595959"/>
<rect width="187.179" height="3.81979" transform="matrix(0.86559 0.500753 -0.500791 0.865568 78.3638 75.6382)" fill="#595959"/>
<ellipse cx="3.82" cy="3.81981" rx="3.82" ry="3.81981" transform="matrix(0.86559 0.500753 -0.500791 0.865568 101.497 47.0981)" fill="#7D7D7D"/>
<ellipse cx="3.81993" cy="3.81977" rx="3.81993" ry="3.81977" transform="matrix(0.865589 0.500756 -0.500788 0.86557 243.678 129.35)" fill="#7D7D7D"/>
<ellipse cx="3.81997" cy="3.81977" rx="3.81997" ry="3.81977" transform="matrix(0.86559 0.500753 -0.500791 0.865568 79.4982 85.1201)" fill="#7D7D7D"/>
<ellipse cx="3.82" cy="3.81981" rx="3.82" ry="3.81981" transform="matrix(0.86559 0.500753 -0.500791 0.865568 221.679 167.373)" fill="#7D7D7D"/>
<rect width="36.2898" height="97.4046" rx="10" transform="matrix(0.995618 -0.093514 0.0934705 0.995622 173.056 154.604)" fill="#D6D6D6"/>
<ellipse cx="12.4149" cy="12.4143" rx="12.4149" ry="12.4143" transform="matrix(0.995618 -0.0935143 0.0934703 0.995622 193.508 229.416)" fill="url(#paint0_radial_263_15077)"/>
<rect width="36.2898" height="97.4046" rx="10" transform="matrix(-0.347971 -0.937505 -0.93749 0.348012 112.553 122.112)" fill="#D6D6D6"/>
<ellipse cx="12.4149" cy="12.4143" rx="12.4149" ry="12.4143" transform="matrix(-0.347971 -0.937505 -0.93749 0.348013 37.4131 136.365)" fill="url(#paint1_radial_263_15077)"/>
<path d="M144.21 236.2L59.8932 187.422L17.0782 261.423C14.3124 266.204 15.9457 272.321 20.7262 275.087L35.6532 283.722C40.4337 286.488 46.5512 284.854 49.317 280.074L70.386 243.658C73.1518 238.878 79.2693 237.244 84.0499 240.01L85.3373 240.755C90.1179 243.52 91.7511 249.638 88.9853 254.418L67.9163 290.834C65.1505 295.614 66.7837 301.731 71.5642 304.497L87.7311 313.85C92.5117 316.615 98.6292 314.982 101.395 310.202L144.21 236.2Z" fill="#D6D6D6"/>
<rect width="124.149" height="120.323" transform="matrix(0.86559 0.500753 -0.500791 0.865568 106.663 79.8853)" fill="#E1E1E1"/>
<rect width="116.509" height="34.3781" transform="matrix(0.86559 0.500753 -0.500791 0.865568 59.2778 169.415)" fill="#E1E1E1"/>
<rect width="9.54995" height="120.323" transform="matrix(0.86559 0.500753 -0.500791 0.865568 123.196 89.4497)" fill="url(#paint2_linear_263_15077)"/>
<rect width="9.54997" height="120.323" transform="matrix(0.865591 0.500753 -0.500792 0.865568 186.02 125.794)" fill="url(#paint3_linear_263_15077)"/>
<rect width="124.149" height="3.81978" transform="matrix(0.86559 0.500753 -0.500791 0.865568 48.3201 180.728)" fill="#9A9A9A"/>
<rect width="13.37" height="30.5583" rx="6.68499" transform="matrix(0.865591 0.500752 -0.500792 0.865568 238.037 100.725)" fill="#D6D6D6"/>
<rect width="13.3699" height="30.5583" rx="6.68496" transform="matrix(0.86559 0.500753 -0.500791 0.865568 119.002 31.8613)" fill="#D6D6D6"/>
<path d="M235.13 116.694C216.182 149.443 174.272 160.631 141.521 141.684C108.77 122.737 97.5796 80.8299 116.527 48.0812C135.474 15.3325 177.384 4.14396 210.136 23.0909C242.887 42.0378 254.077 83.9454 235.13 116.694Z" fill="#D6D6D6" stroke="#E1E1E1" stroke-width="0.5"/>
<path fill-rule="evenodd" clip-rule="evenodd" d="M234.297 118.424C214.453 148.759 174.112 158.622 142.352 140.248C110.59 121.873 99.0321 81.9819 115.446 49.6583C114.752 50.7192 114.083 51.8051 113.441 52.9157C94.424 85.7839 105.655 127.844 138.526 146.86C171.396 165.877 213.459 154.647 232.476 121.779C233.117 120.671 233.724 119.552 234.297 118.424Z" fill="#DDDDDD"/>
<path fill-rule="evenodd" clip-rule="evenodd" d="M230.474 125.033C210.632 155.371 170.288 165.236 138.527 146.861C106.766 128.487 95.2081 88.5989 111.618 56.2762C110.925 57.3357 110.257 58.4202 109.616 59.5293C90.5992 92.3975 101.83 134.458 134.701 153.474C167.572 172.49 209.635 161.261 228.651 128.393C229.293 127.283 229.901 126.162 230.474 125.033Z" fill="#D6D6D6"/>
<path d="M240.614 93.3884C228.904 67.8595 174.476 34.1657 140.632 27.8254C116.714 48.1887 105.141 77.3812 118.298 106.473C125.604 122.627 134.886 130.15 150.585 138.39C162.199 144.487 169.88 147.5 182.994 147.21C213.78 146.531 237.792 111.614 240.614 93.3884Z" fill="black"/>
<rect x="160.436" y="158.15" width="3.81998" height="1.90991" rx="0.954953" transform="rotate(10.0511 160.436 158.15)" fill="#C4C4C4"/>
<rect width="1.91006" height="1.90982" rx="0.954912" transform="matrix(0.984653 0.174526 -0.174527 0.984652 168.962 158.67)" fill="#C4C4C4"/>
<mask id="mask0_263_15077" style="mask-type:alpha" maskUnits="userSpaceOnUse" x="112" y="27" width="129" height="121">
<path d="M240.614 93.3894C228.904 67.8604 174.476 34.1667 140.632 27.8264C116.714 48.1897 105.142 77.3821 118.298 106.474C125.604 122.628 134.886 130.151 150.585 138.391C162.199 144.488 169.88 147.501 182.994 147.211C213.78 146.532 237.792 111.615 240.614 93.3894Z" fill="black"/>
</mask>
<g mask="url(#mask0_263_15077)">
<rect width="19.0992" height="105.829" transform="matrix(0.421838 0.906671 -0.906698 0.421782 192.166 31.2568)" fill="#484848"/>
<rect width="10.7769" height="111.566" transform="matrix(0.421838 0.906671 -0.906698 0.421782 213.358 56.0264)" fill="#484848"/>
</g>
<ellipse cx="12.4149" cy="12.4143" rx="12.4149" ry="12.4143" transform="matrix(0.86559 0.500753 -0.500791 0.865568 142.667 36.7256)" fill="#828282" fill-opacity="0.5"/>
<ellipse cx="6.68499" cy="6.68462" rx="6.68499" ry="6.68462" transform="matrix(0.865591 0.500751 -0.500793 0.865567 159.2 46.2905)" fill="#828282" fill-opacity="0.5"/>
<ellipse cx="4.77496" cy="4.77474" rx="4.77496" ry="4.77474" transform="matrix(0.865589 0.500755 -0.500789 0.865569 133.103 53.2573)" fill="#828282" fill-opacity="0.5"/>
<ellipse cx="4.77498" cy="4.77474" rx="4.77498" ry="4.77474" transform="matrix(0.86559 0.500754 -0.500791 0.865569 166.934 17.668)" fill="#0E1B38"/>
<ellipse cx="4.77501" cy="4.77475" rx="4.77501" ry="4.77475" transform="matrix(0.865591 0.500752 -0.500793 0.865567 188.945 21.5762)" fill="#0E1B38"/>
<rect width="51.5698" height="26.7385" rx="5" transform="matrix(0.86559 0.500753 -0.500791 0.865568 105.816 150.001)" fill="#056DB1"/>
<path d="M132.009 169.568L119.322 171.882L126.532 174.674L109.218 178.448" stroke="#D2CB15"/>
<defs>
<radialGradient id="paint0_radial_263_15077" cx="0" cy="0" r="1" gradientUnits="userSpaceOnUse" gradientTransform="translate(15.2799 15.2792) rotate(-156.802) scale(7.27297 7.27272)">
<stop stop-color="white"/>
<stop offset="1" stop-color="#DDDDDD"/>
</radialGradient>
<radialGradient id="paint1_radial_263_15077" cx="0" cy="0" r="1" gradientUnits="userSpaceOnUse" gradientTransform="translate(15.2799 15.2792) rotate(-156.802) scale(7.27297 7.27272)">
<stop stop-color="white"/>
<stop offset="1" stop-color="#DDDDDD"/>
</radialGradient>
<linearGradient id="paint2_linear_263_15077" x1="4.77498" y1="0" x2="4.77498" y2="120.323" gradientUnits="userSpaceOnUse">
<stop stop-color="#3BB094"/>
<stop offset="1" stop-color="#232030"/>
</linearGradient>
<linearGradient id="paint3_linear_263_15077" x1="4.77498" y1="0" x2="4.77498" y2="120.323" gradientUnits="userSpaceOnUse">
<stop stop-color="#3BB094"/>
<stop offset="1" stop-color="#232030"/>
</linearGradient>
</defs>
</svg>
