<svg width="293" height="349" viewBox="0 0 293 349" fill="none" xmlns="http://www.w3.org/2000/svg">
<g clip-path="url(#clip0_1532_39)">
<path d="M73.5351 96.7123C91.48 96.7123 106.027 82.1459 106.027 64.1774C106.027 46.2089 91.48 31.6426 73.5351 31.6426C55.5901 31.6426 41.0428 46.2089 41.0428 64.1774C41.0428 82.1459 55.5901 96.7123 73.5351 96.7123Z" fill="#3F3D56"/>
<path d="M259.938 107.557C277.883 107.557 292.43 92.9908 292.43 75.0223C292.43 57.0538 277.883 42.4875 259.938 42.4875C241.993 42.4875 227.446 57.0538 227.446 75.0223C227.446 92.9908 241.993 107.557 259.938 107.557Z" fill="#3F3D56"/>
<path d="M260.508 41.3459C254.267 41.346 248.158 43.146 242.911 46.5307C237.665 49.9154 233.503 54.7415 230.923 60.432C236.486 55.4709 243.582 52.5745 251.022 52.2279C258.463 51.8813 265.797 54.1056 271.795 58.5282C277.794 62.9509 282.092 69.3031 283.97 76.5209C285.848 83.7386 285.192 91.3834 282.112 98.1745C287.032 93.7897 290.505 88.011 292.07 81.6045C293.635 75.1981 293.218 68.4667 290.875 62.3029C288.531 56.1391 284.372 50.8341 278.949 47.0913C273.526 43.3485 267.094 41.3449 260.508 41.3459Z" fill="#22A1FF"/>
<path d="M72.965 30.501C79.2061 30.5011 85.3151 32.3011 90.5616 35.6857C95.808 39.0704 99.9699 43.8965 102.549 49.587C96.9872 44.6259 89.8913 41.7295 82.4504 41.3829C75.0095 41.0363 67.6756 43.2606 61.6774 47.6833C55.6792 52.1059 51.3811 58.4581 49.5029 65.6759C47.6248 72.8936 48.2808 80.5384 51.3611 87.3295C46.4409 82.9447 42.9681 77.166 41.4031 70.7596C39.8381 64.3532 40.2549 57.6217 42.5981 51.4579C44.9413 45.2941 49.1004 39.9891 54.5237 36.2463C59.947 32.5036 66.3784 30.4999 72.965 30.501Z" fill="#22A1FF"/>
<path d="M167.591 226.281C167.605 242.895 162.696 259.14 153.486 272.96C144.276 286.78 131.179 297.554 115.852 303.918C100.525 310.283 83.6574 311.951 67.383 308.714C51.1086 305.476 36.1591 297.476 24.4263 285.728C12.6936 273.98 4.7049 259.011 1.47117 242.715C-1.76257 226.419 -0.0960144 209.529 6.25996 194.182C12.6159 178.835 23.3757 165.721 37.1775 156.499C50.9794 147.277 67.2032 142.362 83.7958 142.375C94.8104 142.338 105.724 144.483 115.907 148.686C126.09 152.89 135.343 159.069 143.131 166.867C150.92 174.666 157.091 183.931 161.289 194.127C165.487 204.324 167.629 215.252 167.591 226.281Z" fill="#3F3D56"/>
<path d="M167.591 226.281C167.607 238.292 165.039 250.165 160.061 261.093C145.713 260.901 131.577 257.596 118.628 251.405C105.678 245.215 94.2234 236.287 85.0523 225.237C75.8812 214.186 69.212 201.276 65.5045 187.395C61.7969 173.515 61.1391 158.995 63.5764 144.835C75.9261 141.774 88.8094 141.567 101.251 144.229C113.693 146.891 125.366 152.352 135.388 160.199C145.41 168.047 153.518 178.075 159.097 189.523C164.676 200.972 167.581 213.542 167.591 226.281Z" fill="#22A1FF"/>
<path d="M161.321 248.542C216.1 248.542 260.508 204.076 260.508 149.225C260.508 94.3734 216.1 49.9077 161.321 49.9077C106.542 49.9077 62.1343 94.3734 62.1343 149.225C62.1343 204.076 106.542 248.542 161.321 248.542Z" fill="#3F3D56"/>
<path d="M185.425 152.622C190.562 145.716 198.224 141.13 206.732 139.871C215.239 138.612 223.899 140.781 230.812 145.904C234.653 140.74 236.878 134.55 237.204 128.119C237.531 121.688 235.944 115.305 232.645 109.777C229.346 104.249 224.483 99.8265 218.672 97.0681C212.861 94.3096 206.363 93.3398 200.001 94.2815C193.64 95.2231 187.7 98.0339 182.934 102.358C178.169 106.682 174.792 112.324 173.231 118.571C171.67 124.818 171.996 131.388 174.166 137.45C176.337 143.511 180.255 148.791 185.425 152.622Z" fill="white"/>
<path d="M109.61 158.9C114.747 151.994 122.409 147.409 130.916 146.15C139.424 144.89 148.083 147.06 154.996 152.183C158.838 147.018 161.063 140.829 161.389 134.398C161.716 127.967 160.129 121.583 156.83 116.056C153.531 110.528 148.668 106.105 142.857 103.347C137.046 100.588 130.548 99.6185 124.186 100.56C117.824 101.502 111.885 104.312 107.119 108.636C102.354 112.96 98.9767 118.603 97.4159 124.85C95.8551 131.097 96.1806 137.667 98.3512 143.728C100.522 149.79 104.44 155.07 109.61 158.9Z" fill="white"/>
<path d="M131.109 138.38C137.72 138.38 143.08 133.013 143.08 126.393C143.08 119.773 137.72 114.407 131.109 114.407C124.498 114.407 119.138 119.773 119.138 126.393C119.138 133.013 124.498 138.38 131.109 138.38Z" fill="#3F3D56"/>
<path d="M208.634 129.247C215.246 129.247 220.605 123.881 220.605 117.261C220.605 110.641 215.246 105.274 208.634 105.274C202.023 105.274 196.663 110.641 196.663 117.261C196.663 123.881 202.023 129.247 208.634 129.247Z" fill="#3F3D56"/>
<path d="M168.731 158.928C172.195 158.928 175.002 156.117 175.002 152.649C175.002 149.182 172.195 146.371 168.731 146.371C165.268 146.371 162.461 149.182 162.461 152.649C162.461 156.117 165.268 158.928 168.731 158.928Z" fill="#FF6584"/>
<path d="M74.6751 330.376V302.766H65.5545V330.376C62.8873 331.321 60.5781 333.07 58.9447 335.383C57.3114 337.696 56.4342 340.459 56.4338 343.292L83.7957 343.292C83.7954 340.459 82.9182 337.696 81.2848 335.383C79.6515 333.07 77.3423 331.321 74.6751 330.376Z" fill="#3F3D56"/>
<path d="M108.307 330.376V302.766H99.1868V330.376C96.5196 331.321 94.2104 333.07 92.577 335.383C90.9437 337.696 90.0665 340.459 90.0662 343.292L117.428 343.292C117.428 340.459 116.551 337.696 114.917 335.383C113.284 333.07 110.975 331.321 108.307 330.376Z" fill="#3F3D56"/>
<path d="M120.77 59.4323C116.637 52.77 113.861 44.9439 114.721 37.1485C115.581 29.3531 120.681 21.7464 128.189 19.5124C135.697 17.2784 144.998 21.9066 146.413 29.6204C153.933 16.6014 165.828 6.68152 179.976 1.63099C186.538 -0.68432 195.259 -1.20936 199.053 4.63007C200.931 7.52012 201.132 11.4495 203.647 13.804C207.591 17.495 213.914 14.8953 219.303 15.2108C226.881 15.6544 232.982 22.7362 233.937 30.277C234.891 37.8177 231.556 45.3957 226.632 51.1814C221.709 56.9671 215.305 61.2592 208.988 65.4745" fill="#3F3D56"/>
<path d="M179.635 175.638C180.043 175.206 180.465 174.788 180.905 174.389C181.1 174.212 181.298 174.039 181.499 173.869C181.624 173.764 181.751 173.659 181.878 173.556C182.099 173.378 182.169 173.335 181.901 173.534C182.87 172.807 183.891 172.153 184.956 171.576C185.446 171.312 185.944 171.066 186.451 170.836C186.571 170.782 186.691 170.73 186.811 170.677C186.273 170.917 186.695 170.726 186.833 170.671C187.137 170.548 187.443 170.432 187.752 170.322C188.898 169.912 190.071 169.582 191.262 169.335C191.811 169.22 192.363 169.132 192.916 169.043C193.289 168.984 192.447 169.095 192.822 169.056C192.986 169.039 193.15 169.018 193.314 169C193.642 168.966 193.971 168.938 194.3 168.915C195.485 168.834 196.675 168.83 197.861 168.903C198.453 168.939 199.043 168.999 199.632 169.069C199.038 168.999 199.719 169.085 199.928 169.12C200.253 169.173 200.576 169.232 200.899 169.298C202.057 169.531 203.199 169.844 204.315 170.234C204.593 170.331 204.869 170.434 205.144 170.541C205.296 170.6 205.448 170.662 205.6 170.724C205.523 170.693 205.1 170.501 205.528 170.696C206.065 170.94 206.596 171.191 207.117 171.468C208.183 172.044 209.205 172.697 210.177 173.421C210.473 173.639 209.845 173.146 210.125 173.383C210.25 173.49 210.381 173.59 210.507 173.696C210.709 173.865 210.908 174.038 211.105 174.215C211.606 174.668 212.087 175.143 212.55 175.635C212.972 176.084 213.379 176.548 213.769 177.026C213.764 177.02 214.209 177.572 213.973 177.274C213.774 177.024 214.055 177.383 214.099 177.443C214.335 177.76 214.564 178.081 214.787 178.407C215.511 179.474 216.166 180.586 216.747 181.738C217.022 182.283 217.283 182.835 217.528 183.395C217.582 183.517 217.769 183.971 217.566 183.477C217.621 183.611 217.676 183.745 217.73 183.879C217.864 184.215 217.994 184.553 218.118 184.893C219.016 187.389 219.705 189.956 220.177 192.567C220.301 193.23 220.415 193.895 220.518 194.562C220.564 194.86 220.609 195.157 220.651 195.456C220.65 195.448 220.749 196.182 220.697 195.786C220.652 195.434 220.73 196.053 220.738 196.119C220.911 197.509 221.048 198.903 221.159 200.3C221.376 203.039 221.492 205.785 221.575 208.531C221.786 215.498 221.966 222.465 222.161 229.432L223.357 272.107L224.552 314.781L224.701 320.078C224.701 320.76 224.971 321.413 225.452 321.895C225.933 322.376 226.585 322.647 227.266 322.647C227.946 322.647 228.598 322.376 229.08 321.895C229.561 321.413 229.831 320.76 229.831 320.078L228.603 276.227L227.382 232.67L226.768 210.744C226.604 204.873 226.368 199.009 225.465 193.197C223.803 182.493 218.975 171.365 208.654 166.505C199.013 161.965 187.083 163.018 178.637 169.619C177.702 170.347 176.823 171.145 176.007 172.006C175.526 172.488 175.256 173.141 175.256 173.822C175.256 174.503 175.526 175.157 176.007 175.638C176.488 176.12 177.141 176.391 177.821 176.391C178.502 176.391 179.154 176.12 179.635 175.638Z" fill="#22A1FF"/>
<path d="M198.944 256.533C198.188 256.533 197.463 256.834 196.929 257.369C196.395 257.904 196.094 258.63 196.093 259.387L201.793 346.109C201.789 346.486 201.861 346.861 202.003 347.211C202.144 347.56 202.354 347.879 202.618 348.147C202.883 348.416 203.199 348.63 203.546 348.776C203.894 348.922 204.267 348.998 204.644 349H251.387C252.143 348.999 252.867 348.698 253.402 348.163C253.936 347.628 254.236 346.903 254.237 346.146L259.939 259.349C259.93 258.598 259.625 257.881 259.091 257.354C258.557 256.827 257.837 256.532 257.088 256.533H198.944Z" fill="#E6E6E6"/>
<path d="M203.456 260.813C203.066 260.814 202.68 260.894 202.322 261.049C201.964 261.205 201.641 261.433 201.375 261.718C201.108 262.004 200.903 262.341 200.772 262.709C200.641 263.077 200.587 263.468 200.613 263.858L205.854 342.056C205.904 342.777 206.225 343.453 206.753 343.947C207.28 344.441 207.975 344.717 208.697 344.719H247.334C248.056 344.717 248.751 344.441 249.279 343.947C249.806 343.453 250.127 342.777 250.178 342.056L255.419 263.858C255.445 263.468 255.391 263.077 255.259 262.709C255.128 262.341 254.923 262.004 254.657 261.718C254.39 261.433 254.068 261.205 253.71 261.049C253.352 260.894 252.965 260.814 252.575 260.813H203.456Z" fill="#22A1FF"/>
<path d="M220.605 274.227C220.303 274.227 220.013 274.348 219.799 274.562C219.586 274.776 219.465 275.066 219.465 275.369V281.647C219.465 281.95 219.586 282.24 219.799 282.454C220.013 282.668 220.303 282.788 220.605 282.789H230.296C230.598 282.788 230.888 282.668 231.101 282.454C231.315 282.24 231.435 281.95 231.436 281.647V275.369C231.435 275.066 231.315 274.776 231.101 274.562C230.888 274.348 230.598 274.227 230.296 274.227H220.605Z" fill="#E6E6E6"/>
<path d="M231.436 290.78C231.133 290.78 230.844 290.901 230.63 291.115C230.416 291.329 230.296 291.619 230.296 291.921V298.2C230.296 298.503 230.416 298.793 230.63 299.007C230.844 299.221 231.133 299.341 231.436 299.342H241.126C241.429 299.341 241.718 299.221 241.932 299.007C242.146 298.793 242.266 298.503 242.266 298.2V291.921C242.266 291.619 242.146 291.329 241.932 291.115C241.718 290.901 241.429 290.78 241.126 290.78H231.436Z" fill="#E6E6E6"/>
<path d="M221.175 304.479C220.873 304.479 220.583 304.599 220.369 304.813C220.156 305.027 220.035 305.318 220.035 305.62V311.899C220.035 312.202 220.156 312.492 220.369 312.706C220.583 312.92 220.873 313.04 221.175 313.04H230.866C231.168 313.04 231.458 312.92 231.671 312.706C231.885 312.492 232.005 312.202 232.006 311.899V305.62C232.005 305.318 231.885 305.027 231.671 304.813C231.458 304.599 231.168 304.479 230.866 304.479H221.175Z" fill="#E6E6E6"/>
<path d="M37.0691 271.464C40.0354 272.449 42.1244 274.976 43.8625 277.453C45.6542 280.006 47.2964 282.779 49.745 284.773C50.7733 285.668 51.9799 286.335 53.2848 286.727C54.5897 287.12 55.9631 287.231 57.3139 287.052C59.9987 286.646 62.2747 284.767 62.683 281.995C63.2207 278.345 60.6693 274.966 58.4312 272.37L57.8265 273.831C61.3927 274.216 64.4931 276.252 67.7585 277.562C70.8872 278.818 74.5881 279.503 77.7136 277.866C80.1118 276.61 81.6072 274.098 82.1139 271.494C82.6323 268.652 82.1987 265.719 80.8805 263.15C79.2167 259.743 76.4883 256.99 73.8418 254.339L73.0099 255.77C76.9445 256.362 81.3316 256.913 84.7456 254.382C86.1111 253.418 87.0849 251.995 87.4889 250.372C87.8369 248.578 87.5407 246.719 86.6526 245.123C84.8575 241.622 81.4691 239.154 78.4314 236.806C71.3448 231.32 63.6664 226.647 55.5399 222.873C54.5481 222.412 53.6786 223.887 54.6767 224.352C61.6385 227.589 68.2755 231.484 74.4974 235.985C77.4907 238.153 80.654 240.387 83.1484 243.136C85.266 245.47 87.1948 249.04 84.8821 251.925C82.1616 255.319 77.2391 254.687 73.4645 254.119C73.2839 254.075 73.094 254.091 72.923 254.164C72.752 254.237 72.6092 254.363 72.5157 254.524C72.4222 254.685 72.3831 254.872 72.4041 255.057C72.4252 255.241 72.5053 255.415 72.6326 255.55C76.5771 259.502 81.2616 264.246 80.5756 270.327C80.3155 272.633 79.2231 274.987 77.1741 276.207C74.3888 277.864 70.9054 277.011 68.1001 275.865C64.6943 274.474 61.5563 272.522 57.8265 272.119C57.0228 272.032 56.79 273.079 57.2219 273.58C59.0315 275.68 61.2023 278.412 61.0415 281.356C60.9071 283.819 58.7621 285.293 56.4618 285.432C50.6105 285.787 47.6564 279.687 44.6897 275.686C42.8122 273.155 40.5841 270.829 37.5238 269.813C36.4768 269.465 36.0279 271.118 37.0691 271.464Z" fill="#22A1FF"/>
</g>
<defs>
<clipPath id="clip0_1532_39">
<rect width="293" height="349" fill="white"/>
</clipPath>
</defs>
</svg>
