<svg width="102" height="102" viewBox="0 0 102 102" fill="none" xmlns="http://www.w3.org/2000/svg">
<g clip-path="url(#clip0_345_107)">
<path d="M101.913 39.4525C101.952 39.3376 101.981 39.2196 102 39.0998C102 39.0785 102 39.0594 102 39.0382C102.005 38.7829 101.964 38.5287 101.879 38.288C101.879 38.271 101.879 38.2498 101.866 38.2307C101.764 37.9483 101.602 37.691 101.392 37.4763L83.9376 19.9748L80.8436 16.868H80.8308L78.3913 14.4115L89.1396 3.62717C89.538 3.22703 89.7612 2.68498 89.76 2.12029C89.7588 1.55559 89.5333 1.0145 89.1332 0.616047C88.9351 0.418752 88.7 0.262415 88.4415 0.15596C88.1829 0.0495051 87.9059 -0.00498173 87.6263 -0.00438975C87.0616 -0.00319421 86.5205 0.222277 86.1221 0.622422L73.8778 12.9092C73.4794 13.3077 73.2556 13.8481 73.2556 14.4115C73.2556 14.975 73.4794 15.5154 73.8778 15.9139L76.2259 18.2748L70.1123 23.6617H60.9111C58.5722 23.6606 56.3144 24.5181 54.5658 26.0714L32.9758 45.1964C32.5815 45.5437 32.3298 46.0248 32.2694 46.5467C32.209 47.0686 32.344 47.5945 32.6486 48.0227C32.8611 48.3372 38.1736 55.6727 45.1138 54.013C49.9014 52.8613 55.4923 47.9058 57.8914 45.6044C61.7758 47.4811 66.159 48.0649 70.3992 47.2704C78.4933 45.7829 80.4143 42.4403 80.7161 41.7815C80.9572 41.2642 80.9857 40.6729 80.7953 40.1348C80.605 39.5968 80.211 39.1549 79.6982 38.9043C79.4498 38.7834 79.1799 38.7132 78.9041 38.6977C78.6283 38.6822 78.3522 38.7219 78.0919 38.8142C77.8316 38.9066 77.5923 39.0499 77.3879 39.2357C77.1836 39.4216 77.0183 39.6463 76.9017 39.8967C76.8889 39.9179 75.5651 42.0025 69.6363 43.0842C65.9054 43.8326 62.0295 43.1684 58.7606 41.2205C58.3445 40.9266 57.8366 40.792 57.3296 40.8411C56.8225 40.8903 56.35 41.1199 55.9981 41.4883C54.0856 43.4879 48.2291 48.8875 44.1193 49.8778C41.4142 50.5153 38.8281 48.4902 37.3639 46.9963L57.3899 29.2483C58.3603 28.3865 59.6133 27.9109 60.9111 27.9117H70.9156C71.4336 27.912 71.9338 27.723 72.3223 27.3804L79.2392 21.288L80.5142 22.563L96.7301 38.8533L90.0129 44.4463C89.7326 44.6794 89.5169 44.9806 89.3867 45.3212C89.2564 45.6617 89.216 46.03 89.2692 46.3907C89.6304 48.8663 90.0342 56.5142 87.2377 59.0854C84.2776 61.8054 80.7734 65.4307 78.8142 67.4962L60.2778 48.8982C60.0805 48.7 59.8461 48.5427 59.588 48.4352C59.3299 48.3276 59.0532 48.272 58.7736 48.2714C58.2089 48.2702 57.6668 48.4933 57.2667 48.8918C56.8665 49.2902 56.6411 49.8313 56.6399 50.396C56.6387 50.9607 56.8619 51.5028 57.2603 51.9029L77.4074 72.1159L78.8461 73.5567C79.3711 74.0864 79.6657 74.802 79.6657 75.5478C79.6657 76.2936 79.3711 77.0092 78.8461 77.5389C78.3335 78.0586 77.6362 78.3542 76.9064 78.3614C76.1766 78.3686 75.4736 78.0866 74.9509 77.5772L61.1746 63.7647C60.7761 63.3645 60.235 63.1391 59.6703 63.1379C59.1056 63.1367 58.5636 63.3598 58.1634 63.7583C57.7633 64.1568 57.5378 64.6978 57.5366 65.2625C57.5354 65.8272 57.7586 66.3693 58.1571 66.7694L71.9696 80.618C72.9075 81.4414 73.5071 82.583 73.6526 83.8225C73.6269 84.097 73.5405 84.3623 73.3998 84.5994C73.259 84.8364 73.0674 85.0392 72.8387 85.1932C72.1544 85.7605 70.5607 87.1057 68.0001 84.5557L55.7622 72.2774C55.5649 72.0793 55.3305 71.922 55.0724 71.8144C54.8143 71.7069 54.5376 71.6512 54.2579 71.6506C53.9783 71.65 53.7014 71.7045 53.4428 71.811C53.1843 71.9174 52.9492 72.0737 52.7511 72.271C52.5529 72.4683 52.3956 72.7027 52.2881 72.9608C52.1805 73.2189 52.1248 73.4957 52.1243 73.7753C52.1237 74.0549 52.1781 74.3319 52.2846 74.5904C52.3911 74.849 52.5474 75.084 52.7447 75.2822L64.9571 87.5498C65.4662 88.0816 65.7483 88.7908 65.7435 89.527C65.7387 90.2632 65.4475 90.9686 64.9316 91.4938C64.6741 91.7537 64.3675 91.9598 64.0298 92.1002C63.692 92.2407 63.3296 92.3126 62.9638 92.3119C62.5989 92.3135 62.2374 92.2427 61.9 92.1038C61.5626 91.9648 61.2561 91.7604 60.9982 91.5023L59.4321 89.9319C59.3832 89.883 59.3194 89.866 59.2684 89.8235C59.1945 88.3173 58.6322 86.8761 57.6664 85.7179C56.7006 84.5596 55.384 83.7474 53.9156 83.4039C54.2904 82.1843 54.3279 80.886 54.0241 79.6468C53.7203 78.4076 53.0865 77.2738 52.1901 76.3659C51.4695 75.6556 50.5978 75.1174 49.6401 74.7913C50.6719 73.4352 51.1793 71.7521 51.0688 70.0517C50.9583 68.3513 50.2374 66.748 49.0387 65.5369C47.8096 64.3688 46.2088 63.6702 44.5166 63.5633C42.8243 63.4565 41.1484 63.9483 39.7822 64.9525C39.4351 64.0214 38.894 63.1746 38.1948 62.4684C36.8503 61.1825 35.0615 60.4648 33.2011 60.4648C31.3406 60.4648 29.5518 61.1825 28.2073 62.4684L23.1923 67.5025C21.6007 65.8025 18.0604 62.0902 14.7901 59.0875C11.9936 56.5248 12.3973 48.8748 12.7501 46.397C12.8031 46.0362 12.7623 45.6678 12.6316 45.3272C12.501 44.9867 12.2849 44.6855 12.0042 44.4527L5.29557 38.8597L22.7737 21.2838L29.7012 27.3868C30.0897 27.7294 30.5899 27.9183 31.1079 27.918H41.1146C42.4627 27.9285 43.7591 28.4389 44.7526 29.3503L45.2349 29.72C45.6819 30.0641 46.2472 30.2166 46.8065 30.1438C47.3658 30.0711 47.8733 29.7792 48.2174 29.3322C48.5614 28.8853 48.7139 28.32 48.6412 27.7607C48.5684 27.2014 48.2765 26.6939 47.8296 26.3498L47.4598 26.0735C45.7106 24.5214 43.4532 23.6641 41.1146 23.6638H31.9112L25.7848 18.2663L28.1223 15.9288C28.5207 15.5303 28.7445 14.9899 28.7445 14.4264C28.7445 13.8629 28.5207 13.3225 28.1223 12.924L15.8781 0.622422C15.4796 0.222277 14.9385 -0.00319421 14.3738 -0.00438975C13.8091 -0.0055853 13.2671 0.217593 12.8669 0.616047C12.4668 1.0145 12.2413 1.55559 12.2401 2.12029C12.2389 2.68498 12.4621 3.22703 12.8606 3.62717L23.6088 14.4115L0.616317 37.4827C0.308259 37.7954 0.105276 38.1963 0.0355832 38.6297C-0.0341095 39.0631 0.0329505 39.5074 0.227442 39.9009C0.273967 39.9808 0.325791 40.0575 0.382567 40.1304C0.449341 40.2598 0.529846 40.3816 0.622692 40.4938C0.650317 40.5214 0.688567 40.5299 0.718317 40.5575C0.748067 40.5852 0.758692 40.6192 0.786317 40.6425L8.40019 46.9814C8.08144 50.1817 7.73082 58.382 11.9086 62.224C15.0961 65.1608 18.6788 68.9178 20.1961 70.5243L20.1493 70.5732C18.8314 71.901 18.0919 73.6961 18.0919 75.5669C18.0919 77.4378 18.8314 79.2328 20.1493 80.5607C21.4444 81.8629 23.2003 82.6027 25.0368 82.6198C25.048 84.4696 25.7876 86.2405 27.0954 87.5488C28.4033 88.857 30.174 89.5972 32.0238 89.6089C32.0368 91.4523 32.7723 93.2171 34.0723 94.524C35.0698 95.5315 36.3493 96.2129 37.7419 96.4785C39.1345 96.744 40.575 96.5812 41.8732 96.0115C42.1955 97.1176 42.7869 98.1266 43.5944 98.9483C44.2465 99.6071 45.023 100.13 45.8788 100.486C46.7347 100.842 47.6527 101.024 48.5797 101.022C49.2196 101.012 49.8552 100.915 50.4688 100.733C51.7298 101.566 53.2078 102.009 54.7188 102.008C55.6419 102.024 56.5589 101.856 57.4165 101.514C58.2741 101.172 59.0553 100.663 59.7147 100.017C60.6831 99.0434 61.3254 97.793 61.5528 96.4387C62.0165 96.5326 62.4885 96.5796 62.9617 96.5789C64.7016 96.5778 66.3792 95.931 67.6695 94.7639C68.9599 93.5968 69.7713 91.9924 69.9466 90.2613C70.956 90.3772 71.9786 90.2763 72.946 89.9656C73.9134 89.6549 74.8034 89.1413 75.5566 88.4593C76.2342 87.9289 76.7926 87.2618 77.1953 86.5014C77.5981 85.741 77.8361 84.9042 77.8941 84.0457C77.918 83.5473 77.8816 83.0478 77.7857 82.5582C79.327 82.3643 80.7597 81.6622 81.8572 80.5628C83.1746 79.2346 83.9138 77.4397 83.9138 75.569C83.9138 73.6984 83.1746 71.9034 81.8572 70.5753L81.8168 70.5349C83.7293 68.5204 87.2356 64.8845 90.1043 62.2474C94.2842 58.4054 93.9293 50.205 93.6148 47.0048L101.229 40.6659C101.267 40.634 101.284 40.583 101.322 40.549C101.36 40.515 101.354 40.5299 101.369 40.5172C101.413 40.4596 101.452 40.3993 101.488 40.3365C101.614 40.195 101.719 40.037 101.802 39.8669C101.853 39.7329 101.89 39.594 101.913 39.4525ZM23.1626 73.58L31.2376 65.4774C31.7695 64.9683 32.4775 64.6841 33.2138 64.6841C33.9502 64.6841 34.6581 64.9683 35.1901 65.4774C35.7021 65.9961 35.9931 66.6931 36.0019 67.4219C36.0106 68.1507 35.7363 68.8545 35.2368 69.3853L27.0789 77.5623L27.0492 77.5984C26.5116 78.0879 25.8044 78.3488 25.0777 78.3257C24.351 78.3026 23.6619 77.9974 23.1564 77.4748C22.6509 76.9522 22.3689 76.2532 22.37 75.5262C22.3712 74.7991 22.6554 74.1011 23.1626 73.58ZM30.1007 84.5429C29.5843 84.0213 29.292 83.3188 29.2861 82.5848C29.2801 81.8509 29.561 81.1437 30.0688 80.6138C30.0879 80.5968 30.1092 80.584 30.1262 80.567L38.2012 72.4665C38.2437 72.4219 38.2713 72.3709 38.3138 72.3263L42.0751 68.5459C42.3336 68.2855 42.6412 68.0787 42.98 67.9377C43.3188 67.7966 43.6822 67.724 44.0492 67.724C44.4162 67.724 44.7796 67.7966 45.1184 67.9377C45.4572 68.0787 45.7648 68.2855 46.0233 68.5459C46.5484 69.0756 46.8429 69.7912 46.8429 70.537C46.8429 71.2829 46.5484 71.9985 46.0233 72.5282L34.0426 84.545C33.784 84.8055 33.4765 85.0122 33.1376 85.1533C32.7988 85.2944 32.4355 85.367 32.0684 85.367C31.7014 85.367 31.3381 85.2944 30.9992 85.1533C30.6604 85.0122 30.3529 84.8055 30.0943 84.545L30.1007 84.5429ZM37.0877 91.5278C36.5632 90.9978 36.2689 90.2823 36.2689 89.5367C36.2689 88.791 36.5632 88.0755 37.0877 87.5456L45.2349 79.377C45.4964 79.1179 45.8064 78.9129 46.1471 78.7736C46.4878 78.6342 46.8527 78.5634 47.2208 78.5651C47.5889 78.5667 47.9531 78.6409 48.2925 78.7833C48.632 78.9257 48.94 79.1336 49.1991 79.3951C49.4582 79.6566 49.6633 79.9665 49.8026 80.3073C49.9419 80.648 50.0128 81.0128 50.0111 81.3809C50.0094 81.749 49.9353 82.1132 49.7928 82.4527C49.6504 82.7921 49.4425 83.1002 49.1811 83.3593L47.2856 85.2612L43.6008 88.9544L43.5774 88.9842L41.0444 91.5342C40.5115 92.0472 39.8003 92.3333 39.0605 92.3321C38.3208 92.3309 37.6104 92.0425 37.0792 91.5278H37.0877ZM46.6013 95.9435C46.0809 95.4149 45.7892 94.7028 45.7892 93.9609C45.7892 93.2191 46.0809 92.507 46.6013 91.9783L50.2988 88.268C50.5569 88.0074 50.864 87.8006 51.2025 87.6594C51.541 87.5182 51.9041 87.4455 52.2708 87.4455C52.6376 87.4455 53.0007 87.5182 53.3391 87.6594C53.6776 87.8006 53.9848 88.0074 54.2428 88.268C54.7684 88.7975 55.0633 89.5132 55.0633 90.2592C55.0633 91.0051 54.7684 91.7209 54.2428 92.2503L50.5517 95.9435C50.0203 96.453 49.3127 96.7375 48.5765 96.7375C47.8404 96.7375 47.1327 96.453 46.6013 95.9435ZM56.7014 97.006C56.1856 97.4505 55.5227 97.6868 54.8421 97.6691L57.2454 95.255C57.2964 95.2062 57.3283 95.1467 57.3751 95.0978C57.4064 95.4456 57.3625 95.7961 57.2463 96.1253C57.13 96.4546 56.9442 96.755 56.7014 97.006Z" fill="url(#paint0_linear_345_107)"/>
</g>
<defs>
<linearGradient id="paint0_linear_345_107" x1="94.0874" y1="-0.00439942" x2="-1.75424" y2="100.325" gradientUnits="userSpaceOnUse">
<stop stop-color="#13CC62"/>
<stop offset="1" stop-color="#017DAB"/>
</linearGradient>
<clipPath id="clip0_345_107">
<rect width="102" height="102" fill="white"/>
</clipPath>
</defs>
</svg>
