<svg width="241" height="274" viewBox="0 0 241 274" fill="none" xmlns="http://www.w3.org/2000/svg">
<g clip-path="url(#clip0_1551_6011)">
<path d="M154.94 202.121C155.481 202.409 156.097 202.525 156.706 202.452C157.315 202.379 157.887 202.121 158.344 201.713C158.801 201.304 159.121 200.766 159.261 200.17C159.401 199.574 159.354 198.95 159.127 198.381C159.188 198.079 159.232 197.861 159.293 197.559C160.463 196.469 161.932 195.752 163.513 195.501C165.094 195.25 166.714 195.476 168.165 196.15C169.616 196.824 170.833 197.915 171.659 199.283C172.485 200.651 172.882 202.235 172.801 203.83C172.43 212.828 172.876 222.538 166.884 229.792C194.231 207.487 206.701 169.489 198.349 135.314C194.251 129.614 192.339 122.043 194.177 115.182C196.483 117.42 200.979 116.819 200.292 112.943C199.923 111.412 199.542 109.885 199.173 108.353C214.925 102.218 219.037 125.595 200.379 135.112C201.893 141.61 202.721 148.247 202.852 154.917C204.959 148.903 208.465 143.474 213.084 139.077C217.555 135.058 223.468 132.696 228.968 129.999C235.662 126.71 243.09 133.231 240.455 140.193C235.999 139.624 232.846 144.939 236.89 147.796C229.788 159.7 216.171 167.267 202.336 167.387C200.937 180.97 196.653 194.1 189.77 205.901C198.608 192.487 215.713 196.349 229.23 195.778C230.127 195.665 231.037 195.815 231.85 196.21C232.663 196.605 233.343 197.227 233.807 198.001C234.272 198.775 234.501 199.667 234.466 200.569C234.431 201.47 234.134 202.342 233.611 203.078C231.833 202.974 230.049 203.046 228.285 203.294C227.455 203.417 226.684 203.793 226.077 204.37C225.47 204.948 225.056 205.698 224.893 206.519C224.73 207.341 224.825 208.192 225.166 208.957C225.507 209.722 226.076 210.363 226.797 210.792C214.939 221.642 196.565 223.974 182.145 217.051C177.881 222.411 173.071 227.315 167.792 231.682L146.353 221.482C146.389 221.208 146.437 220.929 146.482 220.659C148.407 221.727 150.455 222.557 152.582 223.128C150.295 214.426 147.747 209.329 154.939 202.121H154.94Z" fill="#F2F2F2"/>
<path d="M117.057 181.535C116.665 182.005 116.137 182.345 115.546 182.506C114.954 182.668 114.327 182.644 113.75 182.438C113.172 182.232 112.672 181.854 112.317 181.355C111.962 180.856 111.77 180.26 111.765 179.648C111.595 179.39 111.472 179.206 111.301 178.948C109.806 178.379 108.174 178.269 106.615 178.632C105.056 178.994 103.642 179.813 102.552 180.984C101.463 182.154 100.748 183.623 100.501 185.201C100.253 186.779 100.483 188.395 101.161 189.842C104.905 198.036 108.162 207.196 116.452 211.658C82.6955 201.297 56.7875 170.801 51.6066 136.006C53.2479 129.185 52.157 121.453 47.862 115.79C46.5723 118.732 42.1816 119.867 41.3532 116.019C41.1158 114.462 40.8919 112.904 40.6543 111.347C23.7483 111.596 28.774 134.793 49.6505 136.583C50.7042 143.171 52.4449 149.63 54.8443 155.856C50.6208 151.079 45.3217 147.372 39.3826 145.038C33.7227 143 27.3538 143.038 21.2407 142.612C13.7987 142.086 9.3833 150.922 14.4549 156.377C18.3663 154.172 23.2952 157.908 20.63 162.076C31.7059 170.427 47.1766 172.308 60.0352 167.211C66.4644 179.264 75.3937 189.811 86.2279 198.149C72.9732 189.053 58.592 199.07 45.8574 203.63C44.9841 203.863 44.1977 204.345 43.5941 205.016C42.9905 205.688 42.5958 206.52 42.458 207.412C42.3203 208.304 42.4456 209.216 42.8185 210.038C43.1915 210.86 43.796 211.555 44.5584 212.04C46.1659 211.274 47.8456 210.67 49.5729 210.235C50.3876 210.036 51.244 210.094 52.0246 210.4C52.8052 210.706 53.4719 211.246 53.9332 211.945C54.3945 212.644 54.6278 213.469 54.6013 214.305C54.5748 215.142 54.2896 215.95 53.7849 216.619C68.8669 222.203 86.7649 217.445 97.5038 205.604C103.478 208.963 109.786 211.693 116.326 213.751L132.327 196.233C132.189 195.992 132.039 195.753 131.896 195.519C130.517 197.233 128.933 198.773 127.179 200.103C126.008 191.182 126.442 185.502 117.057 181.534L117.057 181.535Z" fill="#F2F2F2"/>
<path d="M121.175 107.51C121.785 107.448 122.361 107.201 122.826 106.802C123.291 106.402 123.621 105.87 123.772 105.276C123.924 104.683 123.889 104.058 123.672 103.485C123.456 102.913 123.068 102.42 122.562 102.075C122.443 101.79 122.358 101.585 122.24 101.3C122.602 99.7442 123.422 98.3316 124.594 97.2436C125.766 96.1555 127.237 95.4416 128.818 95.1933C130.399 94.9451 132.018 95.1737 133.468 95.85C134.919 96.5263 136.133 97.6195 136.957 98.9893C141.676 106.665 147.469 114.477 146.547 123.834C156.79 90.0985 145.915 51.616 119.892 27.8932C113.306 25.4423 107.49 20.2207 105.183 13.5022C108.348 14.0773 111.743 11.0763 109.008 8.24144C107.847 7.17508 106.677 6.11971 105.516 5.05328C115.165 -8.80491 131.637 8.31214 121.464 26.5963C126.35 31.1477 130.746 36.1964 134.58 41.6602C132.97 35.4958 132.848 29.0377 134.226 22.8172C135.693 16.993 139.281 11.741 142.342 6.44184C146.061 -0.0135916 155.87 1.26584 157.571 8.51147C153.554 10.5187 153.906 16.6861 158.859 16.8073C159.613 30.6417 152.536 44.5008 141.118 52.2998C147.544 64.3546 151.322 77.6381 152.201 91.265C152.044 75.211 168.401 68.8986 179.303 60.9019C179.984 60.3091 180.824 59.9271 181.719 59.8024C182.614 59.6778 183.527 59.8159 184.345 60.1999C185.163 60.5839 185.851 61.1972 186.326 61.965C186.8 62.7328 187.041 63.6219 187.018 64.5239C185.484 65.427 184.043 66.48 182.717 67.6674C182.097 68.2309 181.667 68.9721 181.485 69.7894C181.303 70.6067 181.38 71.46 181.703 72.2324C182.026 73.0048 182.581 73.6584 183.291 74.1037C184.001 74.5491 184.832 74.7643 185.67 74.7198C181.887 90.3255 167.937 102.487 152.098 104.764C151.553 111.587 150.299 118.334 148.357 124.898L124.861 128.361C124.738 128.113 124.623 127.855 124.509 127.606C126.703 127.422 128.868 126.97 130.953 126.261C124.193 120.309 119.23 117.496 121.174 107.51L121.175 107.51Z" fill="#F2F2F2"/>
<path d="M144.805 99.9904C134.109 99.9904 128.307 98.6857 126.281 95.9008C124.493 93.4436 125.691 90.2015 127.079 86.4476C128.077 83.7494 129.207 80.6913 129.207 77.6646C129.207 62.9434 136.686 55.4789 151.435 55.4789C158.773 55.4789 166.652 59.3698 172.512 65.8872C177.839 71.8121 180.493 78.9032 179.793 85.3422C179.219 90.6229 176.756 94.0956 172.043 96.2716L171.767 96.3989L171.689 96.106C171.282 94.5904 170.593 93.1647 169.658 91.9031C169.567 93.8834 169.067 95.8235 168.189 97.6017L168.139 97.703L168.03 97.7341C162.695 99.2507 156.364 99.6616 151.445 99.8499C149.05 99.9431 146.837 99.9899 144.805 99.9904Z" fill="#2F2E41"/>
<path d="M147.721 120.501C147.311 119.299 146.619 118.211 145.704 117.328C144.788 116.445 143.675 115.793 142.456 115.426C141.238 115.059 139.949 114.987 138.697 115.216C137.445 115.446 136.265 115.97 135.257 116.745L100.073 137.741L89.0631 110.928C89.9932 109.566 90.4672 107.945 90.4173 106.298C90.3674 104.651 89.796 103.061 88.7852 101.758C87.7744 100.455 86.376 99.5045 84.7906 99.0435C83.2052 98.5826 81.5143 98.6346 79.9604 99.1921C78.4065 99.7496 77.0694 100.784 76.1409 102.147C75.2124 103.51 74.7401 105.131 74.7919 106.779C74.8437 108.426 75.4169 110.014 76.4292 111.317C77.4415 112.619 78.8409 113.567 80.4268 114.027C81.1054 121.759 84.8766 156.318 97.9959 155.061C109.023 154.005 136.409 135.802 144.915 129.49C146.276 128.481 147.281 127.067 147.785 125.452C148.289 123.837 148.267 122.103 147.721 120.501Z" fill="#FFB6B6"/>
<path d="M174.235 273H143.612L138.477 247.657L136.811 273H108.365C108.376 253.098 109.414 233.21 111.477 213.415L111.829 212.217L112.386 210.299L112.739 209.095L118.625 188.919L119.09 187.318H154.537C156.577 189.23 158.458 191.304 160.163 193.519C160.74 194.254 161.343 195.049 161.961 195.906C162.39 196.513 162.835 197.151 163.28 197.819C167.229 203.688 170.181 210.167 172.017 216.995V217C172.329 218.168 172.605 219.364 172.845 220.586V220.591C173.06 221.677 173.249 222.779 173.397 223.906C173.509 224.727 173.606 225.558 173.678 226.4C174.104 231.062 173.955 235.759 173.233 240.385L174.235 273Z" fill="#2F2E41"/>
<path d="M11.8718 41.2707C13.8605 40.5023 15.0386 38.76 14.503 37.3791C13.9675 35.9983 11.9212 35.5018 9.93245 36.2702C7.94372 37.0385 6.76568 38.7808 7.30122 40.1617C7.83676 41.5425 9.88307 42.0391 11.8718 41.2707Z" fill="#E6E6E6"/>
<path d="M36.9118 38.0647C38.9006 37.2963 40.0786 35.554 39.5431 34.1731C39.0075 32.7923 36.9612 32.2958 34.9725 33.0642C32.9838 33.8326 31.8057 35.5748 32.3413 36.9557C32.8768 38.3366 34.9231 38.8331 36.9118 38.0647Z" fill="#3F3D56"/>
<path d="M9.70043 62.5935C11.6892 61.8251 12.8672 60.0828 12.3317 58.7019C11.7961 57.3211 9.7498 56.8246 7.76107 57.593C5.77235 58.3614 4.59429 60.1037 5.12983 61.4845C5.66537 62.8654 7.7117 63.3619 9.70043 62.5935Z" fill="#FF6584"/>
<path d="M2.45631 71.999C3.36867 71.7835 3.85665 70.5476 3.54622 69.2385C3.2358 67.9295 2.24452 67.043 1.33215 67.2585C0.41979 67.4741 -0.068173 68.71 0.242253 70.019C0.55268 71.3281 1.54395 72.2146 2.45631 71.999Z" fill="#E6E6E6"/>
<path d="M2.30738 87.923C3.21975 87.7074 3.70771 86.4715 3.39728 85.1625C3.08686 83.8534 2.09559 82.9669 1.18323 83.1825C0.270865 83.398 -0.217099 84.634 0.0933276 85.943C0.403754 87.252 1.39502 88.1385 2.30738 87.923Z" fill="#3F3D56"/>
<path d="M24.2844 54.9408C25.1968 54.7252 25.6848 53.4893 25.3743 52.1803C25.0639 50.8712 24.0726 49.9848 23.1603 50.2003C22.2479 50.4158 21.7599 51.6518 22.0704 52.9608C22.3808 54.2699 23.3721 55.1563 24.2844 54.9408Z" fill="#E6E6E6"/>
<path d="M11.0964 51.7443C12.0088 51.5288 12.4968 50.2929 12.1863 48.9838C11.8759 47.6748 10.8847 46.7883 9.97229 47.0038C9.05993 47.2194 8.57196 48.4553 8.88239 49.7643C9.19282 51.0734 10.1841 51.9599 11.0964 51.7443Z" fill="#FF6584"/>
<path d="M25.0745 37.081C25.9868 36.8655 26.4748 35.6296 26.1644 34.3205C25.8539 33.0115 24.8627 32.125 23.9503 32.3406C23.038 32.5561 22.55 33.792 22.8604 35.1011C23.1708 36.4101 24.1621 37.2966 25.0745 37.081Z" fill="#3F3D56"/>
<path d="M31.5753 147.294C32.5369 146.166 32 144.134 30.3761 142.754C28.7522 141.374 26.6563 141.17 25.6947 142.298C24.7331 143.425 25.27 145.458 26.8939 146.837C28.5178 148.217 30.6138 148.421 31.5753 147.294Z" fill="#E6E6E6"/>
<path d="M16.8283 126.843C17.7898 125.715 17.2529 123.683 15.629 122.303C14.0052 120.923 11.9092 120.719 10.9476 121.847C9.98606 122.974 10.523 125.007 12.1469 126.386C13.7708 127.766 15.8667 127.97 16.8283 126.843Z" fill="#3F3D56"/>
<path d="M51.3952 139.047C52.3567 137.92 51.8198 135.887 50.1959 134.507C48.572 133.128 46.4761 132.923 45.5145 134.051C44.5529 135.178 45.0899 137.211 46.7138 138.591C48.3377 139.97 50.4336 140.175 51.3952 139.047Z" fill="#FF6584"/>
<path d="M61.2416 139.273C62.2471 138.377 62.5561 137.085 61.9318 136.387C61.3075 135.689 59.9863 135.849 58.9808 136.745C57.9753 137.64 57.6663 138.933 58.2906 139.631C58.9149 140.329 60.2361 140.169 61.2416 139.273Z" fill="#E6E6E6"/>
<path d="M75.3422 131.822C76.3477 130.926 76.6567 129.634 76.0324 128.936C75.4081 128.237 74.0869 128.398 73.0814 129.293C72.0759 130.189 71.7668 131.481 72.3912 132.179C73.0155 132.878 74.3367 132.717 75.3422 131.822Z" fill="#3F3D56"/>
<path d="M35.8198 128.237C36.8253 127.341 37.1343 126.049 36.5099 125.351C35.8856 124.653 34.5644 124.813 33.5589 125.709C32.5534 126.604 32.2444 127.896 32.8687 128.595C33.493 129.293 34.8143 129.133 35.8198 128.237Z" fill="#E6E6E6"/>
<path d="M39.2826 141.334C40.2881 140.438 40.5971 139.146 39.9728 138.448C39.3485 137.75 38.0273 137.91 37.0218 138.806C36.0163 139.701 35.7073 140.993 36.3316 141.692C36.9559 142.39 38.2771 142.23 39.2826 141.334Z" fill="#FF6584"/>
<path d="M19.7084 136.047C20.7139 135.151 21.0229 133.859 20.3986 133.161C19.7743 132.463 18.4531 132.623 17.4476 133.519C16.4421 134.415 16.1331 135.707 16.7574 136.405C17.3817 137.103 18.7029 136.943 19.7084 136.047Z" fill="#3F3D56"/>
<path d="M130.647 16.1282C131.978 15.4747 132.295 13.3966 131.353 11.4866C130.412 9.57658 128.57 8.55795 127.239 9.21141C125.908 9.86487 125.592 11.943 126.533 13.853C127.474 15.763 129.316 16.7817 130.647 16.1282Z" fill="#E6E6E6"/>
<path d="M136.041 40.7436C137.372 40.0902 137.688 38.012 136.747 36.102C135.806 34.192 133.964 33.1734 132.633 33.8268C131.301 34.4803 130.985 36.5584 131.926 38.4684C132.867 40.3784 134.709 41.3971 136.041 40.7436Z" fill="#3F3D56"/>
<path d="M109.176 15.8372C110.507 15.1838 110.823 13.1057 109.882 11.1957C108.941 9.28563 107.099 8.26698 105.768 8.92044C104.437 9.5739 104.12 11.652 105.061 13.562C106.003 15.4721 107.845 16.4907 109.176 15.8372Z" fill="#FF6584"/>
<path d="M97.8902 8.02562C99.1695 7.60227 99.9673 6.53902 99.6723 5.65077C99.3772 4.76251 98.101 4.38562 96.8217 4.80896C95.5424 5.23231 94.7446 6.29558 95.0396 7.18383C95.3347 8.07209 96.6109 8.44897 97.8902 8.02562Z" fill="#E6E6E6"/>
<path d="M81.9844 9.27269C83.2637 8.84935 84.0616 7.78608 83.7665 6.89783C83.4715 6.00958 82.1952 5.6327 80.9159 6.05604C79.6366 6.47939 78.8388 7.54264 79.1339 8.43089C79.4289 9.31915 80.7051 9.69604 81.9844 9.27269Z" fill="#3F3D56"/>
<path d="M116.828 28.2337C118.107 27.8103 118.905 26.7471 118.61 25.8588C118.315 24.9706 117.038 24.5937 115.759 25.017C114.48 25.4404 113.682 26.5036 113.977 27.3919C114.272 28.2802 115.548 28.657 116.828 28.2337Z" fill="#E6E6E6"/>
<path d="M118.862 14.8413C120.142 14.418 120.94 13.3547 120.644 12.4665C120.349 11.5782 119.073 11.2014 117.794 11.6247C116.515 12.048 115.717 13.1113 116.012 13.9996C116.307 14.8878 117.583 15.2647 118.862 14.8413Z" fill="#FF6584"/>
<path d="M134.722 27.4546C136.001 27.0313 136.799 25.968 136.504 25.0798C136.209 24.1915 134.933 23.8146 133.653 24.238C132.374 24.6613 131.576 25.7246 131.871 26.6128C132.166 27.5011 133.442 27.878 134.722 27.4546Z" fill="#3F3D56"/>
<path d="M139.632 104.089L156.503 103.221L164.339 115.58C164.339 115.58 179.082 118.04 178.06 135.38C177.038 152.721 160.122 167.937 160.122 167.937L160.845 176.967L159.589 180.549L159.75 182.56L161.463 184.69L161.64 186.893L160.122 190.378L162.186 193.715L118.786 189.518L117.199 183.748L119.515 180.649L118.221 176.607L120.166 172.72L121.179 160.372C121.179 160.372 110.089 143.742 122.82 131.216L127.93 122.546L133.647 115.583L139.632 104.089Z" fill="#22A1FF"/>
<path d="M148.019 100.599C157.892 100.599 165.895 92.6108 165.895 82.7567C165.895 72.9026 157.892 64.9142 148.019 64.9142C138.147 64.9142 130.143 72.9026 130.143 82.7567C130.143 92.6108 138.147 100.599 148.019 100.599Z" fill="#FFB6B6"/>
<path d="M145.626 81.6752C144.085 81.6752 142.546 81.6319 141.007 81.5452L140.732 81.5298L140.768 81.2573C140.995 79.5542 140.867 77.8228 140.394 76.1711C139.589 78.0518 138.392 79.7396 136.882 81.1218L136.796 81.1998L136.681 81.1873C132.502 80.7311 128.361 79.9773 124.29 78.9316L124.134 78.8918L124.103 78.7344C123.799 77.244 123.641 75.7275 123.633 74.2065C123.633 69.4553 125.359 65.4564 128.493 62.9464C131.904 60.2143 136.793 59.374 142.266 60.5791H159.764C161.688 60.5813 163.532 61.345 164.892 62.7027C166.253 64.0604 167.018 65.9013 167.02 67.8214V78.8816L166.829 78.9314C159.908 80.7469 152.782 81.669 145.626 81.6752Z" fill="#2F2E41"/>
<path d="M23.6483 61.8285C22.8649 62.1144 22.2272 62.6989 21.8751 63.4535C21.5229 64.2082 21.485 65.0715 21.7698 65.854L40.647 117.553C40.9334 118.335 41.5189 118.972 42.275 119.323C43.0311 119.675 43.896 119.713 44.68 119.429L117.946 92.7778C118.729 92.4918 119.367 91.9074 119.719 91.1527C120.071 90.3981 120.109 89.5348 119.824 88.7523L100.947 37.0528C100.66 36.2709 100.075 35.6344 99.3189 35.2828C98.5628 34.9313 97.6979 34.8935 96.9139 35.1776L23.6483 61.8285Z" fill="#CCCCCC"/>
<path d="M90.6779 99.8465L45.8318 116.16C44.988 116.465 44.0571 116.425 43.2434 116.046C42.4296 115.668 41.7994 114.983 41.4911 114.141L24.3697 67.2504C24.0632 66.4082 24.1039 65.4791 24.483 64.6668C24.862 63.8546 25.5484 63.2256 26.3915 62.9179L95.5171 37.773C96.3609 37.4671 97.2918 37.5078 98.1055 37.8862C98.9193 38.2645 99.5495 38.9496 99.8578 39.7911L108.131 62.4484C110.776 69.7182 110.424 77.7384 107.152 84.7494C103.88 91.7605 97.9554 97.1899 90.6779 99.8465Z" fill="white"/>
<path d="M58.4084 65.9717L47.7514 69.8482C47.6178 69.8968 47.4759 69.9187 47.3337 69.9125C47.1916 69.9064 47.0521 69.8724 46.9232 69.8124C46.7942 69.7525 46.6784 69.6678 46.5822 69.5632C46.4861 69.4585 46.4115 69.336 46.3628 69.2026C46.3141 69.0692 46.2922 68.9276 46.2984 68.7857C46.3045 68.6439 46.3386 68.5046 46.3987 68.3759C46.4587 68.2472 46.5436 68.1316 46.6484 68.0356C46.7533 67.9397 46.876 67.8653 47.0096 67.8167L57.6666 63.9401C57.9365 63.8419 58.2344 63.8548 58.4949 63.9759C58.7553 64.0969 58.9568 64.3163 59.0552 64.5857C59.1536 64.8551 59.1407 65.1525 59.0194 65.4124C58.8981 65.6723 58.6783 65.8735 58.4084 65.9717Z" fill="#22A1FF"/>
<path d="M83.8147 61.4363L49.2683 74.0027C49.1346 74.0515 48.9926 74.0736 48.8504 74.0676C48.7081 74.0616 48.5685 74.0276 48.4394 73.9677C48.3103 73.9078 48.1943 73.8231 48.0981 73.7184C48.0018 73.6137 47.9272 73.4911 47.8785 73.3576C47.8297 73.2241 47.8078 73.0823 47.814 72.9404C47.8202 72.7984 47.8544 72.6591 47.9146 72.5303C47.9748 72.4015 48.0598 72.2859 48.1648 72.1899C48.2698 72.094 48.3927 72.0197 48.5265 71.9712L83.0729 59.4047C83.2065 59.3561 83.3485 59.3342 83.4906 59.3404C83.6327 59.3465 83.7722 59.3805 83.9011 59.4405C84.0301 59.5004 84.1459 59.5851 84.2421 59.6898C84.3382 59.7944 84.4128 59.9169 84.4615 60.0503C84.5102 60.1837 84.5321 60.3254 84.5259 60.4672C84.5198 60.609 84.4857 60.7483 84.4257 60.877C84.3656 61.0057 84.2807 61.1213 84.1759 61.2173C84.0711 61.3132 83.9483 61.3877 83.8147 61.4363Z" fill="#22A1FF"/>
<path d="M85.5561 66.2051L51.0097 78.7716C50.8761 78.8202 50.7342 78.842 50.592 78.8359C50.4499 78.8298 50.3104 78.7958 50.1815 78.7358C50.0525 78.6759 49.9367 78.5912 49.8405 78.4865C49.7444 78.3819 49.6698 78.2594 49.6211 78.126C49.5724 77.9926 49.5505 77.8509 49.5567 77.7091C49.5628 77.5672 49.5969 77.428 49.657 77.2993C49.717 77.1706 49.8019 77.055 49.9067 76.959C50.0116 76.863 50.1343 76.7886 50.2679 76.74L84.8143 64.1735C85.0841 64.0758 85.3818 64.0889 85.6419 64.21C85.9021 64.3312 86.1034 64.5504 86.2017 64.8196C86.2999 65.0888 86.2872 65.3859 86.1661 65.6457C86.0451 65.9055 85.8257 66.1067 85.5561 66.2051Z" fill="#22A1FF"/>
<path d="M87.2976 70.974L52.7512 83.5405C52.6175 83.5893 52.4755 83.6113 52.3333 83.6053C52.191 83.5993 52.0514 83.5654 51.9223 83.5054C51.7932 83.4455 51.6772 83.3608 51.581 83.2561C51.4847 83.1514 51.4101 83.0288 51.3614 82.8953C51.3126 82.7618 51.2907 82.6201 51.2969 82.4781C51.3031 82.3361 51.3373 82.1968 51.3975 82.068C51.4577 81.9393 51.5427 81.8236 51.6477 81.7277C51.7527 81.6317 51.8756 81.5574 52.0094 81.5089L86.5558 68.9424C86.6894 68.8938 86.8314 68.872 86.9735 68.8781C87.1156 68.8842 87.2551 68.9182 87.384 68.9782C87.513 69.0381 87.6288 69.1228 87.725 69.2275C87.8211 69.3321 87.8957 69.4546 87.9444 69.588C87.9931 69.7214 88.015 69.8631 88.0089 70.0049C88.0027 70.1468 87.9686 70.286 87.9086 70.4147C87.8485 70.5434 87.7636 70.659 87.6588 70.755C87.554 70.851 87.4312 70.9254 87.2976 70.974Z" fill="#22A1FF"/>
<path d="M89.0385 75.7428L54.4922 88.3093C54.2223 88.4075 53.9243 88.3946 53.6639 88.2736C53.4035 88.1525 53.2019 87.9331 53.1036 87.6637C53.0052 87.3943 53.0181 87.097 53.1394 86.837C53.2607 86.5771 53.4805 86.3759 53.7504 86.2778L88.2967 73.7113C88.4304 73.6627 88.5723 73.6408 88.7144 73.6469C88.8566 73.6531 88.9961 73.6871 89.125 73.747C89.2539 73.807 89.3698 73.8917 89.4659 73.9963C89.5621 74.101 89.6366 74.2235 89.6853 74.3569C89.7341 74.4903 89.756 74.6319 89.7498 74.7738C89.7437 74.9156 89.7096 75.0549 89.6495 75.1836C89.5895 75.3123 89.5046 75.4279 89.3998 75.5239C89.2949 75.6198 89.1722 75.6942 89.0385 75.7428Z" fill="#22A1FF"/>
<path d="M198.655 88.987L179.74 134.164C178.933 136.076 177.405 137.594 175.487 138.391C173.568 139.189 171.412 139.201 169.485 138.426C168.487 138.025 167.582 137.425 166.825 136.664C166.067 135.902 165.473 134.995 165.078 133.996C164.684 132.998 164.497 131.93 164.529 130.858C164.561 129.785 164.812 128.73 165.266 127.757L186.355 81.4306L197.981 52.7416C196.976 51.7416 196.304 50.4571 196.057 49.0627C195.809 47.6683 195.997 46.2316 196.596 44.9478C197.195 43.664 198.175 42.5952 199.404 41.8868C200.632 41.1784 202.049 40.8647 203.463 40.9883C204.876 41.1118 206.217 41.6667 207.304 42.5775C208.39 43.4882 209.17 44.7107 209.536 46.0789C209.902 47.4471 209.837 48.8946 209.35 50.2248C208.863 51.555 207.978 52.7033 206.815 53.5139L198.655 88.987Z" fill="#FFB6B6"/>
<line x1="6" y1="273.5" x2="236" y2="273.5" stroke="black" stroke-opacity="0.3"/>
</g>
<defs>
<clipPath id="clip0_1551_6011">
<rect width="241" height="274" fill="white"/>
</clipPath>
</defs>
</svg>
